<svg width="1150" height="1150" viewBox="0 0 1150 1150" fill="none" xmlns="http://www.w3.org/2000/svg">
<rect width="1150" height="1150" rx="200" fill="#141414"/>
<path opacity="0.07" d="M307.6 554.2C281.6 531.9 265.6 490.4 265.6 434.4C265.6 319.4 333 187.2 416 140.2C499.1 93.1 565.3 148.3 564.5 264.2C564.1 319.3 548.3 378.4 522.8 429.8C503.1 469.4 490.2 513.6 485.9 554.7C484.2 572.3 473.7 590.5 461.6 597.5L368.8 651C356.6 658.1 346.2 651.7 344.3 636.2C340.1 600.1 327.3 571.3 307.6 554.2Z" fill="url(#paint0_linear_287_1058)"/>
<path opacity="0.07" d="M346.1 744.2V719.6C346.1 706.4 353.7 691.5 363.2 685.8L467.4 625.6C476.9 620.1 484.5 626.3 484.5 639.5V664.1C484.5 683.9 474.1 705.9 460.5 716.7L369.9 769C356.4 774.1 346.1 763.8 346.1 744.2Z" fill="url(#paint1_linear_287_1058)"/>
<path opacity="0.4" d="M357.6 594C331.6 571.7 315.6 530.2 315.6 474.2C315.6 359.2 383 227 466 180C549.1 132.9 615.3 188.1 614.5 304C614.1 359.1 598.3 418.2 572.8 469.6C553.1 509.2 540.2 553.4 535.9 594.5C534.2 612.1 523.7 630.3 511.6 637.3L418.8 690.8C406.6 697.9 396.2 691.5 394.3 676C390.1 639.9 377.3 611 357.6 594Z" fill="url(#paint2_linear_287_1058)"/>
<path opacity="0.4" d="M396.1 784V759.4C396.1 746.2 403.7 731.3 413.2 725.6L517.4 665.4C526.9 659.9 534.5 666.1 534.5 679.3V703.9C534.5 723.7 524.1 745.7 510.5 756.5L419.9 808.8C406.4 813.9 396.1 803.6 396.1 784Z" fill="url(#paint3_linear_287_1058)"/>
<path opacity="0.3" d="M615 792.6L912.6 620.8L912.5 775.9L641.1 932.5L614.8 971.4L615 792.6Z" fill="url(#paint4_linear_287_1058)"/>
<path d="M944.2 681.3V639.2L831.9 704V746.1L944.2 681.3Z" fill="#14B8A6"/>
<path opacity="0.15" d="M691.5 786.2L756.7 748.6V762.2L691.5 799.8V786.2Z" fill="white"/>
<path opacity="0.15" d="M691.4 813.5L817.1 741V754.6L691.4 827.1V813.5Z" fill="white"/>
<path opacity="0.15" d="M691.4 840.7L843.7 752.8V766.4L691.4 854.3V840.7Z" fill="white"/>
<path d="M675.4 809.7C675.4 822.5 667.8 837.2 658.5 842.6C649.2 848 641.6 842 641.6 829.2C641.6 816.4 649.2 801.7 658.5 796.3C667.8 790.9 675.4 796.9 675.4 809.7Z" fill="#14B8A6"/>
<path opacity="0.3" d="M591.8 699.3L294.2 871.1L294.1 1026.2L565.4 869.6L591.6 878.2L591.8 699.3Z" fill="url(#paint5_linear_287_1058)"/>
<path d="M380.8 898.4V856.3L268.5 921.2V963.3L380.8 898.4Z" fill="#6366F1"/>
<path opacity="0.15" d="M515.3 781.3L450.1 818.9V832.5L515.3 794.9V781.3Z" fill="white"/>
<path opacity="0.15" d="M515.3 808.5L397.6 876.4V890L515.3 822.1V808.5Z" fill="white"/>
<path opacity="0.15" d="M515.2 835.8L363 923.7V937.3L515.3 849.4L515.2 835.8Z" fill="white"/>
<path d="M531.3 786.2C531.3 799 538.9 805 548.2 799.6C557.5 794.2 565.1 779.5 565.1 766.7C565.1 753.9 557.5 747.9 548.2 753.3C538.9 758.7 531.3 773.4 531.3 786.2Z" fill="#6366F1"/>
<path opacity="0.15" d="M259.8 686.3L252.3 702.9L315.5 717.6L249.8 809.1L257.3 817L338 704.6L259.8 686.3Z" fill="white"/>
<path d="M238.9 704.9C238.9 717.8 246.5 723.9 255.8 718.6C265.1 713.2 272.7 698.4 272.7 685.4C272.7 672.5 265.1 666.4 255.8 671.7C246.4 677.1 238.9 692 238.9 704.9Z" fill="#14B8A6"/>
<path d="M238.9 819.5C238.9 832.4 246.5 838.5 255.8 833.2C265.1 827.8 272.7 813 272.7 800C272.7 787.1 265.1 781 255.8 786.3C246.4 791.8 238.9 806.6 238.9 819.5Z" fill="#14B8A6"/>
<path d="M311 719.1C311 732 318.6 738.1 327.9 732.8C337.2 727.4 344.8 712.6 344.8 699.6C344.8 686.7 337.2 680.6 327.9 685.9C318.6 691.2 311 706.2 311 719.1Z" fill="#6366F1"/>
<path opacity="0.3" d="M782.4 376.6L614.8 473.3V783.8L782.4 687.1V376.6Z" fill="url(#paint6_linear_287_1058)"/>
<path opacity="0.15" d="M766 560.9L631.4 638.6V652.2L766 574.6V560.9Z" fill="white"/>
<path opacity="0.15" d="M756.6 592.9L640.9 659.7V673.3L756.6 606.5V592.9Z" fill="white"/>
<path d="M707.7 648.4L824.3 581.1V615.8L707.7 683.1V648.4Z" fill="#6366F1"/>
<path d="M679.6 498.7C679.6 513.7 688.3 520.8 699 514.6C709.7 508.3 718.4 491.1 718.4 476C718.4 461 709.7 453.9 699 460.1C688.3 466.4 679.6 483.7 679.6 498.7Z" fill="#6366F1"/>
<path d="M699 526.7C716.3 516.6 730.6 526.1 733.1 547.8C733.5 551.6 730.7 556.6 727.2 558.6L670.8 591.6C667.3 593.6 664.5 592 664.9 587.7C667.4 562.9 681.7 536.8 699 526.7Z" fill="#6366F1"/>
<path opacity="0.2" d="M536.3 1007.6C596.8 929.8 553 901.6 536.3 947.2C519.5 921 475.8 999.6 536.3 1007.6Z" fill="url(#paint7_linear_287_1058)"/>
<defs>
<linearGradient id="paint0_linear_287_1058" x1="297.695" y1="269.717" x2="603.739" y2="548.372" gradientUnits="userSpaceOnUse">
<stop stop-color="white"/>
<stop offset="1" stop-color="white" stop-opacity="0"/>
</linearGradient>
<linearGradient id="paint1_linear_287_1058" x1="139.318" y1="443.612" x2="445.362" y2="722.267" gradientUnits="userSpaceOnUse">
<stop stop-color="white"/>
<stop offset="1" stop-color="white" stop-opacity="0"/>
</linearGradient>
<linearGradient id="paint2_linear_287_1058" x1="347.714" y1="309.497" x2="653.758" y2="588.151" gradientUnits="userSpaceOnUse">
<stop stop-color="white"/>
<stop offset="1" stop-color="white" stop-opacity="0"/>
</linearGradient>
<linearGradient id="paint3_linear_287_1058" x1="189.336" y1="483.393" x2="495.381" y2="762.047" gradientUnits="userSpaceOnUse">
<stop stop-color="white"/>
<stop offset="1" stop-color="white" stop-opacity="0"/>
</linearGradient>
<linearGradient id="paint4_linear_287_1058" x1="679.853" y1="730.477" x2="833.503" y2="850.781" gradientUnits="userSpaceOnUse">
<stop stop-color="white"/>
<stop offset="1" stop-color="white" stop-opacity="0"/>
</linearGradient>
<linearGradient id="paint5_linear_287_1058" x1="463.973" y1="704.353" x2="425.504" y2="1016.38" gradientUnits="userSpaceOnUse">
<stop stop-color="white"/>
<stop offset="1" stop-color="white" stop-opacity="0"/>
</linearGradient>
<linearGradient id="paint6_linear_287_1058" x1="596.941" y1="403.967" x2="745.708" y2="661.706" gradientUnits="userSpaceOnUse">
<stop stop-color="white"/>
<stop offset="1" stop-color="white" stop-opacity="0"/>
</linearGradient>
<linearGradient id="paint7_linear_287_1058" x1="523.489" y1="950.2" x2="568.252" y2="988.87" gradientUnits="userSpaceOnUse">
<stop stop-color="white"/>
<stop offset="1" stop-color="white" stop-opacity="0"/>
</linearGradient>
</defs>
</svg>
