<svg width="1150" height="1150" viewBox="0 0 1150 1150" fill="none" xmlns="http://www.w3.org/2000/svg">
<rect width="1150" height="1150" rx="200" fill="black"/>
<path opacity="0.3" d="M517.8 475.2L220.2 647.1V802.2L491.5 645.5L517.7 654.1L517.8 475.2Z" fill="url(#paint0_linear_287_803)"/>
<path d="M457.3 562C457.3 574.8 464.9 580.8 474.2 575.4C483.5 570 491.1 555.3 491.1 542.5C491.1 529.7 483.5 523.7 474.2 529.1C464.9 534.5 457.3 549.3 457.3 562Z" fill="#14B8A6"/>
<path opacity="0.15" d="M441.3 557.1L376.1 594.8V608.4L441.3 570.7V557.1Z" fill="white"/>
<path opacity="0.15" d="M441.3 584.4L246.5 696.9V710.5L441.3 598V584.4Z" fill="white"/>
<path opacity="0.15" d="M441.3 611.6L289 699.6V713.2L441.3 625.2V611.6Z" fill="white"/>
<path opacity="0.3" d="M734 268.3L566.4 365V675.5L734 578.8V268.3Z" fill="url(#paint1_linear_287_803)"/>
<path opacity="0.15" d="M717.5 452.6L582.9 530.3V543.9L717.5 466.2V452.6Z" fill="white"/>
<path opacity="0.15" d="M708.1 484.5L592.4 551.3V564.9L708.1 498.1V484.5Z" fill="white"/>
<path d="M659.2 540.1L775.8 472.8V507.5L659.2 574.8V540.1Z" fill="#6366F1"/>
<path d="M631.1 390.3C631.1 405.3 639.8 412.4 650.5 406.2C661.2 399.9 669.9 382.7 669.9 367.6C669.9 352.6 661.2 345.5 650.5 351.7C639.8 358.1 631.1 375.3 631.1 390.3Z" fill="#6366F1"/>
<path d="M650.499 418.3C667.799 408.2 682.099 417.7 684.599 439.4C684.999 443.2 682.199 448.2 678.699 450.2L622.299 483.2C618.799 485.2 615.999 483.6 616.399 479.3C618.899 454.6 633.199 428.4 650.499 418.3Z" fill="#6366F1"/>
<path opacity="0.3" d="M617.7 640.2L450.1 736.9V1047.4L617.7 950.7V640.2Z" fill="url(#paint2_linear_287_803)"/>
<path opacity="0.15" d="M601.3 824.5L466.7 902.2V915.8L601.3 838.1V824.5Z" fill="white"/>
<path opacity="0.15" d="M591.9 856.4L476.2 923.2V936.8L591.9 870V856.4Z" fill="white"/>
<path d="M408.6 989.5L525.2 922.2V956.9L408.6 1024.2V989.5Z" fill="#14B8A6"/>
<path d="M514.9 762.2C514.9 777.2 523.6 784.3 534.3 778.1C545 771.8 553.7 754.6 553.7 739.5C553.7 724.5 545 717.4 534.3 723.6C523.6 729.9 514.9 747.2 514.9 762.2Z" fill="#14B8A6"/>
<path d="M534.3 790.2C551.6 780.1 565.9 789.6 568.4 811.3C568.8 815.1 566 820.1 562.5 822.1L506.1 855.1C502.6 857.1 499.8 855.5 500.2 851.2C502.7 826.5 517 800.3 534.3 790.2Z" fill="#14B8A6"/>
<path opacity="0.3" d="M666.2 613.1L963.8 441.2V596.3L692.4 753L666.1 791.9L666.2 613.1Z" fill="url(#paint3_linear_287_803)"/>
<path d="M726.7 630.1C726.7 642.9 719.1 657.6 709.8 663C700.5 668.4 692.9 662.4 692.9 649.6C692.9 636.8 700.5 622.1 709.8 616.7C719.1 611.3 726.7 617.3 726.7 630.1Z" fill="#6366F1"/>
<path opacity="0.15" d="M742.7 606.6L807.9 568.9V582.5L742.7 620.2V606.6Z" fill="white"/>
<path opacity="0.15" d="M742.7 633.9L937.4 521.4V535L742.7 647.5V633.9Z" fill="white"/>
<path opacity="0.15" d="M742.7 661.2L895 573.2V586.8L742.7 674.8V661.2Z" fill="white"/>
<path opacity="0.4" d="M225.8 230.3C394.6 132.8 532.6 248.3 532.6 490.7L575.7 465.8C575.6 192 419.5 58.8 225.8 170.6V230.3Z" fill="url(#paint4_linear_287_803)"/>
<path opacity="0.4" d="M366.6 586.7C366.6 479.1 303.6 428.2 225.9 473V413.3C327.4 354.7 409.6 421.2 409.7 561.8L366.6 586.7Z" fill="url(#paint5_linear_287_803)"/>
<path opacity="0.4" d="M450.6 537.1C450.6 365.3 350 284.1 226.1 355.7V296C373.9 210.7 493.7 307.5 493.7 512.2L450.6 537.1Z" fill="url(#paint6_linear_287_803)"/>
<path opacity="0.4" d="M266.8 644.2C244.2 657.3 225.9 642.4 225.9 611.1C225.9 579.8 244.2 543.8 266.8 530.7C289.4 517.6 307.7 532.5 307.7 563.8C307.7 595.2 289.4 631.1 266.8 644.2Z" fill="url(#paint7_linear_287_803)"/>
<path opacity="0.07" d="M185.8 201.3C354.6 103.8 492.6 219.3 492.6 461.7L535.7 436.8C535.6 163 379.5 29.8 185.8 141.6V201.3Z" fill="url(#paint8_linear_287_803)"/>
<path opacity="0.07" d="M326.6 557.7C326.6 450.1 263.6 399.2 185.9 444V384.3C287.4 325.7 369.6 392.2 369.7 532.8L326.6 557.7Z" fill="url(#paint9_linear_287_803)"/>
<path opacity="0.07" d="M410.6 508.1C410.6 336.3 310 255.1 186.1 326.7V267C333.9 181.7 453.7 278.5 453.7 483.2L410.6 508.1Z" fill="url(#paint10_linear_287_803)"/>
<path opacity="0.07" d="M226.8 615.2C204.2 628.3 185.9 613.4 185.9 582.1C185.9 550.8 204.2 514.8 226.8 501.7C249.4 488.6 267.7 503.5 267.7 534.8C267.7 566.2 249.4 602.1 226.8 615.2Z" fill="url(#paint11_linear_287_803)"/>
<path opacity="0.2" d="M357.8 770.5C351.8 773.9 347 782.3 347 789.2V819.7L326.8 831.3C320.8 834.7 316 843.1 316 850C316 856.9 320.8 859.7 326.8 856.3L347 844.7V875.2C347 882.1 351.8 884.9 357.8 881.5C363.8 878.1 368.6 869.7 368.6 862.8V832.3L388.8 820.7C394.8 817.3 399.6 808.9 399.6 802C399.6 795.1 394.8 792.3 388.8 795.7L368.6 807.3V776.8C368.6 769.9 363.8 767.1 357.8 770.5Z" fill="url(#paint12_linear_287_803)"/>
<path opacity="0.2" d="M834.3 334.9L806.5 389.5C802.7 397 803.3 404.5 807.9 406.3C812.5 408.1 819.3 403.4 823.1 395.9L823.4 395.2V455.8C823.4 462.7 828.2 465.5 834.2 462.1C840.2 458.6 845 450.3 845 443.4V382.8L845.3 383.1C849.1 386.2 856 383 860.5 375.9C865.1 368.8 865.7 360.6 861.9 357.5L834.3 334.9Z" fill="url(#paint13_linear_287_803)"/>
<defs>
<linearGradient id="paint0_linear_287_803" x1="389.867" y1="480.249" x2="351.593" y2="792.273" gradientUnits="userSpaceOnUse">
<stop stop-color="white"/>
<stop offset="1" stop-color="white" stop-opacity="0"/>
</linearGradient>
<linearGradient id="paint1_linear_287_803" x1="548.449" y1="295.622" x2="697.217" y2="553.363" gradientUnits="userSpaceOnUse">
<stop stop-color="white"/>
<stop offset="1" stop-color="white" stop-opacity="0"/>
</linearGradient>
<linearGradient id="paint2_linear_287_803" x1="432.241" y1="667.499" x2="581.009" y2="925.241" gradientUnits="userSpaceOnUse">
<stop stop-color="white"/>
<stop offset="1" stop-color="white" stop-opacity="0"/>
</linearGradient>
<linearGradient id="paint3_linear_287_803" x1="731.124" y1="550.899" x2="884.784" y2="671.152" gradientUnits="userSpaceOnUse">
<stop stop-color="white"/>
<stop offset="1" stop-color="white" stop-opacity="0"/>
</linearGradient>
<linearGradient id="paint4_linear_287_803" x1="285.261" y1="124.904" x2="533.912" y2="415.041" gradientUnits="userSpaceOnUse">
<stop stop-color="white"/>
<stop offset="1" stop-color="white" stop-opacity="0"/>
</linearGradient>
<linearGradient id="paint5_linear_287_803" x1="132.098" y1="256.282" x2="380.749" y2="546.42" gradientUnits="userSpaceOnUse">
<stop stop-color="white"/>
<stop offset="1" stop-color="white" stop-opacity="0"/>
</linearGradient>
<linearGradient id="paint6_linear_287_803" x1="207.089" y1="191.029" x2="455.741" y2="481.166" gradientUnits="userSpaceOnUse">
<stop stop-color="white"/>
<stop offset="1" stop-color="white" stop-opacity="0"/>
</linearGradient>
<linearGradient id="paint7_linear_287_803" x1="46.0277" y1="329.895" x2="294.679" y2="620.032" gradientUnits="userSpaceOnUse">
<stop stop-color="white"/>
<stop offset="1" stop-color="white" stop-opacity="0"/>
</linearGradient>
<linearGradient id="paint8_linear_287_803" x1="245.262" y1="95.9044" x2="493.913" y2="386.041" gradientUnits="userSpaceOnUse">
<stop stop-color="white"/>
<stop offset="1" stop-color="white" stop-opacity="0"/>
</linearGradient>
<linearGradient id="paint9_linear_287_803" x1="92.0997" y1="227.282" x2="340.751" y2="517.42" gradientUnits="userSpaceOnUse">
<stop stop-color="white"/>
<stop offset="1" stop-color="white" stop-opacity="0"/>
</linearGradient>
<linearGradient id="paint10_linear_287_803" x1="167.091" y1="162.028" x2="415.742" y2="452.165" gradientUnits="userSpaceOnUse">
<stop stop-color="white"/>
<stop offset="1" stop-color="white" stop-opacity="0"/>
</linearGradient>
<linearGradient id="paint11_linear_287_803" x1="6.0289" y1="300.895" x2="254.68" y2="591.032" gradientUnits="userSpaceOnUse">
<stop stop-color="white"/>
<stop offset="1" stop-color="white" stop-opacity="0"/>
</linearGradient>
<linearGradient id="paint12_linear_287_803" x1="336.892" y1="809.52" x2="389.249" y2="850.84" gradientUnits="userSpaceOnUse">
<stop stop-color="white"/>
<stop offset="1" stop-color="white" stop-opacity="0"/>
</linearGradient>
<linearGradient id="paint13_linear_287_803" x1="814.486" y1="389.944" x2="865.206" y2="418.219" gradientUnits="userSpaceOnUse">
<stop stop-color="white"/>
<stop offset="1" stop-color="white" stop-opacity="0"/>
</linearGradient>
</defs>
</svg>
