<svg width="1150" height="1150" viewBox="0 0 1150 1150" fill="none" xmlns="http://www.w3.org/2000/svg">
<rect width="1150" height="1150" rx="200" fill="black"/>
<path opacity="0.4" d="M326.6 425.3C288 447.6 256.7 422.3 256.6 368.8C256.6 315.3 287.9 253.8 326.5 231.5C365.1 209.2 396.4 234.5 396.5 288C396.5 299.8 395 311.9 392.2 323.9L534.5 377C547.1 352.7 564.4 332.2 583.4 321.2C622 298.9 653.3 324.2 653.4 377.7C653.4 431.2 622.1 492.7 583.5 515C565.2 525.6 548.5 525.4 536 516.7L396.5 729.9C396.5 731.2 396.6 732.4 396.6 733.7C396.6 787.2 365.3 848.7 326.7 871C288.1 893.3 256.8 868 256.7 814.5C256.7 761 288 699.5 326.6 677.2C352 662.6 374.2 668.5 386.5 689.4L517.7 489C515 480.3 513.6 470.1 513.6 458.5C513.6 447.9 514.8 437.1 517.1 426.3L373.8 372.8C361.3 395.7 344.8 414.8 326.6 425.3Z" fill="url(#paint0_linear_287_718)"/>
<path opacity="0.07" d="M217 338.4C217 391.9 248.3 417.2 287 394.9C325.6 372.6 356.9 311.1 356.9 257.6C356.9 204.1 325.6 178.8 286.9 201.1C248.3 223.4 217 284.9 217 338.4Z" fill="url(#paint1_linear_287_718)"/>
<path opacity="0.07" d="M474 426.4C474 479.9 505.3 505.2 544 482.9C582.7 460.6 613.9 399.1 613.9 345.6C613.9 292.1 582.6 266.8 543.9 289.1C505.3 311.4 474 372.9 474 426.4Z" fill="url(#paint2_linear_287_718)"/>
<path opacity="0.07" d="M216 784.4C216 837.9 247.3 863.2 286 840.9C324.7 818.6 355.9 757.1 355.9 703.6C355.9 650.1 324.6 624.8 285.9 647.1C247.3 669.4 216 730.9 216 784.4Z" fill="url(#paint3_linear_287_718)"/>
<path opacity="0.2" d="M807.9 619L609.3 733.7L609.2 910.5L807.8 795.8L807.9 619Z" fill="url(#paint4_linear_287_718)"/>
<path opacity="0.15" d="M807.9 619L708.5 782.4L609.2 733.6L807.9 619Z" fill="url(#paint5_linear_287_718)"/>
<path d="M691.4 786.2C691.4 798.7 698.9 804.4 708.3 799C717.6 793.6 725.2 779.1 725.2 766.7C725.2 754.2 717.7 748.5 708.3 753.9C699 759.3 691.4 773.8 691.4 786.2Z" fill="#14B8A6"/>
<path opacity="0.3" d="M604.4 532.7L902 361.1L901.9 512.4L630.5 668.9L604.2 707.2L604.4 532.7Z" fill="url(#paint6_linear_287_718)"/>
<path d="M933.7 419.7V378.6L821.4 443.4V484.5L933.7 419.7Z" fill="#14B8A6"/>
<path opacity="0.15" d="M680.9 525.4L746.1 487.8V501.1L680.9 538.7V525.4Z" fill="white"/>
<path opacity="0.15" d="M680.9 552L806.6 479.5V492.8L680.9 565.3V552Z" fill="white"/>
<path opacity="0.15" d="M680.8 578.6L833.1 490.8V504.1L680.8 591.9V578.6Z" fill="white"/>
<path d="M664.8 548.5C664.8 561 657.2 575.4 647.9 580.8C638.6 586.2 631 580.4 631 568C631 555.5 638.6 541.1 647.9 535.7C657.3 530.3 664.8 536.1 664.8 548.5Z" fill="#14B8A6"/>
<path opacity="0.3" d="M577.5 633.9L279.9 805.5L279.8 956.8L551.1 800.3L577.3 808.3L577.5 633.9Z" fill="url(#paint7_linear_287_718)"/>
<path d="M366.4 831V789.9L254.1 854.7V895.8L366.4 831Z" fill="#6366F1"/>
<path opacity="0.15" d="M500.9 714.8L435.7 752.4V765.7L500.9 728.1V714.8Z" fill="white"/>
<path opacity="0.15" d="M500.9 741.4L383.2 809.3V822.6L500.9 754.7V741.4Z" fill="white"/>
<path opacity="0.15" d="M500.9 768.1L348.6 855.9V869.2L500.9 781.4V768.1Z" fill="white"/>
<path d="M517 719.4C517 731.9 524.5 737.6 533.9 732.2C543.2 726.799 550.8 712.299 550.8 699.899C550.8 687.399 543.3 681.699 533.9 687.099C524.5 692.499 517 707 517 719.4Z" fill="#6366F1"/>
<path opacity="0.2" d="M738.7 329.6L781.5 304.9V290.5L738.7 315.2C735.2 317.2 730.1 321.3 725.8 327.6C721.1 334.3 717.8 342.8 717.8 352C717.8 362.2 720.4 368 725.3 369.6C729.9 371.1 735.4 368.5 738.7 366.6L756.3 356.4L756.4 356.3C757.9 355.4 760.3 354.5 762.2 355.1C763.8 355.6 765.5 357.1 765.5 362.8C765.5 368.5 763.7 371.9 762.3 374C760.5 376.6 758.1 378.4 756.6 379.2L756.4 379.3L702.6 410.4V424.8L756.1 393.9C759.8 392 765.1 387.9 769.7 381.5C774.7 374.4 778.1 365.5 778.1 355.6C778.1 345.7 774.7 340.7 769.8 339.3C765.2 338 759.9 339.9 756.2 342.1L738.8 352.2C736.3 353.7 734.4 354.3 733.1 353.9C732.1 353.6 730.3 352.2 730.3 344.9C730.3 340.1 731.8 337 733.3 335C735 332.3 737.3 330.4 738.7 329.6Z" fill="white"/>
<path d="M773.7 301.8C773.7 314.7 781.3 320.8 790.6 315.5C799.9 310.1 807.5 295.3 807.5 282.3C807.5 269.4 799.9 263.3 790.6 268.6C781.2 274 773.7 288.9 773.7 301.8Z" fill="#14B8A6"/>
<path d="M680.7 429.8C680.7 442.7 688.3 448.8 697.6 443.5C706.9 438.1 714.5 423.3 714.5 410.3C714.5 397.4 706.9 391.3 697.6 396.6C688.2 402 680.7 416.9 680.7 429.8Z" fill="#6366F1"/>
<path opacity="0.2" d="M595.8 916.8C648.7 848.7 610.4 824.2 595.8 864C581.2 841 542.9 909.8 595.8 916.8Z" fill="url(#paint8_linear_287_718)"/>
<defs>
<linearGradient id="paint0_linear_287_718" x1="223.274" y1="359.64" x2="504.925" y2="646.983" gradientUnits="userSpaceOnUse">
<stop stop-color="white"/>
<stop offset="1" stop-color="white" stop-opacity="0"/>
</linearGradient>
<linearGradient id="paint1_linear_287_718" x1="251.952" y1="262.286" x2="533.604" y2="549.629" gradientUnits="userSpaceOnUse">
<stop stop-color="white"/>
<stop offset="1" stop-color="white" stop-opacity="0"/>
</linearGradient>
<linearGradient id="paint2_linear_287_718" x1="508.952" y1="350.286" x2="790.604" y2="637.629" gradientUnits="userSpaceOnUse">
<stop stop-color="white"/>
<stop offset="1" stop-color="white" stop-opacity="0"/>
</linearGradient>
<linearGradient id="paint3_linear_287_718" x1="250.953" y1="708.286" x2="532.604" y2="995.629" gradientUnits="userSpaceOnUse">
<stop stop-color="white"/>
<stop offset="1" stop-color="white" stop-opacity="0"/>
</linearGradient>
<linearGradient id="paint4_linear_287_718" x1="693.259" y1="639.703" x2="714.624" y2="814.404" gradientUnits="userSpaceOnUse">
<stop stop-color="white"/>
<stop offset="1" stop-color="white" stop-opacity="0"/>
</linearGradient>
<linearGradient id="paint5_linear_287_718" x1="710.833" y1="626.923" x2="702.325" y2="814.479" gradientUnits="userSpaceOnUse">
<stop stop-color="white"/>
<stop offset="1" stop-color="white" stop-opacity="0"/>
</linearGradient>
<linearGradient id="paint6_linear_287_718" x1="671.057" y1="468.996" x2="821.424" y2="588.376" gradientUnits="userSpaceOnUse">
<stop stop-color="white"/>
<stop offset="1" stop-color="white" stop-opacity="0"/>
</linearGradient>
<linearGradient id="paint7_linear_287_718" x1="446.414" y1="640.154" x2="413.789" y2="945.767" gradientUnits="userSpaceOnUse">
<stop stop-color="white"/>
<stop offset="1" stop-color="white" stop-opacity="0"/>
</linearGradient>
<linearGradient id="paint8_linear_287_718" x1="584.628" y1="866.583" x2="623.771" y2="900.398" gradientUnits="userSpaceOnUse">
<stop stop-color="white"/>
<stop offset="1" stop-color="white" stop-opacity="0"/>
</linearGradient>
</defs>
</svg>
