<svg width="1150" height="1150" viewBox="0 0 1150 1150" fill="none" xmlns="http://www.w3.org/2000/svg">
<rect width="1150" height="1150" rx="200" fill="black"/>
<path opacity="0.07" d="M282 578.2C282 715.4 362.3 780.2 461.3 723.1C560.3 666 640.5 508.4 640.5 371.3C640.5 234.1 560.2 169.3 461.2 226.4C362.2 283.5 282 441 282 578.2Z" fill="url(#paint0_linear_287_692)"/>
<path opacity="0.4" d="M542.7 289.7C566.2 276.1 589.5 269.1 611.3 269C633 268.9 652.8 275.8 669.5 289.3C686.2 302.8 699.4 322.5 708.4 347.4C717.4 372.3 722.1 402 722.1 434.6L542.7 538V289.7Z" fill="url(#paint1_linear_287_692)"/>
<path opacity="0.2" d="M682 400.2C682 449.3 671.5 503.4 651.799 555.6C632.099 607.8 604.1 655.8 571.4 693.5C538.7 731.2 502.6 756.9 467.8 767.4C433 777.9 401.1 772.7 376 752.4C350.9 732.1 333.9 697.7 326.9 653.6C320 609.4 323.5 557.4 337.1 504.2C350.7 451 373.6 398.9 403.1 354.6C432.6 310.3 467.2 275.7 502.7 255.3V503.7L682 400.2Z" fill="url(#paint2_linear_287_692)"/>
<path opacity="0.3" d="M631.5 375L929.1 203.3L929 358.3L657.7 514.9L631.4 553.8L631.5 375Z" fill="url(#paint3_linear_287_692)"/>
<path d="M960.8 263.7V221.6L848.5 286.5V328.6L960.8 263.7Z" fill="#14B8A6"/>
<path opacity="0.15" d="M708 368.6L773.2 331V344.6L708 382.2V368.6Z" fill="white"/>
<path opacity="0.15" d="M708 395.9L833.7 323.4V337L708 409.5V395.9Z" fill="white"/>
<path opacity="0.15" d="M708 423.1L860.3 335.2V348.8L708 436.8V423.1Z" fill="white"/>
<path d="M691.9 392.1C691.9 404.9 684.3 419.6 675 425C665.7 430.4 658.1 424.4 658.1 411.6C658.1 398.8 665.7 384.1 675 378.7C684.4 373.3 691.9 379.3 691.9 392.1Z" fill="#14B8A6"/>
<path opacity="0.3" d="M511.8 614.9L214.3 786.7L214.2 941.8L485.5 785.2L511.7 793.8L511.8 614.9Z" fill="url(#paint4_linear_287_692)"/>
<path d="M300.8 814V771.9L188.5 836.8V878.9L300.8 814Z" fill="#14B8A6"/>
<path opacity="0.15" d="M435.3 696.9L370.1 734.5V748.1L435.3 710.5V696.9Z" fill="white"/>
<path opacity="0.15" d="M435.3 724.1L317.6 792V805.6L435.3 737.7V724.1Z" fill="white"/>
<path opacity="0.15" d="M435.3 751.4L283 839.3V852.9L435.2 765L435.3 751.4Z" fill="white"/>
<path d="M451.3 701.8C451.3 714.6 458.9 720.6 468.2 715.2C477.5 709.8 485.1 695.1 485.1 682.3C485.1 669.5 477.5 663.5 468.2 668.9C458.9 674.3 451.3 689 451.3 701.8Z" fill="#14B8A6"/>
<path opacity="0.3" d="M721.1 538.1L553.5 634.8V945.3L721.1 848.6V538.1Z" fill="url(#paint5_linear_287_692)"/>
<path opacity="0.15" d="M704.6 722.4L570 800.1V813.7L704.6 736V722.4Z" fill="white"/>
<path opacity="0.15" d="M695.2 754.4L579.5 821.2V834.8L695.2 768V754.4Z" fill="white"/>
<path d="M646.3 809.9L762.9 742.6V777.3L646.3 844.6V809.9Z" fill="#6366F1"/>
<path d="M618.2 660.2C618.2 675.2 626.9 682.3 637.6 676.1C648.3 669.8 657 652.6 657 637.5C657 622.5 648.3 615.4 637.6 621.6C626.9 627.9 618.2 645.2 618.2 660.2Z" fill="#6366F1"/>
<path d="M637.7 688.2C655 678.1 669.3 687.6 671.8 709.3C672.2 713.1 669.4 718.1 665.9 720.1L609.5 753.1C606 755.1 603.2 753.5 603.6 749.2C606.1 724.4 620.4 698.3 637.7 688.2Z" fill="#6366F1"/>
<path opacity="0.2" d="M814.4 512.7L857.2 488V473.6L814.4 498.3C810.9 500.3 805.8 504.4 801.5 510.7C796.8 517.4 793.5 525.9 793.5 535.1C793.5 545.3 796.1 551.1 801 552.7C805.6 554.2 811.1 551.6 814.4 549.7L832 539.5L832.1 539.4C833.6 538.5 836 537.6 837.9 538.2C839.5 538.7 841.2 540.2 841.2 545.9C841.2 551.6 839.4 555 838 557.1C836.2 559.7 833.8 561.5 832.3 562.3L832.1 562.4L778.3 593.5V607.9L831.8 577C835.5 575.1 840.8 571 845.4 564.6C850.4 557.5 853.8 548.6 853.8 538.7C853.8 528.8 850.4 523.8 845.5 522.4C840.9 521.1 835.6 523 831.9 525.2L814.5 535.3C812 536.8 810.1 537.4 808.8 537C807.8 536.7 806 535.3 806 528C806 523.2 807.5 520.1 809 518.1C810.8 515.4 813 513.5 814.4 512.7Z" fill="white"/>
<path d="M849.4 484.9C849.4 497.8 857 503.9 866.3 498.6C875.6 493.2 883.2 478.4 883.2 465.4C883.2 452.5 875.6 446.4 866.3 451.7C857 457.1 849.4 472 849.4 484.9Z" fill="#14B8A6"/>
<path d="M756.4 612.9C756.4 625.8 764 631.9 773.3 626.6C782.6 621.2 790.2 606.4 790.2 593.4C790.2 580.5 782.6 574.4 773.3 579.7C764 585.1 756.4 600 756.4 612.9Z" fill="#6366F1"/>
<defs>
<linearGradient id="paint0_linear_287_692" x1="246.013" y1="367.943" x2="577.947" y2="532.606" gradientUnits="userSpaceOnUse">
<stop stop-color="white"/>
<stop offset="1" stop-color="white" stop-opacity="0"/>
</linearGradient>
<linearGradient id="paint1_linear_287_692" x1="466.447" y1="346.431" x2="667.287" y2="441.005" gradientUnits="userSpaceOnUse">
<stop stop-color="white"/>
<stop offset="1" stop-color="white" stop-opacity="0"/>
</linearGradient>
<linearGradient id="paint2_linear_287_692" x1="372.833" y1="415.591" x2="519.759" y2="567.291" gradientUnits="userSpaceOnUse">
<stop stop-color="white"/>
<stop offset="1" stop-color="white" stop-opacity="0"/>
</linearGradient>
<linearGradient id="paint3_linear_287_692" x1="696.397" y1="312.902" x2="850.048" y2="433.206" gradientUnits="userSpaceOnUse">
<stop stop-color="white"/>
<stop offset="1" stop-color="white" stop-opacity="0"/>
</linearGradient>
<linearGradient id="paint4_linear_287_692" x1="383.981" y1="619.955" x2="345.511" y2="931.985" gradientUnits="userSpaceOnUse">
<stop stop-color="white"/>
<stop offset="1" stop-color="white" stop-opacity="0"/>
</linearGradient>
<linearGradient id="paint5_linear_287_692" x1="535.589" y1="565.466" x2="684.356" y2="823.205" gradientUnits="userSpaceOnUse">
<stop stop-color="white"/>
<stop offset="1" stop-color="white" stop-opacity="0"/>
</linearGradient>
</defs>
</svg>
