<svg width="1150" height="1150" viewBox="0 0 1150 1150" fill="none" xmlns="http://www.w3.org/2000/svg">
<rect width="1150" height="1150" rx="200" fill="black"/>
<path opacity="0.4" d="M284.9 558C284.9 562.5 285 567 285.3 571.2C242.3 603.9 209.2 674 209.2 735.7C209.2 802.9 248.5 834.6 297 806.6C297.1 806.5 297.2 806.5 297.3 806.4L602 630.7C602.1 630.6 602.2 630.6 602.4 630.5C656.8 599 701 512.3 701 436.8C701 366.1 662.2 330.2 612.5 351.9C606.4 303.4 573.9 282.5 534.7 305.2C515.9 316.1 498.6 335.2 485.1 358.2C465.5 329 432.1 321.7 394.3 343.5C333.9 378.3 284.9 474.4 284.9 558Z" fill="url(#paint0_linear_287_661)"/>
<path opacity="0.07" d="M234.9 510C234.9 514.5 235 519 235.3 523.2C192.4 556 159.2 626.1 159.2 687.8C159.2 755 198.5 786.7 247 758.7C247.1 758.6 247.2 758.6 247.3 758.5L552 582.7C552.1 582.6 552.2 582.6 552.4 582.5C606.8 551 651 464.3 651 388.8C651 318.1 612.2 282.2 562.5 303.9C556.4 255.4 523.9 234.5 484.7 257.2C465.9 268.1 448.6 287.2 435.1 310.2C415.5 281 382.1 273.7 344.3 295.5C283.9 330.3 234.9 426.4 234.9 510Z" fill="url(#paint1_linear_287_661)"/>
<path opacity="0.2" d="M767.3 643.6L813.7 616.8V601.1L767.3 627.9C763.5 630.1 758 634.5 753.3 641.3C748.2 648.6 744.6 657.8 744.6 667.8C744.6 678.8 747.4 685.1 752.8 686.9C757.8 688.6 763.7 685.7 767.3 683.6L786.4 672.6L786.5 672.5C788.1 671.5 790.7 670.6 792.8 671.2C794.5 671.7 796.4 673.4 796.4 679.5C796.4 685.6 794.5 689.4 792.9 691.6C790.9 694.4 788.3 696.4 786.7 697.2L786.5 697.3L728.2 731V746.7L786.2 713.2C790.2 711.1 795.9 706.7 800.9 699.7C806.3 692.1 810.1 682.4 810.1 671.6C810.1 660.9 806.4 655.4 801.1 653.9C796.1 652.5 790.4 654.5 786.4 657L767.3 668C764.6 669.6 762.5 670.3 761.2 669.8C760.2 669.5 758.2 668 758.2 660C758.2 654.9 759.9 651.5 761.4 649.2C763.3 646.5 765.8 644.5 767.3 643.6Z" fill="white"/>
<path d="M803.7 612.9C803.7 625.8 811.3 631.9 820.6 626.6C829.9 621.2 837.5 606.4 837.5 593.4C837.5 580.5 829.9 574.4 820.6 579.7C811.3 585.1 803.7 600 803.7 612.9Z" fill="#14B8A6"/>
<path d="M704.7 751.9C704.7 764.8 712.3 770.9 721.6 765.6C730.9 760.2 738.5 745.4 738.5 732.4C738.5 719.5 730.9 713.4 721.6 718.7C712.3 724.1 704.7 739 704.7 751.9Z" fill="#14B8A6"/>
<path opacity="0.07" d="M624.8 419.7L325 592.7V751.4L624.9 578.3L624.8 419.7Z" fill="url(#paint2_linear_287_661)"/>
<path opacity="0.3" d="M664.8 439.7L365 612.7V771.4L664.9 598.3L664.8 439.7Z" fill="url(#paint3_linear_287_661)"/>
<path d="M638 534.2C638 547 630.4 561.7 621.1 567.1C611.8 572.5 604.2 566.5 604.2 553.7C604.2 540.9 611.8 526.2 621.1 520.8C630.4 515.4 638 521.4 638 534.2Z" fill="#14B8A6"/>
<path opacity="0.15" d="M595.7 558.9C595.7 564.8 592.2 571.7 587.8 574.2C583.5 576.7 580 573.9 580 568C580 562.1 583.5 555.2 587.9 552.7C592.2 550.2 595.7 553 595.7 558.9Z" fill="white"/>
<path opacity="0.15" d="M571.6 572.8C571.6 578.7 568.1 585.6 563.7 588.1C559.4 590.6 555.9 587.8 555.9 581.9C555.9 576 559.4 569.1 563.8 566.6C568.1 564.1 571.6 566.9 571.6 572.8Z" fill="white"/>
<path opacity="0.15" d="M440.7 599.8V690.1L452.5 683.3V593L440.7 599.8Z" fill="white"/>
<path opacity="0.15" d="M414.9 614.8V705.1L426.7 698.3V608L414.9 614.8Z" fill="white"/>
<path opacity="0.15" d="M389 629.8V720.1L400.8 713.3V623L389 629.8Z" fill="white"/>
<path opacity="0.07" d="M624.9 636.6L325 809.7V968.4L624.9 795.3V636.6Z" fill="url(#paint4_linear_287_661)"/>
<path opacity="0.3" d="M664.9 657.6L365 830.7V989.4L664.9 816.3V657.6Z" fill="url(#paint5_linear_287_661)"/>
<path d="M638 752.1C638 764.9 630.4 779.6 621.1 785C611.8 790.4 604.2 784.4 604.2 771.6C604.2 758.8 611.8 744.1 621.1 738.7C630.4 733.3 638 739.3 638 752.1Z" fill="#14B8A6"/>
<path opacity="0.15" d="M595.7 776.9C595.7 782.8 592.2 789.7 587.8 792.2C583.5 794.7 580 791.9 580 786C580 780.1 583.5 773.2 587.9 770.7C592.2 768.2 595.7 770.9 595.7 776.9Z" fill="white"/>
<path opacity="0.15" d="M571.6 790.8C571.6 796.7 568.1 803.6 563.7 806.1C559.4 808.6 555.9 805.8 555.9 799.9C555.9 794 559.4 787.1 563.8 784.6C568.1 782 571.7 784.8 571.6 790.8Z" fill="white"/>
<path opacity="0.15" d="M440.7 820.8V911.1L452.5 904.3V814L440.7 820.8Z" fill="white"/>
<path opacity="0.15" d="M414.9 835.8V926.1L426.7 919.3V829L414.9 835.8Z" fill="white"/>
<path opacity="0.15" d="M389 850.8V941.1L400.8 934.3V844L389 850.8Z" fill="white"/>
<path opacity="0.3" d="M931.1 204.6L744.3 312.4V658.7L931.2 550.8L931.1 204.6Z" fill="url(#paint6_linear_287_661)"/>
<path d="M815.8 330C815.8 347.3 825.8 355.5 838.1 348.3C850.4 341.1 860.4 321.3 860.4 304C860.4 286.7 850.4 278.5 838.1 285.7C825.8 292.9 815.8 312.7 815.8 330Z" fill="#6366F1"/>
<path d="M838.1 362.2C858 350.6 874.4 361.5 877.3 386.5C877.8 390.8 874.5 396.6 870.5 398.9L805.6 436.8C801.6 439.1 798.3 437.3 798.8 432.3C801.8 403.8 818.3 373.8 838.1 362.2Z" fill="#6366F1"/>
<path opacity="0.15" d="M893.7 429.2L782.3 493.5V507.1L893.7 442.8V429.2Z" fill="white"/>
<path opacity="0.15" d="M882.4 462.7L794.1 513.6V527.2L882.4 476.3V462.7Z" fill="white"/>
<path d="M859.9 519.9L989.9 444.8V483.5L859.9 558.6V519.9Z" fill="#6366F1"/>
<path opacity="0.2" d="M704 160.7L676.2 215.3C672.4 222.8 673 230.3 677.6 232.1C682.2 233.9 689 229.2 692.8 221.7L693.1 221V281.6C693.1 288.5 697.9 291.3 703.9 287.9C709.9 284.4 714.7 276.1 714.7 269.2V208.6L715 208.9C718.8 212 725.7 208.8 730.2 201.7C734.8 194.6 735.4 186.4 731.6 183.3L704 160.7Z" fill="url(#paint7_linear_287_661)"/>
<path opacity="0.2" d="M704 966.9L731.8 912.3C735.6 904.8 735 897.3 730.4 895.5C725.8 893.7 719 898.4 715.2 905.9L714.9 906.6V846C714.9 839.1 710.1 836.3 704.1 839.7C698.1 843.2 693.3 851.5 693.3 858.4V919L693 918.7C689.2 915.6 682.3 918.8 677.8 925.9C673.2 933 672.6 941.2 676.4 944.3L704 966.9Z" fill="url(#paint8_linear_287_661)"/>
<defs>
<linearGradient id="paint0_linear_287_661" x1="227.089" y1="367.035" x2="536.516" y2="660.534" gradientUnits="userSpaceOnUse">
<stop stop-color="white"/>
<stop offset="1" stop-color="white" stop-opacity="0"/>
</linearGradient>
<linearGradient id="paint1_linear_287_661" x1="177.078" y1="319.034" x2="486.505" y2="612.533" gradientUnits="userSpaceOnUse">
<stop stop-color="white"/>
<stop offset="1" stop-color="white" stop-opacity="0"/>
</linearGradient>
<linearGradient id="paint2_linear_287_661" x1="481.019" y1="432.391" x2="469.845" y2="713.11" gradientUnits="userSpaceOnUse">
<stop stop-color="white"/>
<stop offset="1" stop-color="white" stop-opacity="0"/>
</linearGradient>
<linearGradient id="paint3_linear_287_661" x1="521.021" y1="452.391" x2="509.847" y2="733.11" gradientUnits="userSpaceOnUse">
<stop stop-color="white"/>
<stop offset="1" stop-color="white" stop-opacity="0"/>
</linearGradient>
<linearGradient id="paint4_linear_287_661" x1="481.041" y1="649.324" x2="469.867" y2="930.042" gradientUnits="userSpaceOnUse">
<stop stop-color="white"/>
<stop offset="1" stop-color="white" stop-opacity="0"/>
</linearGradient>
<linearGradient id="paint5_linear_287_661" x1="521.043" y1="670.323" x2="509.869" y2="951.042" gradientUnits="userSpaceOnUse">
<stop stop-color="white"/>
<stop offset="1" stop-color="white" stop-opacity="0"/>
</linearGradient>
<linearGradient id="paint6_linear_287_661" x1="724.258" y1="235.034" x2="890.168" y2="522.475" gradientUnits="userSpaceOnUse">
<stop stop-color="white"/>
<stop offset="1" stop-color="white" stop-opacity="0"/>
</linearGradient>
<linearGradient id="paint7_linear_287_661" x1="684.205" y1="215.776" x2="734.925" y2="244.05" gradientUnits="userSpaceOnUse">
<stop stop-color="white"/>
<stop offset="1" stop-color="white" stop-opacity="0"/>
</linearGradient>
<linearGradient id="paint8_linear_287_661" x1="723.824" y1="911.861" x2="673.104" y2="883.587" gradientUnits="userSpaceOnUse">
<stop stop-color="white"/>
<stop offset="1" stop-color="white" stop-opacity="0"/>
</linearGradient>
</defs>
</svg>
