<svg width="1150" height="1150" viewBox="0 0 1150 1150" fill="none" xmlns="http://www.w3.org/2000/svg">
<rect width="1150" height="1150" rx="200" fill="black"/>
<path opacity="0.07" d="M449.8 335.6C447.7 336.8 445.8 339.7 445.5 342.3L398.8 728.6C398.4 731.9 400.4 733.4 403.1 731.9L657.3 585.2C659.9 583.7 662 579.8 661.6 577L614.8 244.6C614.5 242.3 612.7 241.6 610.5 242.8L449.8 335.6Z" fill="url(#paint0_linear_287_634)"/>
<path opacity="0.4" d="M515.5 341.1C515.5 300.5 539.3 253.8 568.6 236.8C597.9 219.9 621.7 239.1 621.7 279.7L610.2 286.3V286.2C610.2 254.3 591.5 239.2 568.5 252.5C545.5 265.8 526.8 302.5 526.8 334.4V334.5L515.5 341.1Z" fill="url(#paint1_linear_287_634)"/>
<path opacity="0.4" d="M484.1 363.6C484.4 361 486.2 358.1 488.4 356.9L649 264.1C651.1 262.9 653 263.6 653.3 265.9L700.1 598.2C700.5 601 698.5 604.9 695.8 606.4L441.7 753.1C439.1 754.6 437 753.1 437.4 749.8L484.1 363.6Z" fill="url(#paint2_linear_287_634)"/>
<path opacity="0.3" d="M627.7 414.4L925.2 242.6L925.1 397.7L653.9 554.3L627.6 593.2L627.7 414.4Z" fill="url(#paint3_linear_287_634)"/>
<path d="M956.9 303.1V261L844.6 325.8V367.9L956.9 303.1Z" fill="#14B8A6"/>
<path opacity="0.15" d="M704.2 408L769.4 370.4V384L704.2 421.6V408Z" fill="white"/>
<path opacity="0.15" d="M704.2 435.2L829.9 362.7V376.3L704.2 448.8V435.2Z" fill="white"/>
<path opacity="0.15" d="M704.1 462.5L856.4 374.6V388.2L704.1 476.1V462.5Z" fill="white"/>
<path d="M688.1 431.4C688.1 444.2 680.5 458.9 671.2 464.3C661.9 469.7 654.3 463.7 654.3 450.9C654.3 438.1 661.9 423.4 671.2 418C680.6 412.6 688.1 418.6 688.1 431.4Z" fill="#14B8A6"/>
<path opacity="0.3" d="M593 592.3L295.4 764L295.3 919.1L566.6 762.5L592.8 771.1L593 592.3Z" fill="url(#paint4_linear_287_634)"/>
<path d="M382 791.4V749.3L269.7 814.1V856.2L382 791.4Z" fill="#6366F1"/>
<path opacity="0.15" d="M516.5 674.2L451.3 711.8V725.4L516.5 687.8V674.2Z" fill="white"/>
<path opacity="0.15" d="M516.4 701.5L398.7 769.4V783L516.4 715.1V701.5Z" fill="white"/>
<path opacity="0.15" d="M516.4 728.7L364.1 816.6V830.2L516.4 742.3V728.7Z" fill="white"/>
<path d="M532.5 679.1C532.5 691.9 540.1 697.9 549.4 692.5C558.7 687.1 566.3 672.4 566.3 659.6C566.3 646.8 558.7 640.8 549.4 646.2C540.1 651.6 532.5 666.4 532.5 679.1Z" fill="#6366F1"/>
<path opacity="0.2" d="M905 551.7L701.2 669.3V561.9L905 444.3V551.7Z" fill="url(#paint5_linear_287_634)"/>
<path d="M742.6 571.3C742.6 562.4 737.4 558.3 731 561.9C724.6 565.6 719.4 575.8 719.4 584.6C719.4 593.5 724.6 597.6 731 594C737.4 590.3 742.6 580.2 742.6 571.3Z" fill="#14B8A6"/>
<path opacity="0.15" d="M753.1 599.8L884.1 524.2V510.6L753.1 586.2V599.8Z" fill="white"/>
<path opacity="0.15" d="M753.4 571.9L813 537.5V523.9L753.4 558.3V571.9Z" fill="white"/>
<path opacity="0.2" d="M193.2 694.9L397 577.3V684.7L193.2 802.3V694.9Z" fill="url(#paint6_linear_287_634)"/>
<path opacity="0.15" d="M345.1 633.8L295.1 662.7V676.3L345.1 647.4V633.8Z" fill="white"/>
<path opacity="0.15" d="M344.8 660.7L237.2 722.7V736.3L344.7 674.2L344.8 660.7Z" fill="white"/>
<path d="M355.6 635.7C355.6 644.6 360.8 648.7 367.2 645.1C373.6 641.4 378.8 631.2 378.8 622.4C378.8 613.5 373.6 609.4 367.2 613C360.8 616.6 355.6 626.8 355.6 635.7Z" fill="#6366F1"/>
<path opacity="0.2" d="M713.2 817.3C780.8 730.5 731.9 699.3 713.2 750.1C694.5 721 645.6 808.6 713.2 817.3Z" fill="url(#paint7_linear_287_634)"/>
<path opacity="0.2" d="M336.1 413.4C330.1 416.8 325.3 425.2 325.3 432.1V462.6L305.1 474.2C299.1 477.6 294.3 486 294.3 493C294.3 499.9 299.1 502.7 305.1 499.3L325.3 487.7V518.2C325.3 525.1 330.1 527.9 336.1 524.5C342.1 521.1 346.9 512.7 346.9 505.7V475.2L367.1 463.6C373.1 460.2 377.9 451.8 377.9 444.9C377.9 438 373.1 435.2 367.1 438.6L347 450.1V419.6C347 412.7 342.1 409.9 336.1 413.4Z" fill="url(#paint8_linear_287_634)"/>
<defs>
<linearGradient id="paint0_linear_287_634" x1="388.223" y1="439.074" x2="651.731" y2="546.353" gradientUnits="userSpaceOnUse">
<stop stop-color="white"/>
<stop offset="1" stop-color="white" stop-opacity="0"/>
</linearGradient>
<linearGradient id="paint1_linear_287_634" x1="543.304" y1="272.992" x2="713.996" y2="427.657" gradientUnits="userSpaceOnUse">
<stop stop-color="white"/>
<stop offset="1" stop-color="white" stop-opacity="0"/>
</linearGradient>
<linearGradient id="paint2_linear_287_634" x1="426.997" y1="401.351" x2="597.689" y2="556.016" gradientUnits="userSpaceOnUse">
<stop stop-color="white"/>
<stop offset="1" stop-color="white" stop-opacity="0"/>
</linearGradient>
<linearGradient id="paint3_linear_287_634" x1="692.56" y1="352.255" x2="846.21" y2="472.559" gradientUnits="userSpaceOnUse">
<stop stop-color="white"/>
<stop offset="1" stop-color="white" stop-opacity="0"/>
</linearGradient>
<linearGradient id="paint4_linear_287_634" x1="465.091" y1="597.291" x2="426.62" y2="909.322" gradientUnits="userSpaceOnUse">
<stop stop-color="white"/>
<stop offset="1" stop-color="white" stop-opacity="0"/>
</linearGradient>
<linearGradient id="paint5_linear_287_634" x1="826.357" y1="597.092" x2="779.843" y2="516.507" gradientUnits="userSpaceOnUse">
<stop stop-color="white" stop-opacity="0"/>
<stop offset="1" stop-color="white"/>
</linearGradient>
<linearGradient id="paint6_linear_287_634" x1="271.843" y1="649.507" x2="318.358" y2="730.093" gradientUnits="userSpaceOnUse">
<stop stop-color="white"/>
<stop offset="1" stop-color="white" stop-opacity="0"/>
</linearGradient>
<linearGradient id="paint7_linear_287_634" x1="698.996" y1="753.401" x2="748.834" y2="796.551" gradientUnits="userSpaceOnUse">
<stop stop-color="white"/>
<stop offset="1" stop-color="white" stop-opacity="0"/>
</linearGradient>
<linearGradient id="paint8_linear_287_634" x1="315.215" y1="452.399" x2="367.572" y2="493.719" gradientUnits="userSpaceOnUse">
<stop stop-color="white"/>
<stop offset="1" stop-color="white" stop-opacity="0"/>
</linearGradient>
</defs>
</svg>
