<svg width="1150" height="1150" viewBox="0 0 1150 1150" fill="none" xmlns="http://www.w3.org/2000/svg">
<rect width="1150" height="1150" rx="200" fill="black"/>
<path opacity="0.2" d="M462.7 677C462.7 726 491.4 749.2 526.7 728.8C562.1 708.4 590.7 652.1 590.7 603.1C590.7 554.1 562 530.9 526.7 551.3C491.3 571.7 462.6 628 462.7 677Z" fill="url(#paint0_linear_287_603)"/>
<path opacity="0.4" d="M557.4 748.8C522 769.2 493.4 746 493.3 697C493.3 648 522 591.7 557.3 571.3C592.7 550.9 621.3 574.1 621.3 623.1C621.4 672.1 592.7 728.4 557.4 748.8ZM568.4 608.7L556.1 615.8V627.7C554.9 628.5 553.7 629.3 552.5 630.1C549.4 632.2 546.5 634.4 543.8 636.6V713.8C547.2 712.9 550.4 711.6 553.5 710C554.4 709.6 555.2 709.2 556.1 708.7V720.6L568.4 713.5V701.5C574.4 697.3 579.1 692.6 582.5 687.4C586.9 680.6 589.1 673.1 589.1 664.7C589.1 660.6 588.4 657.2 587.1 654.7C585.8 652.2 583.3 651 579.7 651.2C584.1 645 586.3 638.7 586.3 632.3C586.3 628.1 585.7 624.9 584.4 622.8C583.2 620.6 581.5 619.2 579.3 618.8C577.1 618.4 574.4 618.6 571.4 619.7C570.5 620 569.5 620.4 568.5 620.8L568.4 608.7Z" fill="white"/>
<path opacity="0.4" d="M563.2 656.1L556.9 659.7V642.4C557.9 641.7 559 640.9 560.3 640.2C561.6 639.4 562.8 638.7 563.9 638C567.3 636 569.9 635.2 571.7 635.5C573.5 635.8 574.3 637.5 574.3 640.7C574.3 643.8 573.4 646.6 571.7 649.1C570 651.5 567.2 653.8 563.2 656.1Z" fill="white"/>
<path opacity="0.4" d="M556.9 693.8V673.2L565 668.5C568.7 666.4 571.5 665.5 573.5 666C575.5 666.4 576.5 668.4 576.5 672.1C576.5 676.2 575.3 679.8 572.9 682.7C570.5 685.6 567.4 688.2 563.5 690.4C562.2 691.2 561 691.8 559.9 692.4C558.9 692.9 557.9 693.4 556.9 693.8Z" fill="white"/>
<path opacity="0.3" d="M644.4 100C638.1 103.6 633.1 112.4 633.1 119.6V312.8L575.8 345.9V545.2C575.8 552.4 580.9 555.3 587.1 551.7C593.4 548.1 598.4 539.3 598.4 532.1V358.9L655.7 325.8V106.4C655.8 99.3003 650.7 96.3003 644.4 100Z" fill="url(#paint1_linear_287_603)"/>
<path opacity="0.3" d="M613.2 939.2C606.9 942.8 601.9 939.9 601.9 932.7V787.9L544.5 821V726.2C544.5 719 549.6 710.2 555.8 706.6C562.1 703 567.1 705.9 567.1 713.1V781.8L624.4 748.7V919.6C624.5 926.8 619.4 935.6 613.2 939.2Z" fill="url(#paint2_linear_287_603)"/>
<path opacity="0.3" d="M525.1 241.7C518.8 245.3 513.8 254.1 513.8 261.3V590C513.8 597.2 518.9 600.1 525.1 596.5C531.4 592.9 536.4 584.1 536.4 576.9V248.2C536.4 241 531.3 238.1 525.1 241.7Z" fill="url(#paint3_linear_287_603)"/>
<path d="M589.3 922.6C589.3 942.4 600.9 951.8 615.2 943.5C629.5 935.3 641.1 912.5 641.1 892.7C641.1 872.9 629.5 863.5 615.2 871.8C600.9 880.1 589.3 902.8 589.3 922.6Z" fill="#6366F1"/>
<path opacity="0.3" d="M399 406.6C405.3 403 410.3 405.9 410.3 413.1V510.7L467.6 477.6V597.5C467.6 604.7 462.5 613.5 456.3 617.1C450 620.7 445 617.8 445 610.6V516.8L387.7 549.9V426.2C387.7 419 392.7 410.2 399 406.6Z" fill="url(#paint4_linear_287_603)"/>
<path d="M373.6 441C373.6 460.6 385.1 469.8 399.2 461.7C413.3 453.5 424.8 431.1 424.8 411.5C424.8 391.9 413.3 382.7 399.2 390.8C385.1 398.9 373.6 421.5 373.6 441Z" fill="#14B8A6"/>
<path opacity="0.3" d="M289.3 940.2C289.3 933 294.4 924.2 300.6 920.6L389.6 869.2V794.7L478 743.7C484.3 740.1 489.3 743 489.3 750.2C489.3 757.4 484.2 766.2 478 769.8L412.2 807.8V882.3L300.7 946.8C294.4 950.4 289.3 947.4 289.3 940.2Z" fill="url(#paint5_linear_287_603)"/>
<path opacity="0.3" d="M504.2 1048.7C510.5 1045.1 515.5 1036.3 515.5 1029.1V792.1C515.5 784.9 510.4 782 504.2 785.6C497.9 789.2 492.9 798 492.9 805.2V1042.2C492.9 1049.3 498 1052.3 504.2 1048.7Z" fill="url(#paint6_linear_287_603)"/>
<path d="M275.6 948.8C275.6 968.6 287.2 978 301.5 969.7C315.8 961.5 327.4 938.7 327.4 918.9C327.4 899.1 315.8 889.7 301.5 898C287.2 906.3 275.6 929 275.6 948.8Z" fill="#14B8A6"/>
<path opacity="0.3" d="M829.5 551.1L666.7 645.1V946.7L829.5 852.7V551.1Z" fill="url(#paint7_linear_287_603)"/>
<path opacity="0.15" d="M803.7 742.8L706.7 798.8V810.7L803.7 754.7V742.8Z" fill="white"/>
<path opacity="0.15" d="M793.6 772.2L716.7 816.6V828.5L793.6 784.1V772.2Z" fill="white"/>
<path d="M767.3 825.8L880.6 760.4V794.1L767.3 859.5V825.8Z" fill="#6366F1"/>
<path opacity="0.2" d="M712.8 675.2L738.1 695.2L755.1 673.4L777.3 692.6L786.1 686.2L753.4 658.7L736.8 680.5L718.5 666.9L712.8 675.2Z" fill="white"/>
<path d="M693.8 674.7C693.8 686 700.4 691.3 708.5 686.6C716.6 681.9 723.2 669 723.2 657.7C723.2 646.4 716.6 641.1 708.5 645.8C700.4 650.5 693.8 663.4 693.8 674.7Z" fill="#6366F1"/>
<path d="M769.6 696.5C769.6 707.8 776.2 713.1 784.3 708.4C792.4 703.7 799 690.8 799 679.5C799 668.2 792.4 662.9 784.3 667.6C776.2 672.3 769.6 685.2 769.6 696.5Z" fill="#6366F1"/>
<path opacity="0.2" d="M270 748.3L424.8 658.9V739.5L270 828.9V748.3Z" fill="url(#paint8_linear_287_603)"/>
<path opacity="0.15" d="M385.2 701.2L338.6 728.1V737.8L385.2 710.9V701.2Z" fill="white"/>
<path opacity="0.15" d="M385.1 720.7L285.9 777.9V787.7L385.1 730.5V720.7Z" fill="white"/>
<path d="M393.3 704.1C393.3 710.7 397.2 713.9 402.1 711.1C407 708.3 410.9 700.6 410.9 694C410.9 687.4 407 684.2 402.1 687C397.2 689.8 393.3 697.5 393.3 704.1Z" fill="#14B8A6"/>
<path opacity="0.2" d="M667.2 501.8L822 412.4V493L667.2 582.4V501.8Z" fill="url(#paint9_linear_287_603)"/>
<path opacity="0.15" d="M782.4 454.7L735.8 481.6V491.3L782.4 464.4V454.7Z" fill="white"/>
<path opacity="0.15" d="M782.3 474.2L683.1 531.4V541.2L782.3 484V474.2Z" fill="white"/>
<path d="M790.5 457.6C790.5 464.2 794.4 467.4 799.3 464.6C804.2 461.8 808.1 454.1 808.1 447.5C808.1 440.9 804.2 437.7 799.3 440.5C794.5 443.3 790.5 450.9 790.5 457.6Z" fill="#14B8A6"/>
<defs>
<linearGradient id="paint0_linear_287_603" x1="513.84" y1="566.791" x2="542.785" y2="731.621" gradientUnits="userSpaceOnUse">
<stop stop-color="white"/>
<stop offset="1" stop-color="white" stop-opacity="0"/>
</linearGradient>
<linearGradient id="paint1_linear_287_603" x1="530.821" y1="178.605" x2="694.91" y2="462.89" gradientUnits="userSpaceOnUse">
<stop stop-color="white"/>
<stop offset="1" stop-color="white" stop-opacity="0"/>
</linearGradient>
<linearGradient id="paint2_linear_287_603" x1="649.495" y1="905.142" x2="545.769" y2="725.437" gradientUnits="userSpaceOnUse">
<stop stop-color="white"/>
<stop offset="1" stop-color="white" stop-opacity="0"/>
</linearGradient>
<linearGradient id="paint3_linear_287_603" x1="453.947" y1="295.857" x2="596.273" y2="542.44" gradientUnits="userSpaceOnUse">
<stop stop-color="white"/>
<stop offset="1" stop-color="white" stop-opacity="0"/>
</linearGradient>
<linearGradient id="paint4_linear_287_603" x1="338.328" y1="358.993" x2="473.909" y2="593.886" gradientUnits="userSpaceOnUse">
<stop stop-color="white"/>
<stop offset="1" stop-color="white" stop-opacity="0"/>
</linearGradient>
<linearGradient id="paint5_linear_287_603" x1="252.091" y1="845.253" x2="478.103" y2="845.228" gradientUnits="userSpaceOnUse">
<stop stop-color="white"/>
<stop offset="1" stop-color="white" stop-opacity="0"/>
</linearGradient>
<linearGradient id="paint6_linear_287_603" x1="555.563" y1="1005.92" x2="452.772" y2="828.082" gradientUnits="userSpaceOnUse">
<stop stop-color="white"/>
<stop offset="1" stop-color="white" stop-opacity="0"/>
</linearGradient>
<linearGradient id="paint7_linear_287_603" x1="649.297" y1="577.609" x2="793.826" y2="828.004" gradientUnits="userSpaceOnUse">
<stop stop-color="white"/>
<stop offset="1" stop-color="white" stop-opacity="0"/>
</linearGradient>
<linearGradient id="paint8_linear_287_603" x1="329.902" y1="713.681" x2="364.819" y2="774.177" gradientUnits="userSpaceOnUse">
<stop stop-color="white"/>
<stop offset="1" stop-color="white" stop-opacity="0"/>
</linearGradient>
<linearGradient id="paint9_linear_287_603" x1="727.136" y1="467.153" x2="762.054" y2="527.649" gradientUnits="userSpaceOnUse">
<stop stop-color="white"/>
<stop offset="1" stop-color="white" stop-opacity="0"/>
</linearGradient>
</defs>
</svg>
