<svg width="1150" height="1150" viewBox="0 0 1150 1150" fill="none" xmlns="http://www.w3.org/2000/svg">
<rect width="1150" height="1150" rx="200" fill="black"/>
<path opacity="0.4" d="M527 378.6C535.5 373.7 541.6 373.6 545.3 378.2C549.1 382.8 550.9 390.6 550.9 401.5V460.5C550.9 471.7 551.9 481 554 488.4C556.1 496.1 559.6 501.5 564.4 504.7C569.1 508 575.5 508.8 583.6 507.3C591.5 505.9 601.4 501.7 613.2 494.9L618.8 491.6V445.1L611.7 449.2C603.2 454.1 597.6 454.7 594.8 451.2C591.8 447.7 590.3 440.5 590.3 429.6V377.6C590.3 364 589 353.3 586.3 345.5C583.7 337.6 578.4 332.6 570.5 330.4C578.4 319.1 583.7 307.9 586.3 297C588.9 286.1 590.2 273.9 590.2 260.3V208.3C590.2 197.4 591.7 188.4 594.7 181.5C597.5 174.7 603.2 168.8 611.6 163.9L618.7 159.8V113.3L613.1 116.6C601.3 123.4 591.4 130.7 583.5 138.4C575.4 146.2 569 154.4 564.3 163.2C559.4 172 555.9 181.4 553.9 191.5C551.8 201.3 550.8 211.8 550.8 223V282C550.8 292.9 548.9 302.9 545.2 311.8C541.4 320.7 535.3 327.7 526.9 332.5L527 378.6Z" fill="url(#paint0_linear_287_575)"/>
<path opacity="0.4" d="M741.2 207.7C732.7 212.6 726.6 212.7 722.9 208.1C719.1 203.5 717.3 195.7 717.3 184.8V125.8C717.3 114.6 716.3 105.3 714.2 97.9002C712.1 90.2002 708.7 84.8002 704 81.5002C699.1 78.3002 692.7 77.5002 684.8 78.9002C676.7 80.4002 666.7 84.6002 654.9 91.5002L649.3 94.8002V141.3L656.4 137.2C664.9 132.3 670.6 131.6 673.6 135.1C676.4 138.7 677.8 145.9 677.8 156.9V208.9C677.8 222.5 679.1 233.2 681.8 241C684.4 248.9 689.7 253.9 697.6 256.1C689.7 267.4 684.4 278.6 681.8 289.5C679.2 300.4 677.9 312.6 677.9 326.2V378.2C677.9 389.1 676.5 398 673.7 404.9C670.7 411.8 665 417.8 656.5 422.6L649.4 426.7V473.2L655 469.9C666.8 463.1 676.8 455.7 684.9 448C692.8 440.3 699.2 432.1 704.1 423.2C708.8 414.5 712.2 405.1 714.2 395.1C716.3 385.3 717.3 374.8 717.3 363.6V304.6C717.3 293.7 719.2 283.7 722.9 274.8C726.7 265.9 732.8 258.9 741.2 254.1V207.7Z" fill="url(#paint1_linear_287_575)"/>
<path opacity="0.15" d="M498.1 91.0996L287 213V719.1L498.1 597.2V91.0996Z" fill="url(#paint2_linear_287_575)"/>
<path d="M537.7 157.4L369.8 254.3V300.8L537.7 203.9V157.4Z" fill="#6366F1"/>
<path opacity="0.2" d="M470.5 372.7L311.3 464.5V605.2L470.5 513.3V372.7Z" fill="url(#paint3_linear_287_575)"/>
<path opacity="0.15" d="M472.1 264.8L310.5 358.1V374L472.1 280.7V264.8Z" fill="white"/>
<path opacity="0.15" d="M472.2 296.8L332.5 377.4V393.3L472.2 312.7V296.8Z" fill="white"/>
<path opacity="0.15" d="M472.2 328.4L353.6 396.8V412.7L472.2 344.3V328.4Z" fill="white"/>
<path opacity="0.2" d="M498.1 91.0996L287 213V280.8L498.1 159V91.0996Z" fill="url(#paint4_linear_287_575)"/>
<path opacity="0.2" d="M445.3 155.9C445.3 166.2 451.3 171 458.7 166.7C466.1 162.4 472.1 150.7 472.1 140.4C472.1 130.1 466.1 125.3 458.7 129.6C451.3 133.9 445.3 145.7 445.3 155.9Z" fill="white"/>
<path opacity="0.15" d="M878.5 246.1L228.7 621.1L228.8 1127.5L878.6 752.5L878.5 246.1Z" fill="url(#paint5_linear_287_575)"/>
<path d="M921.5 370.9L753.6 467.8V514.3L921.5 417.4V370.9Z" fill="#14B8A6"/>
<path opacity="0.15" d="M834.6 498.7L461.9 713.9V729.8L834.7 514.6L834.6 498.7Z" fill="white"/>
<path opacity="0.15" d="M834.7 530.7L513 716.4V732.3L834.6 546.7L834.7 530.7Z" fill="white"/>
<path opacity="0.15" d="M834.7 562.4L561 720.4V736.3L834.7 578.3V562.4Z" fill="white"/>
<path opacity="0.2" d="M583 764L255.2 953.2V1093.9L583 904.7V764Z" fill="url(#paint6_linear_287_575)"/>
<path opacity="0.15" d="M558.4 806.1L509 834.6V881.1L558.4 852.6V806.1Z" fill="white"/>
<path opacity="0.15" d="M497.9 843.3L448.5 871.8V918.3L497.9 889.8V843.3Z" fill="white"/>
<path opacity="0.15" d="M437.1 877.8L387.7 906.3V952.8L437.1 924.3V877.8Z" fill="white"/>
<path opacity="0.15" d="M376.2 914.5L326.8 943V989.5L376.2 961V914.5Z" fill="white"/>
<path opacity="0.2" d="M895.7 578.2L622.8 735.7V876.4L895.7 718.9V578.2Z" fill="url(#paint7_linear_287_575)"/>
<path opacity="0.15" d="M868.2 630.1L651.4 755.2V771.1L868.2 646V630.1Z" fill="white"/>
<path opacity="0.15" d="M868.2 662.1L694.5 762.3V778.2L868.1 678L868.2 662.1Z" fill="white"/>
<path opacity="0.2" d="M878.5 246.1L229.5 620.7V689.3L878.4 314.7L878.5 246.1Z" fill="url(#paint8_linear_287_575)"/>
<path opacity="0.2" d="M807.8 321.2C807.8 331.5 813.8 336.3 821.2 332C828.6 327.7 834.6 316 834.6 305.7C834.6 295.4 828.6 290.6 821.2 294.9C813.8 299.2 807.8 311 807.8 321.2Z" fill="white"/>
<defs>
<linearGradient id="paint0_linear_287_575" x1="469.418" y1="99.2651" x2="633.2" y2="383.192" gradientUnits="userSpaceOnUse">
<stop stop-color="white"/>
<stop offset="0.903" stop-color="white" stop-opacity="0"/>
</linearGradient>
<linearGradient id="paint1_linear_287_575" x1="563.972" y1="80.0167" x2="727.773" y2="363.909" gradientUnits="userSpaceOnUse">
<stop stop-color="white"/>
<stop offset="0.903" stop-color="white" stop-opacity="0"/>
</linearGradient>
<linearGradient id="paint2_linear_287_575" x1="283.009" y1="215.299" x2="484.865" y2="565.014" gradientUnits="userSpaceOnUse">
<stop stop-color="white"/>
<stop offset="1" stop-color="white" stop-opacity="0"/>
</linearGradient>
<linearGradient id="paint3_linear_287_575" x1="360.495" y1="436.169" x2="416.597" y2="533.364" gradientUnits="userSpaceOnUse">
<stop stop-color="white"/>
<stop offset="1" stop-color="white" stop-opacity="0"/>
</linearGradient>
<linearGradient id="paint4_linear_287_575" x1="425.7" y1="92.1511" x2="361.336" y2="274.376" gradientUnits="userSpaceOnUse">
<stop stop-color="white"/>
<stop offset="1" stop-color="white" stop-opacity="0"/>
</linearGradient>
<linearGradient id="paint5_linear_287_575" x1="443.994" y1="496.835" x2="550.913" y2="682.116" gradientUnits="userSpaceOnUse">
<stop stop-color="white"/>
<stop offset="1" stop-color="white" stop-opacity="0"/>
</linearGradient>
<linearGradient id="paint6_linear_287_575" x1="388.684" y1="876.179" x2="444.786" y2="973.374" gradientUnits="userSpaceOnUse">
<stop stop-color="white"/>
<stop offset="1" stop-color="white" stop-opacity="0"/>
</linearGradient>
<linearGradient id="paint7_linear_287_575" x1="728.781" y1="674.485" x2="784.883" y2="771.681" gradientUnits="userSpaceOnUse">
<stop stop-color="white"/>
<stop offset="1" stop-color="white" stop-opacity="0"/>
</linearGradient>
<linearGradient id="paint8_linear_287_575" x1="717.472" y1="190.826" x2="471.08" y2="608.202" gradientUnits="userSpaceOnUse">
<stop stop-color="white"/>
<stop offset="1" stop-color="white" stop-opacity="0"/>
</linearGradient>
</defs>
</svg>
