<svg width="1150" height="1150" viewBox="0 0 1150 1150" fill="none" xmlns="http://www.w3.org/2000/svg">
<rect width="1150" height="1150" rx="200" fill="#141414"/>
<path opacity="0.07" d="M428.6 666.6C767 231.1 522.2 73.6997 428.6 328.9C334.9 181.8 90.2002 621.7 428.6 666.6Z" fill="url(#paint0_linear_287_555)"/>
<path opacity="0.4" d="M460.6 706.6C799 271 554.2 113.7 460.6 368.9C366.9 221.8 122.2 661.7 460.6 706.6Z" fill="url(#paint1_linear_287_555)"/>
<path opacity="0.2" d="M848.9 515.4C842.9 518.8 838.1 527.2 838.1 534.1V564.6L817.9 576.2C811.9 579.6 807.1 588 807.1 594.9C807.1 601.8 811.9 604.6 817.9 601.2L838.1 589.6V620.1C838.1 627 842.9 629.8 848.9 626.4C854.9 623 859.7 614.6 859.7 607.7V577.2L879.9 565.6C885.9 562.2 890.7 553.8 890.7 546.9C890.7 540 885.9 537.2 879.9 540.6L859.7 552.2V521.7C859.8 514.7 854.9 511.9 848.9 515.4Z" fill="url(#paint2_linear_287_555)"/>
<path opacity="0.25" d="M766.6 483.5L579.7 591.3V937.6L766.6 829.7V483.5Z" fill="url(#paint3_linear_287_555)"/>
<path opacity="0.15" d="M748.2 689L598.1 775.6V789.2L748.2 702.6V689Z" fill="white"/>
<path opacity="0.15" d="M737.7 721.3L608.6 795.8V809.4L737.7 734.9V721.3Z" fill="white"/>
<path d="M683.2 786.6L813.2 711.5V750.2L683.2 825.3V786.6Z" fill="#6366F1"/>
<path d="M651.8 619.6C651.8 636.4 661.5 644.3 673.5 637.3C685.5 630.3 695.2 611.1 695.2 594.3C695.2 577.5 685.5 569.6 673.5 576.6C661.5 583.6 651.8 602.8 651.8 619.6Z" fill="#6366F1"/>
<path d="M673.5 650.8C692.8 639.5 708.7 650.1 711.6 674.4C712.1 678.6 708.9 684.2 705 686.4L642 723.1C638.1 725.4 634.9 723.5 635.4 718.8C638.3 691.2 654.2 662 673.5 650.8Z" fill="#6366F1"/>
<path opacity="0.25" d="M235.5 788.4L533.2 616.6V771.7L235.5 943.5V788.4Z" fill="url(#paint4_linear_287_555)"/>
<path opacity="0.15" d="M436.4 727.5L350.7 777V790.6L436.4 741.1V727.5Z" fill="white"/>
<path opacity="0.15" d="M436.4 753.6L261.6 854.5V868.1L436.5 767.2L436.4 753.6Z" fill="white"/>
<path d="M202.1 836.8L332.1 761.7V800.4L202.1 875.5V836.8Z" fill="#14B8A6"/>
<path d="M462.7 733.1C462.7 750.3 472.8 758.5 485.2 751.3C497.6 744.1 507.7 724.3 507.7 707.1C507.7 689.9 497.6 681.7 485.2 688.9C472.8 696.1 462.7 715.9 462.7 733.1Z" fill="#14B8A6"/>
<path opacity="0.25" d="M648.5 418.4L946.2 246.6V401.7L648.5 573.5V418.4Z" fill="url(#paint5_linear_287_555)"/>
<path opacity="0.15" d="M849.4 358.7L703 443.2V456.8L849.3 372.3L849.4 358.7Z" fill="white"/>
<path opacity="0.15" d="M849.4 384.8L674.5 485.7V499.3L849.4 398.4V384.8Z" fill="white"/>
<path d="M889.8 328C889.8 326.3 891 324.3 892.4 323.5L903.9 316.9C905.3 316.1 906.5 316.7 906.5 318.4V329.8C906.5 332.1 909 333.6 911 332.4L918.1 328.3C919.5 327.5 920.7 328.1 920.7 329.8V346.9C920.7 348.6 919.5 350.6 918.1 351.4L908 357.2C907.1 357.7 906.5 358.7 906.5 359.8V374.7C906.5 376.4 905.3 378.4 903.9 379.2L892.4 385.8C891 386.6 889.8 386 889.8 384.3V372.9C889.8 370.6 887.3 369.1 885.3 370.3L878.2 374.4C876.8 375.2 875.6 374.6 875.6 372.9V355.8C875.6 354.1 876.8 352.1 878.2 351.3L888.3 345.5C889.2 345 889.8 344 889.8 342.9V328Z" fill="#14B8A6"/>
<defs>
<linearGradient id="paint0_linear_287_555" x1="263.396" y1="319.935" x2="552.442" y2="481.743" gradientUnits="userSpaceOnUse">
<stop stop-color="white"/>
<stop offset="1" stop-color="white" stop-opacity="0"/>
</linearGradient>
<linearGradient id="paint1_linear_287_555" x1="295.395" y1="359.935" x2="584.443" y2="521.743" gradientUnits="userSpaceOnUse">
<stop stop-color="white"/>
<stop offset="1" stop-color="white" stop-opacity="0"/>
</linearGradient>
<linearGradient id="paint2_linear_287_555" x1="828.033" y1="554.354" x2="880.391" y2="595.674" gradientUnits="userSpaceOnUse">
<stop stop-color="white"/>
<stop offset="1" stop-color="white" stop-opacity="0"/>
</linearGradient>
<linearGradient id="paint3_linear_287_555" x1="559.67" y1="513.938" x2="725.581" y2="801.378" gradientUnits="userSpaceOnUse">
<stop stop-color="white"/>
<stop offset="1" stop-color="white" stop-opacity="0"/>
</linearGradient>
<linearGradient id="paint4_linear_287_555" x1="384.564" y1="648.94" x2="384.124" y2="906.953" gradientUnits="userSpaceOnUse">
<stop stop-color="white"/>
<stop offset="1" stop-color="white" stop-opacity="0"/>
</linearGradient>
<linearGradient id="paint5_linear_287_555" x1="797.558" y1="278.941" x2="797.118" y2="536.954" gradientUnits="userSpaceOnUse">
<stop stop-color="white"/>
<stop offset="1" stop-color="white" stop-opacity="0"/>
</linearGradient>
</defs>
</svg>
