<svg width="1150" height="1150" viewBox="0 0 1150 1150" fill="none" xmlns="http://www.w3.org/2000/svg">
<rect width="1150" height="1150" rx="200" fill="#141414"/>
<path opacity="0.2" d="M697 487.7L864 391.3V478.3L697 574.7V487.7Z" fill="url(#paint0_linear_287_1001)"/>
<path d="M830.1 440.1C830.1 447.3 834.3 450.6 839.6 447.6C844.8 444.6 849.1 436.3 849.1 429.1C849.1 421.9 844.9 418.6 839.6 421.6C834.3 424.6 830.1 432.9 830.1 440.1Z" fill="#6366F1"/>
<path opacity="0.15" d="M821.3 434.3L760.4 469.4V483L821.3 447.9V434.3Z" fill="white"/>
<path opacity="0.15" d="M821.2 463.5L714.2 525.2V538.8L821.2 477.1V463.5Z" fill="white"/>
<path opacity="0.07" d="M565.8 206.8L378.5 314.9V718.1L565.7 610L565.8 206.8Z" fill="url(#paint1_linear_287_1001)"/>
<path opacity="0.3" d="M609.1 243.2L421.8 351.3V754.5L609 646.4L609.1 243.2Z" fill="url(#paint2_linear_287_1001)"/>
<path opacity="0.15" d="M591 467.9L440.6 554.7V568.3L591 481.5V467.9Z" fill="white"/>
<path opacity="0.15" d="M580.5 501L451.2 575.7V589.3L580.5 514.6V501Z" fill="white"/>
<path d="M658 554V509L547.5 572.8V617.8L658 554Z" fill="#14B8A6"/>
<path opacity="0.2" d="M272.5 544.4C281.1 530.7 293 528.9 293.5 528.8C294.7 528.6 295.4 529.7 295.4 531.3V567.5C295.4 579.8 299.6 587.7 307.9 591.1C308.7 591.4 309.2 592.3 309.2 593.5C309.2 610.9 308.9 685.6 308.8 708.9C308.8 712.8 306.1 717.4 302.8 719.3C285.1 729.6 234 759.1 234 759.1C220.4 767 211.7 762.1 210.2 745.9L210 674.2C210 663.3 211.9 652.1 217.9 642.8C221.3 637.5 225.3 633.4 229.5 631L264.4 610.9V577.3C264.3 564.1 267.1 553.1 272.5 544.4Z" fill="url(#paint3_linear_287_1001)"/>
<path d="M355.9 562.6L316.9 585.1V712.7L355.9 690.2V562.6Z" fill="#6366F1"/>
<path opacity="0.3" d="M641.3 319.8L938.9 148L938.8 303.1L667.5 459.7L641.2 498.6L641.3 319.8Z" fill="url(#paint4_linear_287_1001)"/>
<path opacity="0.15" d="M717.8 313.3L783 275.7V289.3L717.8 327V313.3Z" fill="white"/>
<path opacity="0.15" d="M717.8 340.6L879.3 247.4V261L717.8 354.2V340.6Z" fill="white"/>
<path opacity="0.15" d="M717.8 367.9L912.6 255.4V269L717.8 381.5V367.9Z" fill="white"/>
<path d="M701.8 336.8C701.8 349.6 694.2 364.3 684.9 369.7C675.6 375.1 668 369.1 668 356.3C668 343.5 675.6 328.8 684.9 323.4C694.2 318 701.8 324 701.8 336.8Z" fill="#14B8A6"/>
<path opacity="0.3" d="M513 674.3L215.5 846.1L215.4 1001.2L486.7 844.6L512.9 853.2L513 674.3Z" fill="url(#paint5_linear_287_1001)"/>
<path opacity="0.15" d="M436.5 756.3L371.3 793.9V807.5L436.5 769.9V756.3Z" fill="white"/>
<path opacity="0.15" d="M436.5 783.5L318.8 851.4V865L436.5 797.1V783.5Z" fill="white"/>
<path opacity="0.15" d="M436.5 810.8L284.2 898.7V912.3L436.5 824.4V810.8Z" fill="white"/>
<path d="M452.5 761.2C452.5 774 460.1 780 469.4 774.6C478.7 769.2 486.3 754.5 486.3 741.7C486.3 728.9 478.7 722.9 469.4 728.3C460.1 733.7 452.5 748.4 452.5 761.2Z" fill="#6366F1"/>
<path opacity="0.2" d="M616 647.7C610 651.1 605.2 659.5 605.2 666.4V696.9L585 708.5C579 711.9 574.2 720.3 574.2 727.2C574.2 734.1 579 736.9 585 733.5L605.2 721.9V752.4C605.2 759.3 610 762.1 616 758.7C622 755.3 626.8 746.9 626.8 740V709.5L647 697.9C653 694.5 657.8 686.1 657.8 679.2C657.8 672.3 653 669.5 647 672.9L626.8 684.5V654C626.9 647.1 622 644.2 616 647.7Z" fill="url(#paint6_linear_287_1001)"/>
<path opacity="0.05" d="M515.9 453C601.7 341.4 539.6 301 515.9 366.4C492.1 328.8 430 441.5 515.9 453Z" fill="url(#paint7_linear_287_1001)"/>
<path opacity="0.3" d="M535.9 473C621.7 361.4 559.6 321 535.9 386.4C512.1 348.8 450 461.5 535.9 473Z" fill="white"/>
<defs>
<linearGradient id="paint0_linear_287_1001" x1="761.698" y1="450.406" x2="799.363" y2="515.66" gradientUnits="userSpaceOnUse">
<stop stop-color="white"/>
<stop offset="1" stop-color="white" stop-opacity="0"/>
</linearGradient>
<linearGradient id="paint1_linear_287_1001" x1="363.462" y1="274.134" x2="552.262" y2="601.23" gradientUnits="userSpaceOnUse">
<stop stop-color="white"/>
<stop offset="1" stop-color="white" stop-opacity="0"/>
</linearGradient>
<linearGradient id="paint2_linear_287_1001" x1="406.734" y1="310.535" x2="595.533" y2="637.631" gradientUnits="userSpaceOnUse">
<stop stop-color="white"/>
<stop offset="1" stop-color="white" stop-opacity="0"/>
</linearGradient>
<linearGradient id="paint3_linear_287_1001" x1="296.52" y1="631.464" x2="171.213" y2="679.419" gradientUnits="userSpaceOnUse">
<stop stop-color="white"/>
<stop offset="1" stop-color="white" stop-opacity="0"/>
</linearGradient>
<linearGradient id="paint4_linear_287_1001" x1="706.212" y1="257.642" x2="859.863" y2="377.946" gradientUnits="userSpaceOnUse">
<stop stop-color="white"/>
<stop offset="1" stop-color="white" stop-opacity="0"/>
</linearGradient>
<linearGradient id="paint5_linear_287_1001" x1="385.193" y1="679.362" x2="346.722" y2="991.393" gradientUnits="userSpaceOnUse">
<stop stop-color="white"/>
<stop offset="1" stop-color="white" stop-opacity="0"/>
</linearGradient>
<linearGradient id="paint6_linear_287_1001" x1="595.141" y1="686.676" x2="647.498" y2="727.996" gradientUnits="userSpaceOnUse">
<stop stop-color="white"/>
<stop offset="1" stop-color="white" stop-opacity="0"/>
</linearGradient>
<linearGradient id="paint7_linear_287_1001" x1="497.553" y1="370.907" x2="561.654" y2="425.716" gradientUnits="userSpaceOnUse">
<stop stop-color="white"/>
<stop offset="1" stop-color="white" stop-opacity="0"/>
</linearGradient>
</defs>
</svg>
