<svg width="1150" height="1150" viewBox="0 0 1150 1150" fill="none" xmlns="http://www.w3.org/2000/svg">
<rect width="1150" height="1150" rx="200" fill="#141414"/>
<path opacity="0.5" d="M412.5 476.5C495.2 428.2 563.6 473.4 575.7 577.5C577.8 595.6 564.1 619.4 547.5 629.1L277.6 786.6C261 796.3 247.3 788.5 249.3 768C261.4 649.8 329.8 524.7 412.5 476.5Z" fill="url(#paint0_linear_287_864)"/>
<path opacity="0.5" d="M320.3 341.2C320.3 413.1 361.9 447.1 413.2 417.1C464.5 387.2 506 304.6 506 232.8C506 160.9 464.4 126.9 413.1 156.9C361.8 186.8 320.3 269.4 320.3 341.2Z" fill="url(#paint1_linear_287_864)"/>
<path opacity="0.07" d="M372.5 446.5C455.2 398.2 523.6 443.4 535.7 547.5C537.8 565.6 524.1 589.4 507.5 599.1L237.6 756.6C221 766.3 207.3 758.5 209.3 738C221.4 619.8 289.8 494.7 372.5 446.5Z" fill="url(#paint2_linear_287_864)"/>
<path opacity="0.07" d="M280.3 311.2C280.3 383.1 321.9 417.1 373.2 387.1C424.4 357.2 466 274.7 466 202.8C466 130.9 424.4 96.8998 373.1 126.9C321.8 156.8 280.3 239.4 280.3 311.2Z" fill="url(#paint3_linear_287_864)"/>
<path opacity="0.2" d="M754.6 513.2L940.9 405.7V502.7L754.6 610.3V513.2Z" fill="url(#paint4_linear_287_864)"/>
<path d="M903 460.1C903 468.1 907.7 471.8 913.6 468.5C919.4 465.1 924.2 455.9 924.2 447.9C924.2 439.9 919.5 436.2 913.6 439.5C907.8 442.9 903 452.1 903 460.1Z" fill="#14B8A6"/>
<path opacity="0.15" d="M893.5 457.1L832.6 492.2V505.8L893.5 470.7V457.1Z" fill="white"/>
<path opacity="0.15" d="M893.2 484.5L773.9 553.4V567L893.2 498.1V484.5Z" fill="white"/>
<path opacity="0.05" d="M460.6 611L273.5 719V1121.9L460.6 1013.9V611Z" fill="url(#paint5_linear_287_864)"/>
<path opacity="0.3" d="M304.7 746.2V1149.1L491.8 1041.1V638.2L304.7 746.2ZM430.5 714.8L367.9 750.9V734.8L430.5 698.7V714.8Z" fill="url(#paint6_linear_287_864)"/>
<path opacity="0.15" d="M473.8 893.3L323.5 980V993.6L473.8 906.9V893.3Z" fill="white"/>
<path opacity="0.15" d="M463.3 925.9L334 1000.5V1014.1L463.3 939.5V925.9Z" fill="white"/>
<path d="M356.6 859.4C356.6 827.5 375.3 790.8 398.3 777.5C421.3 764.2 440 779.3 440 811.2C440 843.1 421.3 879.8 398.3 893.1C375.3 906.4 356.6 891.3 356.6 859.4Z" fill="#14B8A6"/>
<path opacity="0.05" d="M693.6 286.7L506.5 394.7V797.6L693.6 689.6V286.7Z" fill="url(#paint7_linear_287_864)"/>
<path opacity="0.3" d="M537.7 421.9V824.8L724.8 716.8V313.9L537.7 421.9ZM663.5 390.4L600.9 426.5V410.4L663.5 374.3V390.4Z" fill="url(#paint8_linear_287_864)"/>
<path opacity="0.15" d="M706.8 568.9L556.5 655.6V669.2L706.8 582.5V568.9Z" fill="white"/>
<path opacity="0.15" d="M696.3 601.6L567 676.2V689.8L696.3 615.2V601.6Z" fill="white"/>
<path d="M589.6 535.1C589.6 503.2 608.3 466.5 631.3 453.2C654.3 439.9 673 455 673 486.9C673 518.8 654.3 555.5 631.3 568.8C608.3 582.1 589.6 567 589.6 535.1Z" fill="#6366F1"/>
<path opacity="0.3" d="M589.6 759.8L887.1 588L887 743.1L615.8 899.7L589.5 938.6L589.6 759.8Z" fill="url(#paint9_linear_287_864)"/>
<path d="M918.9 648.5V606.4L806.6 671.2V713.3L918.9 648.5Z" fill="#14B8A6"/>
<path opacity="0.15" d="M666.1 753.4L731.3 715.8V729.4L666.1 767V753.4Z" fill="white"/>
<path opacity="0.15" d="M666.1 780.7L791.8 708.2V721.8L666.1 794.3V780.7Z" fill="white"/>
<path opacity="0.15" d="M666 807.9L818.3 720V733.6L666 821.6V807.9Z" fill="white"/>
<path d="M650 776.9C650 789.7 642.4 804.4 633.1 809.8C623.8 815.2 616.2 809.2 616.2 796.4C616.2 783.6 623.8 768.9 633.1 763.5C642.5 758.1 650 764.1 650 776.9Z" fill="#14B8A6"/>
<path opacity="0.2" d="M822.9 294.4C816.9 297.8 812.1 306.2 812.1 313.1V343.6L791.9 355.2C785.9 358.6 781.1 367 781.1 373.9C781.1 380.8 785.9 383.6 791.9 380.2L812.1 368.6V399.1C812.1 406 816.9 408.8 822.9 405.4C828.9 402 833.7 393.6 833.7 386.7V356.2L853.9 344.6C859.9 341.2 864.7 332.8 864.7 325.9C864.7 319 859.9 316.2 853.9 319.6L833.7 331.2V300.7C833.7 293.8 828.9 291 822.9 294.4Z" fill="url(#paint10_linear_287_864)"/>
<defs>
<linearGradient id="paint0_linear_287_864" x1="71.2519" y1="397.697" x2="407.175" y2="642.743" gradientUnits="userSpaceOnUse">
<stop stop-color="white"/>
<stop offset="1" stop-color="white" stop-opacity="0"/>
</linearGradient>
<linearGradient id="paint1_linear_287_864" x1="242.445" y1="162.476" x2="578.368" y2="407.522" gradientUnits="userSpaceOnUse">
<stop stop-color="white"/>
<stop offset="1" stop-color="white" stop-opacity="0"/>
</linearGradient>
<linearGradient id="paint2_linear_287_864" x1="31.2524" y1="367.697" x2="367.175" y2="612.743" gradientUnits="userSpaceOnUse">
<stop stop-color="white"/>
<stop offset="1" stop-color="white" stop-opacity="0"/>
</linearGradient>
<linearGradient id="paint3_linear_287_864" x1="202.445" y1="132.476" x2="538.368" y2="377.522" gradientUnits="userSpaceOnUse">
<stop stop-color="white"/>
<stop offset="1" stop-color="white" stop-opacity="0"/>
</linearGradient>
<linearGradient id="paint4_linear_287_864" x1="826.722" y1="471.571" x2="868.762" y2="544.405" gradientUnits="userSpaceOnUse">
<stop stop-color="white"/>
<stop offset="1" stop-color="white" stop-opacity="0"/>
</linearGradient>
<linearGradient id="paint5_linear_287_864" x1="258.445" y1="678.292" x2="490.164" y2="1079.75" gradientUnits="userSpaceOnUse">
<stop stop-color="white"/>
<stop offset="1" stop-color="white" stop-opacity="0"/>
</linearGradient>
<linearGradient id="paint6_linear_287_864" x1="289.624" y1="705.454" x2="485.503" y2="1044.82" gradientUnits="userSpaceOnUse">
<stop stop-color="white"/>
<stop offset="1" stop-color="white" stop-opacity="0"/>
</linearGradient>
<linearGradient id="paint7_linear_287_864" x1="491.439" y1="353.981" x2="723.157" y2="755.435" gradientUnits="userSpaceOnUse">
<stop stop-color="white"/>
<stop offset="1" stop-color="white" stop-opacity="0"/>
</linearGradient>
<linearGradient id="paint8_linear_287_864" x1="522.617" y1="381.143" x2="718.496" y2="720.504" gradientUnits="userSpaceOnUse">
<stop stop-color="white"/>
<stop offset="1" stop-color="white" stop-opacity="0"/>
</linearGradient>
<linearGradient id="paint9_linear_287_864" x1="654.482" y1="697.672" x2="808.132" y2="817.976" gradientUnits="userSpaceOnUse">
<stop stop-color="white"/>
<stop offset="1" stop-color="white" stop-opacity="0"/>
</linearGradient>
<linearGradient id="paint10_linear_287_864" x1="801.988" y1="333.397" x2="854.346" y2="374.717" gradientUnits="userSpaceOnUse">
<stop stop-color="white"/>
<stop offset="1" stop-color="white" stop-opacity="0"/>
</linearGradient>
</defs>
</svg>
