<svg width="103" height="15" viewBox="0 0 103 15" fill="none" xmlns="http://www.w3.org/2000/svg">
<path d="M0.660511 12V3.27273H4.29972C4.95313 3.27273 5.5 3.36506 5.94034 3.54972C6.38352 3.73437 6.71591 3.9929 6.9375 4.32528C7.16193 4.65767 7.27415 5.04261 7.27415 5.48011C7.27415 5.8125 7.20455 6.10938 7.06534 6.37074C6.92614 6.62926 6.73438 6.84375 6.49006 7.0142C6.24574 7.18466 5.96307 7.30398 5.64205 7.37216V7.45739C5.99432 7.47443 6.3196 7.5696 6.6179 7.7429C6.91903 7.91619 7.16051 8.15767 7.34233 8.46733C7.52415 8.77415 7.61506 9.13778 7.61506 9.55824C7.61506 10.027 7.49574 10.446 7.2571 10.8153C7.01847 11.1818 6.6733 11.4716 6.22159 11.6847C5.76989 11.8949 5.22159 12 4.5767 12H0.660511ZM2.76989 10.2997H4.07386C4.53125 10.2997 4.8679 10.2131 5.08381 10.0398C5.30256 9.86648 5.41193 9.625 5.41193 9.31534C5.41193 9.09091 5.35938 8.89773 5.25426 8.7358C5.14915 8.57102 5 8.4446 4.80682 8.35653C4.61364 8.26562 4.3821 8.22017 4.11222 8.22017H2.76989V10.2997ZM2.76989 6.8608H3.9375C4.16761 6.8608 4.37216 6.82244 4.55114 6.74574C4.73011 6.66903 4.86932 6.55824 4.96875 6.41335C5.07102 6.26847 5.12216 6.09375 5.12216 5.8892C5.12216 5.59659 5.01847 5.36648 4.81108 5.19886C4.60369 5.03125 4.32386 4.94744 3.97159 4.94744H2.76989V6.8608ZM12.8523 9.17472V5.45455H14.9318V12H12.946V10.7812H12.8778C12.733 11.1818 12.4858 11.5 12.1364 11.7358C11.7898 11.9687 11.3707 12.0852 10.8793 12.0852C10.4332 12.0852 10.0412 11.983 9.70312 11.7784C9.36506 11.5739 9.10227 11.2884 8.91477 10.9219C8.72727 10.5526 8.6321 10.1207 8.62926 9.62642V5.45455H10.7131V9.21733C10.7159 9.57244 10.8097 9.85227 10.9943 10.0568C11.179 10.2614 11.4304 10.3636 11.7486 10.3636C11.956 10.3636 12.142 10.3182 12.3068 10.2273C12.4744 10.1335 12.6065 9.99858 12.7031 9.82244C12.8026 9.64347 12.8523 9.42756 12.8523 9.17472ZM21.9727 7.45312L20.0593 7.50426C20.0394 7.3679 19.9854 7.24716 19.8974 7.14205C19.8093 7.03409 19.6942 6.95028 19.5522 6.89062C19.413 6.82812 19.2511 6.79688 19.0664 6.79688C18.8249 6.79688 18.619 6.84517 18.4485 6.94176C18.2809 7.03835 18.1985 7.16903 18.2013 7.33381C18.1985 7.46165 18.2496 7.57244 18.3548 7.66619C18.4627 7.75994 18.6545 7.83523 18.93 7.89205L20.1914 8.13068C20.8448 8.25568 21.3306 8.46307 21.6488 8.75284C21.9698 9.04261 22.1317 9.42614 22.1346 9.90341C22.1317 10.3523 21.9982 10.7429 21.734 11.0753C21.4727 11.4077 21.1147 11.6662 20.6602 11.8509C20.2056 12.0327 19.6857 12.1236 19.1005 12.1236C18.1658 12.1236 17.4286 11.9318 16.8888 11.5483C16.3519 11.1619 16.0451 10.6449 15.9684 9.99716L18.0266 9.94602C18.0721 10.1847 18.19 10.3665 18.3803 10.4915C18.5707 10.6165 18.8136 10.679 19.109 10.679C19.3761 10.679 19.5934 10.6293 19.761 10.5298C19.9286 10.4304 20.0138 10.2983 20.0167 10.1335C20.0138 9.9858 19.9485 9.8679 19.8207 9.77983C19.6928 9.68892 19.4925 9.6179 19.2198 9.56676L18.0778 9.34943C17.4215 9.23011 16.9329 9.00994 16.6119 8.68892C16.2908 8.36506 16.1317 7.95312 16.1346 7.45312C16.1317 7.01562 16.2482 6.64205 16.484 6.33239C16.7198 6.01989 17.055 5.78125 17.4897 5.61648C17.9244 5.4517 18.4371 5.36932 19.0281 5.36932C19.9144 5.36932 20.6133 5.5554 21.1246 5.92756C21.636 6.29687 21.9187 6.8054 21.9727 7.45312ZM23.1605 12V5.45455H25.2443V12H23.1605ZM24.2045 4.69176C23.9119 4.69176 23.6605 4.59517 23.4503 4.40199C23.2401 4.20597 23.1349 3.97017 23.1349 3.6946C23.1349 3.42187 23.2401 3.18892 23.4503 2.99574C23.6605 2.79972 23.9119 2.7017 24.2045 2.7017C24.5 2.7017 24.7514 2.79972 24.9588 2.99574C25.169 3.18892 25.2741 3.42187 25.2741 3.6946C25.2741 3.97017 25.169 4.20597 24.9588 4.40199C24.7514 4.59517 24.5 4.69176 24.2045 4.69176ZM28.6545 8.26705V12H26.5707V5.45455H28.5522V6.65625H28.6246C28.7695 6.25568 29.0167 5.94176 29.3661 5.71449C29.7156 5.48438 30.1317 5.36932 30.6147 5.36932C31.0749 5.36932 31.4741 5.47301 31.8121 5.6804C32.1531 5.88494 32.4173 6.17187 32.6048 6.54119C32.7951 6.90767 32.8888 7.33665 32.886 7.82812V12H30.8022V8.23722C30.805 7.87358 30.7127 7.58949 30.5252 7.38494C30.3406 7.1804 30.0835 7.07812 29.7539 7.07812C29.5352 7.07812 29.342 7.12642 29.1744 7.22301C29.0096 7.31676 28.8817 7.4517 28.7908 7.62784C28.7028 7.80398 28.6573 8.01705 28.6545 8.26705ZM37.2358 12.1236C36.5511 12.1236 35.9602 11.9886 35.4631 11.7188C34.9688 11.446 34.5881 11.0582 34.321 10.5554C34.0568 10.0497 33.9247 9.44886 33.9247 8.75284C33.9247 8.0767 34.0582 7.4858 34.3253 6.98011C34.5923 6.47159 34.9688 6.0767 35.4545 5.79545C35.9403 5.51136 36.5128 5.36932 37.1719 5.36932C37.6378 5.36932 38.0639 5.44176 38.4503 5.58665C38.8366 5.73153 39.1705 5.94602 39.4517 6.23011C39.733 6.5142 39.9517 6.86506 40.108 7.28267C40.2642 7.69744 40.3423 8.1733 40.3423 8.71023V9.23011H34.6534V8.01989H38.4034C38.4006 7.7983 38.348 7.60085 38.2457 7.42756C38.1435 7.25426 38.0028 7.11932 37.8239 7.02273C37.6477 6.9233 37.4446 6.87358 37.2145 6.87358C36.9815 6.87358 36.7727 6.92614 36.5881 7.03125C36.4034 7.13352 36.2571 7.27415 36.1491 7.45312C36.0412 7.62926 35.9844 7.82955 35.9787 8.05398V9.28551C35.9787 9.55256 36.0313 9.78693 36.1364 9.98864C36.2415 10.1875 36.3906 10.3423 36.5838 10.4531C36.777 10.5639 37.0071 10.6193 37.2741 10.6193C37.4588 10.6193 37.6264 10.5937 37.777 10.5426C37.9276 10.4915 38.0568 10.4162 38.1648 10.3168C38.2727 10.2173 38.3537 10.0952 38.4077 9.95028L40.321 10.0057C40.2415 10.4347 40.0668 10.8082 39.7969 11.1264C39.5298 11.4418 39.179 11.6875 38.7443 11.8636C38.3097 12.0369 37.8068 12.1236 37.2358 12.1236ZM47.1211 7.45312L45.2077 7.50426C45.1879 7.3679 45.1339 7.24716 45.0458 7.14205C44.9577 7.03409 44.8427 6.95028 44.7006 6.89062C44.5614 6.82812 44.3995 6.79688 44.2148 6.79688C43.9734 6.79688 43.7674 6.84517 43.5969 6.94176C43.4293 7.03835 43.3469 7.16903 43.3498 7.33381C43.3469 7.46165 43.3981 7.57244 43.5032 7.66619C43.6112 7.75994 43.8029 7.83523 44.0785 7.89205L45.3398 8.13068C45.9933 8.25568 46.479 8.46307 46.7972 8.75284C47.1183 9.04261 47.2802 9.42614 47.283 9.90341C47.2802 10.3523 47.1467 10.7429 46.8825 11.0753C46.6211 11.4077 46.2631 11.6662 45.8086 11.8509C45.354 12.0327 44.8342 12.1236 44.2489 12.1236C43.3143 12.1236 42.5771 11.9318 42.0373 11.5483C41.5004 11.1619 41.1935 10.6449 41.1168 9.99716L43.1751 9.94602C43.2205 10.1847 43.3384 10.3665 43.5288 10.4915C43.7191 10.6165 43.962 10.679 44.2575 10.679C44.5245 10.679 44.7418 10.6293 44.9094 10.5298C45.0771 10.4304 45.1623 10.2983 45.1651 10.1335C45.1623 9.9858 45.0969 9.8679 44.9691 9.77983C44.8413 9.68892 44.641 9.6179 44.3683 9.56676L43.2262 9.34943C42.57 9.23011 42.0813 9.00994 41.7603 8.68892C41.4393 8.36506 41.2802 7.95312 41.283 7.45312C41.2802 7.01562 41.3967 6.64205 41.6325 6.33239C41.8683 6.01989 42.2035 5.78125 42.6381 5.61648C43.0728 5.4517 43.5856 5.36932 44.1765 5.36932C45.0629 5.36932 45.7617 5.5554 46.2731 5.92756C46.7844 6.29687 47.0671 6.8054 47.1211 7.45312ZM54.0234 7.45312L52.1101 7.50426C52.0902 7.3679 52.0362 7.24716 51.9482 7.14205C51.8601 7.03409 51.745 6.95028 51.603 6.89062C51.4638 6.82812 51.3018 6.79688 51.1172 6.79688C50.8757 6.79688 50.6697 6.84517 50.4993 6.94176C50.3317 7.03835 50.2493 7.16903 50.2521 7.33381C50.2493 7.46165 50.3004 7.57244 50.4055 7.66619C50.5135 7.75994 50.7053 7.83523 50.9808 7.89205L52.2422 8.13068C52.8956 8.25568 53.3814 8.46307 53.6996 8.75284C54.0206 9.04261 54.1825 9.42614 54.1854 9.90341C54.1825 10.3523 54.049 10.7429 53.7848 11.0753C53.5234 11.4077 53.1655 11.6662 52.7109 11.8509C52.2564 12.0327 51.7365 12.1236 51.1513 12.1236C50.2166 12.1236 49.4794 11.9318 48.9396 11.5483C48.4027 11.1619 48.0959 10.6449 48.0192 9.99716L50.0774 9.94602C50.1229 10.1847 50.2408 10.3665 50.4311 10.4915C50.6214 10.6165 50.8643 10.679 51.1598 10.679C51.4268 10.679 51.6442 10.6293 51.8118 10.5298C51.9794 10.4304 52.0646 10.2983 52.0675 10.1335C52.0646 9.9858 51.9993 9.8679 51.8714 9.77983C51.7436 9.68892 51.5433 9.6179 51.2706 9.56676L50.1286 9.34943C49.4723 9.23011 48.9837 9.00994 48.6626 8.68892C48.3416 8.36506 48.1825 7.95312 48.1854 7.45312C48.1825 7.01562 48.299 6.64205 48.5348 6.33239C48.7706 6.01989 49.1058 5.78125 49.5405 5.61648C49.9751 5.4517 50.4879 5.36932 51.0788 5.36932C51.9652 5.36932 52.6641 5.5554 53.1754 5.92756C53.6868 6.29687 53.9695 6.8054 54.0234 7.45312Z" fill="black"/>
<path d="M57.7894 12V3.27273H63.7468V4.9858H59.8988V6.77557H63.3675V8.4929H59.8988V12H57.7894ZM66.5487 12.1108C66.131 12.1108 65.7603 12.0412 65.4364 11.902C65.1154 11.7599 64.8612 11.5469 64.6737 11.2628C64.489 10.9759 64.3967 10.6165 64.3967 10.1847C64.3967 9.82102 64.4606 9.5142 64.5884 9.2642C64.7163 9.0142 64.8924 8.81108 65.1168 8.65483C65.3413 8.49858 65.5998 8.38068 65.8924 8.30114C66.185 8.21875 66.4975 8.16335 66.8299 8.13494C67.2021 8.10085 67.5018 8.06534 67.729 8.02841C67.9563 7.98864 68.1211 7.93324 68.2234 7.86222C68.3285 7.78835 68.381 7.68466 68.381 7.55114V7.52983C68.381 7.31108 68.3058 7.14205 68.1552 7.02273C68.0046 6.90341 67.8015 6.84375 67.5458 6.84375C67.2702 6.84375 67.0487 6.90341 66.881 7.02273C66.7134 7.14205 66.6069 7.30682 66.5614 7.51705L64.6396 7.44886C64.6964 7.05114 64.8427 6.69602 65.0785 6.38352C65.3171 6.06818 65.6438 5.82102 66.0586 5.64205C66.4762 5.46023 66.9776 5.36932 67.5629 5.36932C67.9805 5.36932 68.3654 5.41903 68.7177 5.51847C69.07 5.61506 69.3768 5.7571 69.6381 5.9446C69.8995 6.12926 70.1012 6.35653 70.2433 6.62642C70.3881 6.89631 70.4606 7.20455 70.4606 7.55114V12H68.5004V11.0881H68.4492C68.3327 11.3097 68.1836 11.4972 68.0018 11.6506C67.8228 11.804 67.6112 11.919 67.3668 11.9957C67.1254 12.0724 66.8526 12.1108 66.5487 12.1108ZM67.1921 10.7472C67.4165 10.7472 67.6183 10.7017 67.7972 10.6108C67.979 10.5199 68.1239 10.3949 68.2319 10.2358C68.3398 10.0739 68.3938 9.88636 68.3938 9.6733V9.05114C68.3342 9.08239 68.2617 9.1108 68.1765 9.13636C68.0941 9.16193 68.0032 9.18608 67.9038 9.20881C67.8043 9.23153 67.7021 9.25142 67.5969 9.26847C67.4918 9.28551 67.391 9.30114 67.2944 9.31534C67.0984 9.34659 66.9308 9.39489 66.7915 9.46023C66.6552 9.52557 66.5501 9.6108 66.4762 9.71591C66.4052 9.81818 66.3697 9.94034 66.3697 10.0824C66.3697 10.2983 66.4464 10.4631 66.5998 10.5767C66.756 10.6903 66.9535 10.7472 67.1921 10.7472ZM74.7901 12.1236C74.0998 12.1236 73.5075 11.9815 73.0131 11.6974C72.5217 11.4134 72.1438 11.0185 71.8796 10.5128C71.6154 10.0043 71.4833 9.41619 71.4833 8.74858C71.4833 8.07812 71.6154 7.49006 71.8796 6.98438C72.1467 6.47585 72.5259 6.07955 73.0174 5.79545C73.5117 5.51136 74.1012 5.36932 74.7859 5.36932C75.391 5.36932 75.918 5.47869 76.3668 5.69744C76.8185 5.91619 77.1708 6.22585 77.4237 6.62642C77.6793 7.02415 77.8143 7.49148 77.8285 8.02841H75.881C75.8413 7.69318 75.7276 7.4304 75.5401 7.24006C75.3555 7.04972 75.114 6.95455 74.8157 6.95455C74.5742 6.95455 74.3626 7.02273 74.1808 7.15909C73.9989 7.29261 73.8569 7.49148 73.7546 7.75568C73.6552 8.01705 73.6055 8.34091 73.6055 8.72727C73.6055 9.11364 73.6552 9.44034 73.7546 9.70739C73.8569 9.97159 73.9989 10.1719 74.1808 10.3082C74.3626 10.4418 74.5742 10.5085 74.8157 10.5085C75.0089 10.5085 75.1793 10.4673 75.3271 10.3849C75.4776 10.3026 75.6012 10.1818 75.6978 10.0227C75.7944 9.8608 75.8555 9.66477 75.881 9.43466H77.8285C77.8086 9.97443 77.6737 10.446 77.4237 10.8494C77.1765 11.2528 76.8285 11.5668 76.3796 11.7912C75.9336 12.0128 75.4038 12.1236 74.7901 12.1236ZM82.5895 5.45455V6.98864H78.4602V5.45455H82.5895ZM79.3253 3.88636H81.4091V9.94176C81.4091 10.0696 81.429 10.1733 81.4688 10.2528C81.5114 10.3295 81.5724 10.3849 81.652 10.419C81.7315 10.4503 81.8267 10.4659 81.9375 10.4659C82.017 10.4659 82.1009 10.4588 82.1889 10.4446C82.2798 10.4276 82.348 10.4134 82.3935 10.402L82.7088 11.9062C82.6094 11.9347 82.4688 11.9702 82.2869 12.0128C82.108 12.0554 81.8935 12.0824 81.6435 12.0938C81.1548 12.1165 80.7358 12.0597 80.3864 11.9233C80.0398 11.7841 79.7741 11.5682 79.5895 11.2756C79.4077 10.983 79.3196 10.6151 79.3253 10.1719V3.88636ZM86.6378 12.1236C85.9503 12.1236 85.3594 11.983 84.8651 11.7017C84.3736 11.4176 83.9943 11.0227 83.7273 10.517C83.4631 10.0085 83.331 9.41903 83.331 8.74858C83.331 8.07528 83.4631 7.4858 83.7273 6.98011C83.9943 6.47159 84.3736 6.0767 84.8651 5.79545C85.3594 5.51136 85.9503 5.36932 86.6378 5.36932C87.3253 5.36932 87.9148 5.51136 88.4062 5.79545C88.9006 6.0767 89.2798 6.47159 89.544 6.98011C89.8111 7.4858 89.9446 8.07528 89.9446 8.74858C89.9446 9.41903 89.8111 10.0085 89.544 10.517C89.2798 11.0227 88.9006 11.4176 88.4062 11.7017C87.9148 11.983 87.3253 12.1236 86.6378 12.1236ZM86.6506 10.5511C86.9006 10.5511 87.1122 10.4744 87.2855 10.321C87.4588 10.1676 87.5909 9.95455 87.6818 9.68182C87.7756 9.40909 87.8224 9.09375 87.8224 8.7358C87.8224 8.37216 87.7756 8.05398 87.6818 7.78125C87.5909 7.50852 87.4588 7.29545 87.2855 7.14205C87.1122 6.98864 86.9006 6.91193 86.6506 6.91193C86.392 6.91193 86.1733 6.98864 85.9943 7.14205C85.8182 7.29545 85.6832 7.50852 85.5895 7.78125C85.4986 8.05398 85.4531 8.37216 85.4531 8.7358C85.4531 9.09375 85.4986 9.40909 85.5895 9.68182C85.6832 9.95455 85.8182 10.1676 85.9943 10.321C86.1733 10.4744 86.392 10.5511 86.6506 10.5511ZM91.0121 12V5.45455H93.0362V6.64773H93.1044C93.2237 6.21591 93.4183 5.89489 93.6882 5.68466C93.9581 5.47159 94.272 5.36506 94.63 5.36506C94.7266 5.36506 94.826 5.37216 94.9283 5.38636C95.0305 5.39773 95.1257 5.41619 95.2138 5.44176V7.25284C95.1143 7.21875 94.9837 7.19176 94.8217 7.17188C94.6626 7.15199 94.5206 7.14205 94.3956 7.14205C94.1484 7.14205 93.9254 7.19744 93.7266 7.30824C93.5305 7.41619 93.3757 7.56818 93.2621 7.7642C93.1513 7.95739 93.0959 8.18466 93.0959 8.44602V12H91.0121ZM97.5362 14.4545C97.2862 14.4545 97.0504 14.4347 96.8288 14.3949C96.6072 14.358 96.4169 14.3082 96.2578 14.2457L96.718 12.733C96.9226 12.8011 97.1072 12.8409 97.272 12.8523C97.4396 12.8636 97.5831 12.8366 97.7024 12.7713C97.8246 12.7088 97.9183 12.5966 97.9837 12.4347L98.0646 12.2386L95.7379 5.45455H97.9197L99.1257 10.125H99.1939L100.417 5.45455H102.612L100.144 12.6264C100.025 12.9844 99.8558 13.2997 99.6371 13.5724C99.4212 13.848 99.1413 14.0639 98.7976 14.2202C98.4567 14.3764 98.0362 14.4545 97.5362 14.4545Z" fill="#6366F1"/>
</svg>
