<svg width="1150" height="1150" viewBox="0 0 1150 1150" fill="none" xmlns="http://www.w3.org/2000/svg">
<rect width="1150" height="1150" rx="200" fill="#141414"/>
<path opacity="0.07" d="M700.3 335.6C702.4 336.8 704.3 339.7 704.6 342.3L751.3 728.6C751.7 731.9 749.7 733.4 747 731.9L492.9 585.2C490.3 583.7 488.2 579.8 488.6 577L535.4 244.7C535.7 242.4 537.5 241.7 539.7 242.9L700.3 335.6Z" fill="url(#paint0_linear_287_1192)"/>
<path opacity="0.4" d="M634.6 341.1C634.6 300.5 610.8 253.8 581.5 236.8C552.2 219.9 528.4 239.1 528.4 279.7L539.9 286.3V286.2C539.9 254.3 558.6 239.2 581.6 252.5C604.6 265.8 623.3 302.5 623.3 334.4V334.5L634.6 341.1Z" fill="url(#paint1_linear_287_1192)"/>
<path opacity="0.4" d="M666.1 363.6C665.8 361 664 358.1 661.8 356.9L501.1 264.1C499 262.9 497.1 263.6 496.8 265.9L450 598.2C449.6 601 451.6 604.9 454.3 606.4L708.5 753.1C711.1 754.6 713.2 753.1 712.8 749.8L666.1 363.6Z" fill="url(#paint2_linear_287_1192)"/>
<path opacity="0.3" d="M522.5 414.4L224.9 242.6L225 397.7L496.3 554.3L522.6 593.2L522.5 414.4Z" fill="url(#paint3_linear_287_1192)"/>
<path d="M193.2 303.1V261L305.5 325.8V367.9L193.2 303.1Z" fill="#14B8A6"/>
<path opacity="0.15" d="M446 408L380.8 370.4V384L446 421.6V408Z" fill="white"/>
<path opacity="0.15" d="M446 435.2L320.3 362.7V376.3L446 448.9V435.2Z" fill="white"/>
<path opacity="0.15" d="M446 462.5L293.7 374.6V388.2L446 476.1V462.5Z" fill="white"/>
<path d="M462 431.4C462 444.2 469.6 458.9 478.9 464.3C488.2 469.7 495.8 463.7 495.8 450.9C495.8 438.1 488.2 423.4 478.9 418C469.6 412.6 462 418.6 462 431.4Z" fill="#14B8A6"/>
<path opacity="0.3" d="M557.2 592.3L854.7 764L854.8 919.1L583.5 762.5L557.3 771.1L557.2 592.3Z" fill="url(#paint4_linear_287_1192)"/>
<path d="M768.2 791.4V749.3L880.5 814.1V856.2L768.2 791.4Z" fill="#6366F1"/>
<path opacity="0.15" d="M633.7 674.2L698.9 711.8V725.4L633.7 687.8V674.2Z" fill="white"/>
<path opacity="0.15" d="M633.7 701.5L751.4 769.4V783L633.7 715.1V701.5Z" fill="white"/>
<path opacity="0.15" d="M633.7 728.7L786 816.6V830.2L633.7 742.3V728.7Z" fill="white"/>
<path d="M617.6 679.1C617.6 691.9 610 697.9 600.7 692.5C591.4 687.1 583.8 672.4 583.8 659.6C583.8 646.8 591.4 640.8 600.7 646.2C610.1 651.6 617.6 666.4 617.6 679.1Z" fill="#6366F1"/>
<path opacity="0.2" d="M245.2 551.7L449 669.3V561.9L245.2 444.3V551.7Z" fill="url(#paint5_linear_287_1192)"/>
<path d="M407.5 571.3C407.5 562.4 412.7 558.3 419.1 561.9C425.5 565.6 430.7 575.8 430.7 584.6C430.7 593.5 425.5 597.6 419.1 594C412.7 590.3 407.5 580.2 407.5 571.3Z" fill="#14B8A6"/>
<path opacity="0.15" d="M397.1 599.8L266.1 524.2V510.6L397.1 586.2V599.8Z" fill="white"/>
<path opacity="0.15" d="M396.7 571.9L337.1 537.5V523.9L396.7 558.3V571.9Z" fill="white"/>
<path opacity="0.2" d="M956.9 694.9L753.2 577.3V684.7L957 802.3L956.9 694.9Z" fill="url(#paint6_linear_287_1192)"/>
<path opacity="0.15" d="M805 633.8L855 662.7V676.3L805 647.4V633.8Z" fill="white"/>
<path opacity="0.15" d="M805.4 660.7L912.9 722.8V736.4L805.4 674.3V660.7Z" fill="white"/>
<path d="M794.6 635.7C794.6 644.6 789.4 648.7 783 645.1C776.6 641.4 771.4 631.2 771.4 622.4C771.4 613.5 776.6 609.4 783 613C789.4 616.6 794.6 626.8 794.6 635.7Z" fill="#6366F1"/>
<path opacity="0.2" d="M436.9 817.3C369.3 730.5 418.2 699.3 436.9 750.1C455.7 721 504.6 808.6 436.9 817.3Z" fill="url(#paint7_linear_287_1192)"/>
<path opacity="0.2" d="M814 413.4C820 416.8 824.8 425.2 824.8 432.1V462.6L845 474.2C851 477.6 855.8 486 855.8 493C855.8 499.9 851 502.7 845 499.3L824.8 487.7V518.2C824.8 525.1 820 527.9 814 524.5C808 521.1 803.2 512.7 803.2 505.7V475.2L783 463.5C777 460.1 772.2 451.7 772.2 444.8C772.2 437.9 777 435.1 783 438.5L803.2 450.1V419.6C803.2 412.7 808 409.9 814 413.4Z" fill="url(#paint8_linear_287_1192)"/>
<defs>
<linearGradient id="paint0_linear_287_1192" x1="761.941" y1="439.117" x2="498.434" y2="546.397" gradientUnits="userSpaceOnUse">
<stop stop-color="white"/>
<stop offset="1" stop-color="white" stop-opacity="0"/>
</linearGradient>
<linearGradient id="paint1_linear_287_1192" x1="606.822" y1="272.968" x2="436.13" y2="427.634" gradientUnits="userSpaceOnUse">
<stop stop-color="white"/>
<stop offset="1" stop-color="white" stop-opacity="0"/>
</linearGradient>
<linearGradient id="paint2_linear_287_1192" x1="723.152" y1="401.353" x2="552.46" y2="556.018" gradientUnits="userSpaceOnUse">
<stop stop-color="white"/>
<stop offset="1" stop-color="white" stop-opacity="0"/>
</linearGradient>
<linearGradient id="paint3_linear_287_1192" x1="457.588" y1="352.257" x2="303.938" y2="472.561" gradientUnits="userSpaceOnUse">
<stop stop-color="white"/>
<stop offset="1" stop-color="white" stop-opacity="0"/>
</linearGradient>
<linearGradient id="paint4_linear_287_1192" x1="685.009" y1="597.297" x2="723.48" y2="909.328" gradientUnits="userSpaceOnUse">
<stop stop-color="white"/>
<stop offset="1" stop-color="white" stop-opacity="0"/>
</linearGradient>
<linearGradient id="paint5_linear_287_1192" x1="323.843" y1="597.092" x2="370.357" y2="516.507" gradientUnits="userSpaceOnUse">
<stop stop-color="white" stop-opacity="0"/>
<stop offset="1" stop-color="white"/>
</linearGradient>
<linearGradient id="paint6_linear_287_1192" x1="878.343" y1="649.532" x2="831.843" y2="730.093" gradientUnits="userSpaceOnUse">
<stop stop-color="white"/>
<stop offset="1" stop-color="white" stop-opacity="0"/>
</linearGradient>
<linearGradient id="paint7_linear_287_1192" x1="451.139" y1="753.387" x2="401.301" y2="796.537" gradientUnits="userSpaceOnUse">
<stop stop-color="white"/>
<stop offset="1" stop-color="white" stop-opacity="0"/>
</linearGradient>
<linearGradient id="paint8_linear_287_1192" x1="834.925" y1="452.391" x2="782.568" y2="493.711" gradientUnits="userSpaceOnUse">
<stop stop-color="white"/>
<stop offset="1" stop-color="white" stop-opacity="0"/>
</linearGradient>
</defs>
</svg>
