<svg width="1150" height="1150" viewBox="0 0 1150 1150" fill="none" xmlns="http://www.w3.org/2000/svg">
<rect width="1150" height="1150" rx="200" fill="#141414"/>
<path opacity="0.07" d="M700.5 767.5C700.5 767.5 826.5 568.5 826.5 431.6C826.5 334.9 770.1 224.1 700.5 184C630.9 143.9 574.5 189.8 574.5 286.5C574.5 422.2 700.5 767.5 700.5 767.5ZM700.5 281.2C731.2 298.9 756.1 347.6 756.1 390.1C756.1 432.6 731.2 452.6 700.5 434.9C669.8 417.2 644.9 368.5 644.9 326C644.9 283.6 669.8 263.5 700.5 281.2Z" fill="url(#paint0_linear_287_1087)"/>
<path opacity="0.4" d="M660.5 797.5C660.5 797.5 786.5 598.5 786.5 461.6C786.5 364.9 730.1 254.1 660.5 214C590.9 173.9 534.5 219.8 534.5 316.5C534.5 452.2 660.5 797.5 660.5 797.5ZM660.5 311.2C691.2 328.9 716.1 377.6 716.1 420.1C716.1 462.6 691.2 482.6 660.5 464.9C629.8 447.2 604.9 398.5 604.9 356C604.9 313.5 629.8 293.5 660.5 311.2Z" fill="url(#paint1_linear_287_1087)"/>
<path opacity="0.3" d="M404 521.8L590.9 629.7V976L404 868.1V521.8Z" fill="url(#paint2_linear_287_1087)"/>
<path opacity="0.15" d="M433.7 742L545 806.3V819.9L433.6 755.6L433.7 742Z" fill="white"/>
<path opacity="0.15" d="M445.2 775.7L533.5 826.6V840.2L445.2 789.3V775.7Z" fill="white"/>
<path d="M475.4 837.3L345.4 762.2V800.9L475.4 876V837.3Z" fill="#6366F1"/>
<path opacity="0.15" d="M496 635.5L457.1 613V599.9L496 622.4C499.2 624.2 503.8 628 507.7 633.7C511.9 639.8 515 647.5 515 655.9C515 665.1 512.6 670.4 508.2 671.9C504 673.3 499 670.9 496 669.1L480 659.9L479.9 659.8C478.5 659 476.3 658.2 474.6 658.7C473.2 659.1 471.6 660.5 471.6 665.7C471.6 670.8 473.2 674 474.5 675.9C476.2 678.2 478.3 679.9 479.7 680.6L479.9 680.7L528.9 709V722.1L480.3 694C477 692.3 472.1 688.6 468 682.7C463.4 676.3 460.3 668.2 460.3 659.1C460.3 650.1 463.4 645.5 467.9 644.2C472.1 643 476.9 644.7 480.2 646.8L496 656C498.3 657.3 500 657.9 501.2 657.5C502.1 657.2 503.7 656 503.7 649.3C503.7 645 502.3 642.2 501 640.3C499.4 638 497.3 636.3 496 635.5Z" fill="white"/>
<path d="M470.9 616.7C470.9 629.6 463.3 635.7 454 630.4C444.7 625 437.1 610.2 437.1 597.2C437.1 584.3 444.7 578.2 454 583.5C463.4 588.9 470.9 603.8 470.9 616.7Z" fill="#6366F1"/>
<path d="M553.9 730.7C553.9 743.6 546.3 749.7 537 744.4C527.7 739 520.1 724.2 520.1 711.2C520.1 698.3 527.7 692.2 537 697.5C546.4 702.9 553.9 717.8 553.9 730.7Z" fill="#6366F1"/>
<path opacity="0.3" d="M517.4 378.1L219.9 206.3L220 361.4L491.3 518L517.6 556.9L517.4 378.1Z" fill="url(#paint3_linear_287_1087)"/>
<path d="M188.2 266.8V224.7L300.5 289.5V331.6L188.2 266.8Z" fill="#14B8A6"/>
<path opacity="0.15" d="M441 371.7L375.8 334V347.6L441 385.2V371.7Z" fill="white"/>
<path opacity="0.15" d="M441 398.9L315.3 326.4V340L441 412.6V398.9Z" fill="white"/>
<path opacity="0.15" d="M441 426.2L288.7 338.3V351.9L441 439.9V426.2Z" fill="white"/>
<path d="M457 395.1C457 407.9 464.6 422.6 473.9 428C483.2 433.4 490.8 427.4 490.8 414.6C490.8 401.8 483.2 387.1 473.9 381.7C464.6 376.4 457 382.4 457 395.1Z" fill="#14B8A6"/>
<path opacity="0.3" d="M637.1 653.1L934.7 824.9L934.8 980L663.5 823.3L637.3 831.9L637.1 653.1Z" fill="url(#paint4_linear_287_1087)"/>
<path d="M848.1 852.2V810.1L960.4 874.9V917L848.1 852.2Z" fill="#14B8A6"/>
<path opacity="0.15" d="M713.7 735L778.9 772.6V786.2L713.7 748.6V735Z" fill="white"/>
<path opacity="0.15" d="M713.7 762.3L831.4 830.2V843.8L713.7 775.9V762.3Z" fill="white"/>
<path opacity="0.15" d="M713.7 789.5L866 877.4V891L713.7 803.1V789.5Z" fill="white"/>
<path d="M697.6 739.9C697.6 752.7 690 758.7 680.7 753.3C671.4 747.9 663.8 733.2 663.8 720.4C663.8 707.6 671.4 701.6 680.7 707C690.1 712.4 697.6 727.2 697.6 739.9Z" fill="#14B8A6"/>
<path opacity="0.2" d="M310.8 630C243.2 543.2 292.1 512 310.8 562.8C329.5 533.7 378.4 621.3 310.8 630Z" fill="url(#paint5_linear_287_1087)"/>
<path opacity="0.2" d="M923.2 692.1L887.7 720.8C883.9 723.9 877 720.7 872.5 713.6C867.9 706.5 867.3 698.3 871.1 695.2L886 683.2L829.2 650.4C823.2 646.9 818.4 638.6 818.4 631.7C818.4 624.8 823.2 622 829.2 625.4L886 658.2L871 628.9C867.2 621.4 867.8 613.9 872.4 612.1C877 610.3 883.8 615 887.6 622.5L923.2 692.1Z" fill="url(#paint6_linear_287_1087)"/>
<defs>
<linearGradient id="paint0_linear_287_1087" x1="922.977" y1="365.725" x2="573.21" y2="507.71" gradientUnits="userSpaceOnUse">
<stop stop-color="white"/>
<stop offset="1" stop-color="white" stop-opacity="0"/>
</linearGradient>
<linearGradient id="paint1_linear_287_1087" x1="882.973" y1="395.725" x2="533.206" y2="537.71" gradientUnits="userSpaceOnUse">
<stop stop-color="white"/>
<stop offset="1" stop-color="white" stop-opacity="0"/>
</linearGradient>
<linearGradient id="paint2_linear_287_1087" x1="610.889" y1="552.318" x2="444.979" y2="839.757" gradientUnits="userSpaceOnUse">
<stop stop-color="white"/>
<stop offset="1" stop-color="white" stop-opacity="0"/>
</linearGradient>
<linearGradient id="paint3_linear_287_1087" x1="452.562" y1="315.971" x2="298.911" y2="436.275" gradientUnits="userSpaceOnUse">
<stop stop-color="white"/>
<stop offset="1" stop-color="white" stop-opacity="0"/>
</linearGradient>
<linearGradient id="paint4_linear_287_1087" x1="764.979" y1="658.103" x2="803.45" y2="970.134" gradientUnits="userSpaceOnUse">
<stop stop-color="white"/>
<stop offset="1" stop-color="white" stop-opacity="0"/>
</linearGradient>
<linearGradient id="paint5_linear_287_1087" x1="325.025" y1="566.118" x2="275.188" y2="609.269" gradientUnits="userSpaceOnUse">
<stop stop-color="white"/>
<stop offset="1" stop-color="white" stop-opacity="0"/>
</linearGradient>
<linearGradient id="paint6_linear_287_1087" x1="907.766" y1="685.902" x2="811.979" y2="621.589" gradientUnits="userSpaceOnUse">
<stop stop-color="white"/>
<stop offset="1" stop-color="white" stop-opacity="0"/>
</linearGradient>
</defs>
</svg>
