<svg width="1150" height="1150" viewBox="0 0 1150 1150" fill="none" xmlns="http://www.w3.org/2000/svg">
<rect width="1150" height="1150" rx="200" fill="#141414"/>
<path opacity="0.2" d="M451.9 487.7L284.9 391.3V478.3L451.9 574.7V487.7Z" fill="url(#paint0_linear_287_1559)"/>
<path d="M318.8 440.1C318.8 447.3 314.6 450.6 309.3 447.6C304.1 444.6 299.8 436.3 299.8 429.1C299.8 421.9 304 418.6 309.3 421.6C314.6 424.6 318.8 432.9 318.8 440.1Z" fill="#6366F1"/>
<path opacity="0.15" d="M327.6 434.3L388.5 469.4V483L327.6 448V434.3Z" fill="white"/>
<path opacity="0.15" d="M327.7 463.5L434.7 525.2V538.8L327.7 477.1V463.5Z" fill="white"/>
<path opacity="0.07" d="M583.1 206.8L770.3 314.9V718.1L583.1 610.1V206.8Z" fill="url(#paint1_linear_287_1559)"/>
<path opacity="0.3" d="M539.8 243.2L727 351.3V754.5L539.8 646.5V243.2Z" fill="url(#paint2_linear_287_1559)"/>
<path opacity="0.15" d="M557.9 467.9L708.3 554.7V568.3L557.9 481.5V467.9Z" fill="white"/>
<path opacity="0.15" d="M568.4 501L697.7 575.7V589.3L568.4 514.6V501Z" fill="white"/>
<path d="M490.9 554V509L601.4 572.8V617.8L490.9 554Z" fill="#14B8A6"/>
<path opacity="0.2" d="M876.4 544.4C867.8 530.7 855.9 528.9 855.4 528.8C854.2 528.6 853.5 529.7 853.5 531.3V567.5C853.5 579.8 849.3 587.7 841 591.1C840.2 591.4 839.7 592.3 839.7 593.5C839.7 610.9 840 685.6 840.1 708.9C840.1 712.8 842.8 717.4 846.1 719.3C863.9 729.6 915 759.1 915 759.1C928.6 767 937.3 762.1 938.8 745.9L938.9 674.2C938.9 663.3 937 652.1 931 642.8C927.6 637.5 923.6 633.4 919.4 631L884.5 610.9V577.3C884.6 564.1 881.8 553.1 876.4 544.4Z" fill="url(#paint3_linear_287_1559)"/>
<path d="M793 562.6L832 585.1V712.7L793 690.2V562.6Z" fill="#6366F1"/>
<path opacity="0.3" d="M507.6 319.8L210 148L210.1 303.1L481.4 459.7L507.7 498.6L507.6 319.8Z" fill="url(#paint4_linear_287_1559)"/>
<path opacity="0.15" d="M431.1 313.3L365.9 275.7V289.3L431.1 326.9V313.3Z" fill="white"/>
<path opacity="0.15" d="M431.1 340.6L269.6 247.4V261L431.1 354.2V340.6Z" fill="white"/>
<path opacity="0.15" d="M431.1 367.9L236.3 255.4V269L431.1 381.5V367.9Z" fill="white"/>
<path d="M447.1 336.8C447.1 349.6 454.7 364.3 464 369.7C473.3 375.1 480.9 369.1 480.9 356.3C480.9 343.5 473.3 328.8 464 323.4C454.7 318 447.1 324 447.1 336.8Z" fill="#14B8A6"/>
<path opacity="0.3" d="M635.9 674.3L933.5 846.1L933.6 1001.2L662.2 844.6L636 853.2L635.9 674.3Z" fill="url(#paint5_linear_287_1559)"/>
<path opacity="0.15" d="M712.4 756.3L777.6 793.9V807.5L712.4 769.9V756.3Z" fill="white"/>
<path opacity="0.15" d="M712.4 783.5L830.1 851.4V865L712.4 797.1V783.5Z" fill="white"/>
<path opacity="0.15" d="M712.4 810.8L864.7 898.7V912.3L712.4 824.4V810.8Z" fill="white"/>
<path d="M696.4 761.2C696.4 774 688.8 780 679.5 774.6C670.2 769.2 662.6 754.5 662.6 741.7C662.6 728.9 670.2 722.9 679.5 728.3C688.8 733.7 696.3 748.4 696.4 761.2Z" fill="#6366F1"/>
<path opacity="0.2" d="M532.9 647.7C538.9 651.1 543.7 659.5 543.7 666.4V696.9L563.9 708.5C569.9 711.9 574.7 720.3 574.7 727.2C574.7 734.1 569.9 736.9 563.9 733.5L543.7 721.9V752.4C543.7 759.3 538.9 762.1 532.9 758.7C526.9 755.3 522.1 746.9 522.1 740V709.5L501.9 697.9C495.9 694.5 491.1 686.1 491.1 679.2C491.1 672.3 495.9 669.5 501.9 672.9L522.1 684.5V654C522 647.1 526.9 644.2 532.9 647.7Z" fill="url(#paint6_linear_287_1559)"/>
<path opacity="0.05" d="M633 453C547.2 341.4 609.3 301 633 366.4C656.8 328.8 718.8 441.5 633 453Z" fill="url(#paint7_linear_287_1559)"/>
<path opacity="0.3" d="M613 473C527.2 361.4 589.3 321 613 386.4C636.8 348.8 698.8 461.5 613 473Z" fill="white"/>
<defs>
<linearGradient id="paint0_linear_287_1559" x1="387.192" y1="450.405" x2="349.526" y2="515.66" gradientUnits="userSpaceOnUse">
<stop stop-color="white"/>
<stop offset="1" stop-color="white" stop-opacity="0"/>
</linearGradient>
<linearGradient id="paint1_linear_287_1559" x1="785.426" y1="274.134" x2="596.627" y2="601.23" gradientUnits="userSpaceOnUse">
<stop stop-color="white"/>
<stop offset="1" stop-color="white" stop-opacity="0"/>
</linearGradient>
<linearGradient id="paint2_linear_287_1559" x1="742.155" y1="310.535" x2="553.357" y2="637.63" gradientUnits="userSpaceOnUse">
<stop stop-color="white"/>
<stop offset="1" stop-color="white" stop-opacity="0"/>
</linearGradient>
<linearGradient id="paint3_linear_287_1559" x1="852.37" y1="631.464" x2="977.676" y2="679.42" gradientUnits="userSpaceOnUse">
<stop stop-color="white"/>
<stop offset="1" stop-color="white" stop-opacity="0"/>
</linearGradient>
<linearGradient id="paint4_linear_287_1559" x1="442.677" y1="257.642" x2="289.027" y2="377.946" gradientUnits="userSpaceOnUse">
<stop stop-color="white"/>
<stop offset="1" stop-color="white" stop-opacity="0"/>
</linearGradient>
<linearGradient id="paint5_linear_287_1559" x1="763.697" y1="679.362" x2="802.169" y2="991.393" gradientUnits="userSpaceOnUse">
<stop stop-color="white"/>
<stop offset="1" stop-color="white" stop-opacity="0"/>
</linearGradient>
<linearGradient id="paint6_linear_287_1559" x1="553.749" y1="686.677" x2="501.391" y2="727.997" gradientUnits="userSpaceOnUse">
<stop stop-color="white"/>
<stop offset="1" stop-color="white" stop-opacity="0"/>
</linearGradient>
<linearGradient id="paint7_linear_287_1559" x1="651.338" y1="370.906" x2="587.237" y2="425.715" gradientUnits="userSpaceOnUse">
<stop stop-color="white"/>
<stop offset="1" stop-color="white" stop-opacity="0"/>
</linearGradient>
</defs>
</svg>
