<svg width="1150" height="1150" viewBox="0 0 1150 1150" fill="none" xmlns="http://www.w3.org/2000/svg">
<rect width="1150" height="1150" rx="200" fill="black"/>
<path opacity="0.3" d="M631.9 475.2L929.5 647.1V802.2L658.2 645.4L632 654L631.9 475.2Z" fill="url(#paint0_linear_287_1361)"/>
<path d="M692.4 562.1C692.4 574.9 684.8 580.9 675.5 575.5C666.2 570.1 658.6 555.4 658.6 542.6C658.6 529.8 666.2 523.8 675.5 529.2C684.8 534.5 692.4 549.3 692.4 562.1Z" fill="#14B8A6"/>
<path opacity="0.15" d="M708.4 557.1L773.6 594.8V608.4L708.4 570.7V557.1Z" fill="white"/>
<path opacity="0.15" d="M708.4 584.4L903.1 696.9V710.5L708.4 598V584.4Z" fill="white"/>
<path opacity="0.15" d="M708.4 611.6L860.7 699.6V713.2L708.4 625.2V611.6Z" fill="white"/>
<path opacity="0.3" d="M415.7 268.3L583.3 365V675.5L415.7 578.8V268.3Z" fill="url(#paint1_linear_287_1361)"/>
<path opacity="0.15" d="M432.2 452.6L566.8 530.3V543.9L432.2 466.2V452.6Z" fill="white"/>
<path opacity="0.15" d="M441.6 484.5L557.3 551.3V564.9L441.6 498.1V484.5Z" fill="white"/>
<path d="M490.5 540.1L373.9 472.8V507.5L490.5 574.8V540.1Z" fill="#6366F1"/>
<path d="M518.6 390.3C518.6 405.3 509.9 412.4 499.2 406.2C488.5 400 479.8 382.7 479.8 367.6C479.8 352.6 488.5 345.5 499.2 351.7C509.9 358.1 518.6 375.3 518.6 390.3Z" fill="#6366F1"/>
<path d="M499.2 418.3C481.9 408.2 467.6 417.7 465.1 439.4C464.7 443.2 467.5 448.2 471 450.2L527.4 483.2C530.9 485.2 533.7 483.6 533.3 479.3C530.8 454.6 516.5 428.4 499.2 418.3Z" fill="#6366F1"/>
<path opacity="0.3" d="M532 640.2L699.6 736.9V1047.4L532 950.7V640.2Z" fill="url(#paint2_linear_287_1361)"/>
<path opacity="0.15" d="M548.4 824.5L683 902.2V915.8L548.4 838.1V824.5Z" fill="white"/>
<path opacity="0.15" d="M557.8 856.4L673.5 923.2V936.8L557.8 870V856.4Z" fill="white"/>
<path d="M741.1 989.5L624.5 922.2V956.9L741.1 1024.2V989.5Z" fill="#14B8A6"/>
<path d="M634.8 762.2C634.8 777.2 626.1 784.3 615.4 778.1C604.7 771.8 596 754.6 596 739.5C596 724.5 604.7 717.4 615.4 723.6C626.1 729.9 634.8 747.2 634.8 762.2Z" fill="#14B8A6"/>
<path d="M615.4 790.2C598.1 780.1 583.8 789.6 581.3 811.3C580.9 815.1 583.7 820.1 587.2 822.1L643.6 855.1C647.1 857.1 649.9 855.5 649.5 851.2C647 826.5 632.7 800.3 615.4 790.2Z" fill="#14B8A6"/>
<path opacity="0.3" d="M483.5 613.1L185.9 441.2V596.3L457.3 753L483.6 791.9L483.5 613.1Z" fill="url(#paint3_linear_287_1361)"/>
<path d="M423 630.1C423 642.9 430.6 657.6 439.9 663C449.2 668.4 456.8 662.4 456.8 649.6C456.8 636.8 449.2 622.1 439.9 616.7C430.6 611.3 423 617.3 423 630.1Z" fill="#6366F1"/>
<path opacity="0.15" d="M407 606.6L341.8 569V582.6L407 620.3V606.6Z" fill="white"/>
<path opacity="0.15" d="M407 633.9L212.3 521.4V535L407 647.5V633.9Z" fill="white"/>
<path opacity="0.15" d="M407 661.2L254.7 573.2V586.8L407 674.8V661.2Z" fill="white"/>
<path opacity="0.4" d="M923.9 230.3C755.1 132.8 617.1 248.3 617.1 490.7L574 465.8C574.1 192 730.2 58.8 923.9 170.6V230.3Z" fill="url(#paint4_linear_287_1361)"/>
<path opacity="0.4" d="M783.1 586.7C783.1 479.1 846.1 428.2 923.8 473V413.3C822.3 354.7 740 421.2 740 561.8L783.1 586.7Z" fill="url(#paint5_linear_287_1361)"/>
<path opacity="0.4" d="M699.1 537.1C699.1 365.3 799.7 284.1 923.6 355.7V296C775.9 210.7 656 307.5 656 512.2L699.1 537.1Z" fill="url(#paint6_linear_287_1361)"/>
<path opacity="0.4" d="M882.9 644.2C905.5 657.3 923.8 642.4 923.8 611.1C923.8 579.8 905.5 543.8 882.9 530.7C860.3 517.6 842 532.5 842 563.8C842 595.2 860.3 631.1 882.9 644.2Z" fill="url(#paint7_linear_287_1361)"/>
<path opacity="0.07" d="M963.9 201.3C795 103.8 657.1 219.3 657.1 461.7L614 436.8C614.1 163 770.2 29.8 963.9 141.6V201.3Z" fill="url(#paint8_linear_287_1361)"/>
<path opacity="0.07" d="M823.1 557.7C823.1 450.1 886.1 399.2 963.8 444V384.3C862.3 325.7 780 392.2 780 532.8L823.1 557.7Z" fill="url(#paint9_linear_287_1361)"/>
<path opacity="0.07" d="M739.1 508.1C739.1 336.3 839.7 255.1 963.6 326.7V267C815.9 181.7 696 278.5 696 483.2L739.1 508.1Z" fill="url(#paint10_linear_287_1361)"/>
<path opacity="0.07" d="M922.9 615.2C945.5 628.3 963.8 613.4 963.8 582.1C963.8 550.8 945.5 514.8 922.9 501.7C900.3 488.6 882 503.5 882 534.8C882 566.2 900.3 602.1 922.9 615.2Z" fill="url(#paint11_linear_287_1361)"/>
<path opacity="0.2" d="M791.9 770.5C797.9 773.9 802.7 782.3 802.7 789.2V819.7L822.9 831.3C828.9 834.7 833.7 843.1 833.7 850.1C833.7 857 828.9 859.8 822.9 856.4L802.7 844.8V875.3C802.7 882.2 797.9 885 791.9 881.6C785.9 878.2 781.1 869.8 781.1 862.8V832.3L760.9 820.7C754.9 817.3 750.1 808.9 750.1 802C750.1 795.1 754.9 792.3 760.9 795.7L781.1 807.3V776.8C781.1 769.9 785.9 767.1 791.9 770.5Z" fill="url(#paint12_linear_287_1361)"/>
<path opacity="0.2" d="M315.4 334.9L343.2 389.5C347 397 346.4 404.5 341.8 406.3C337.2 408.1 330.4 403.4 326.6 395.9L326.3 395.2V455.8C326.3 462.7 321.5 465.5 315.5 462.1C309.5 458.6 304.7 450.3 304.7 443.4V382.8L304.4 383.1C300.6 386.2 293.7 383 289.2 375.9C284.6 368.8 284 360.6 287.8 357.5L315.4 334.9Z" fill="url(#paint13_linear_287_1361)"/>
<defs>
<linearGradient id="paint0_linear_287_1361" x1="759.831" y1="480.249" x2="798.106" y2="792.272" gradientUnits="userSpaceOnUse">
<stop stop-color="white"/>
<stop offset="1" stop-color="white" stop-opacity="0"/>
</linearGradient>
<linearGradient id="paint1_linear_287_1361" x1="601.249" y1="295.622" x2="452.481" y2="553.363" gradientUnits="userSpaceOnUse">
<stop stop-color="white"/>
<stop offset="1" stop-color="white" stop-opacity="0"/>
</linearGradient>
<linearGradient id="paint2_linear_287_1361" x1="717.457" y1="667.499" x2="568.689" y2="925.24" gradientUnits="userSpaceOnUse">
<stop stop-color="white"/>
<stop offset="1" stop-color="white" stop-opacity="0"/>
</linearGradient>
<linearGradient id="paint3_linear_287_1361" x1="418.574" y1="550.899" x2="264.914" y2="671.152" gradientUnits="userSpaceOnUse">
<stop stop-color="white"/>
<stop offset="1" stop-color="white" stop-opacity="0"/>
</linearGradient>
<linearGradient id="paint4_linear_287_1361" x1="864.437" y1="124.904" x2="615.786" y2="415.041" gradientUnits="userSpaceOnUse">
<stop stop-color="white"/>
<stop offset="1" stop-color="white" stop-opacity="0"/>
</linearGradient>
<linearGradient id="paint5_linear_287_1361" x1="1017.6" y1="256.282" x2="768.949" y2="546.419" gradientUnits="userSpaceOnUse">
<stop stop-color="white"/>
<stop offset="1" stop-color="white" stop-opacity="0"/>
</linearGradient>
<linearGradient id="paint6_linear_287_1361" x1="942.608" y1="191.028" x2="693.957" y2="481.165" gradientUnits="userSpaceOnUse">
<stop stop-color="white"/>
<stop offset="1" stop-color="white" stop-opacity="0"/>
</linearGradient>
<linearGradient id="paint7_linear_287_1361" x1="1103.67" y1="329.896" x2="855.019" y2="620.033" gradientUnits="userSpaceOnUse">
<stop stop-color="white"/>
<stop offset="1" stop-color="white" stop-opacity="0"/>
</linearGradient>
<linearGradient id="paint8_linear_287_1361" x1="904.436" y1="95.9042" x2="655.784" y2="386.042" gradientUnits="userSpaceOnUse">
<stop stop-color="white"/>
<stop offset="1" stop-color="white" stop-opacity="0"/>
</linearGradient>
<linearGradient id="paint9_linear_287_1361" x1="1057.6" y1="227.283" x2="808.948" y2="517.42" gradientUnits="userSpaceOnUse">
<stop stop-color="white"/>
<stop offset="1" stop-color="white" stop-opacity="0"/>
</linearGradient>
<linearGradient id="paint10_linear_287_1361" x1="982.607" y1="162.028" x2="733.956" y2="452.165" gradientUnits="userSpaceOnUse">
<stop stop-color="white"/>
<stop offset="1" stop-color="white" stop-opacity="0"/>
</linearGradient>
<linearGradient id="paint11_linear_287_1361" x1="1143.67" y1="300.895" x2="895.019" y2="591.032" gradientUnits="userSpaceOnUse">
<stop stop-color="white"/>
<stop offset="1" stop-color="white" stop-opacity="0"/>
</linearGradient>
<linearGradient id="paint12_linear_287_1361" x1="812.806" y1="809.52" x2="760.448" y2="850.84" gradientUnits="userSpaceOnUse">
<stop stop-color="white"/>
<stop offset="1" stop-color="white" stop-opacity="0"/>
</linearGradient>
<linearGradient id="paint13_linear_287_1361" x1="335.214" y1="389.944" x2="284.493" y2="418.218" gradientUnits="userSpaceOnUse">
<stop stop-color="white"/>
<stop offset="1" stop-color="white" stop-opacity="0"/>
</linearGradient>
</defs>
</svg>
