<svg width="1150" height="1150" viewBox="0 0 1150 1150" fill="none" xmlns="http://www.w3.org/2000/svg">
<rect width="1150" height="1150" rx="200" fill="#141414"/>
<path opacity="0.5" d="M582.3 405.8C519.4 369.1 467.4 403.4 458.2 482.6C456.6 496.3 467 514.4 479.7 521.8L684.9 641.6C697.6 649 708 643 706.4 627.4C697.2 537.7 645.1 442.5 582.3 405.8Z" fill="url(#paint0_linear_287_1331)"/>
<path opacity="0.5" d="M652.4 303C652.4 357.7 620.8 383.5 581.8 360.7C542.8 337.9 511.2 275.2 511.2 220.5C511.2 165.8 542.8 140 581.8 162.8C620.8 185.6 652.4 248.3 652.4 303Z" fill="url(#paint1_linear_287_1331)"/>
<path opacity="0.07" d="M622.7 373C559.8 336.3 507.8 370.6 498.6 449.8C497 463.5 507.4 481.6 520.1 489L725.3 608.8C738 616.2 748.4 610.2 746.8 594.6C737.6 504.9 685.6 409.7 622.7 373Z" fill="url(#paint2_linear_287_1331)"/>
<path opacity="0.07" d="M692.8 270.2C692.8 324.9 661.2 350.7 622.2 327.9C583.2 305.1 551.6 242.4 551.6 187.7C551.6 133 583.2 107.2 622.2 130C661.2 152.8 692.8 215.5 692.8 270.2Z" fill="url(#paint3_linear_287_1331)"/>
<path opacity="0.2" d="M828.7 681.9L651 579.3V671.9L828.7 774.5V681.9Z" fill="url(#paint4_linear_287_1331)"/>
<path d="M687.1 631.2C687.1 638.8 682.6 642.4 677 639.2C671.4 636 666.9 627.2 666.9 619.6C666.9 612 671.4 608.4 677 611.6C682.6 614.8 687.1 623.6 687.1 631.2Z" fill="#6366F1"/>
<path opacity="0.15" d="M696.5 627.9L749.9 658.8V669.9L696.4 639L696.5 627.9Z" fill="white"/>
<path opacity="0.15" d="M696.5 650.2L810.3 715.9V727.2L696.5 661.5V650.2Z" fill="white"/>
<path opacity="0.2" d="M467.7 574.9L290 472.4V565L467.7 667.6V574.9Z" fill="url(#paint5_linear_287_1331)"/>
<path d="M326.1 524.2C326.1 531.8 321.6 535.4 316 532.2C310.4 529 305.9 520.2 305.9 512.6C305.9 505 310.4 501.4 316 504.6C321.6 507.8 326.1 516.6 326.1 524.2Z" fill="#14B8A6"/>
<path opacity="0.15" d="M335.2 521.4L367.4 540V551.3L335.2 532.7V521.4Z" fill="white"/>
<path opacity="0.15" d="M335.5 543.7L449.3 609.4V620.7L335.5 555V543.7Z" fill="white"/>
<path opacity="0.3" d="M582.2 677.3L918.9 871.7L919 1047.2L612 870L582.3 879.7L582.2 677.3Z" fill="url(#paint6_linear_287_1331)"/>
<path d="M650.6 775.6C650.6 790.1 642.1 796.8 631.5 790.7C620.9 784.6 612.4 767.9 612.4 753.5C612.4 739 620.9 732.3 631.5 738.4C642 744.5 650.6 761.2 650.6 775.6Z" fill="#6366F1"/>
<path opacity="0.15" d="M668.8 770L742.6 812.6V828L668.8 785.4V770Z" fill="white"/>
<path opacity="0.15" d="M668.8 800.9L889.2 928.1V943.5L668.8 816.3V800.9Z" fill="white"/>
<path opacity="0.15" d="M668.8 831.8L841.1 931.3V946.7L668.8 847.2V831.8Z" fill="white"/>
<path opacity="0.3" d="M536.7 727.7L200 533.4L200.1 708.9L507.1 886.1L536.8 930.1L536.7 727.7Z" fill="url(#paint7_linear_287_1331)"/>
<path d="M468.3 747C468.3 761.5 476.9 778.1 487.4 784.2C498 790.3 506.5 783.5 506.5 769C506.5 754.5 497.9 737.9 487.4 731.8C476.9 725.8 468.3 732.6 468.3 747Z" fill="#14B8A6"/>
<path opacity="0.15" d="M450.1 720.5L376.3 677.9V693.3L450.1 735.9V720.5Z" fill="white"/>
<path opacity="0.15" d="M450.2 751.3L229.8 624.1V639.5L450.1 766.7L450.2 751.3Z" fill="white"/>
<path opacity="0.15" d="M450.2 782.2L277.9 682.7V698.1L450.2 797.6V782.2Z" fill="white"/>
<path opacity="0.2" d="M340.2 837C346.2 840.4 351 848.8 351 855.8V886.3L371.2 897.9C377.2 901.3 382 909.7 382 916.6C382 923.5 377.2 926.3 371.2 922.9L351 911.2V941.7C351 948.6 346.2 951.4 340.2 948C334.2 944.6 329.4 936.2 329.4 929.3V898.8L309.2 887.2C303.2 883.8 298.4 875.4 298.4 868.5C298.4 861.6 303.2 858.8 309.2 862.2L329.4 873.8V843.3C329.3 836.3 334.2 833.5 340.2 837Z" fill="url(#paint8_linear_287_1331)"/>
<path opacity="0.2" d="M774.7 446.3L802.5 500.9C806.3 508.4 805.7 515.9 801.1 517.7C796.5 519.5 789.7 514.8 785.9 507.3L785.6 506.6V567.2C785.6 574.1 780.8 576.9 774.8 573.5C768.8 570 764 561.7 764 554.8V494.2L763.7 494.5C759.9 497.6 753 494.4 748.5 487.3C743.9 480.2 743.3 472 747.1 468.9L774.7 446.3Z" fill="url(#paint9_linear_287_1331)"/>
<path opacity="0.2" d="M536.7 543.91L493.9 519.21V504.81L536.7 529.51C540.2 531.51 545.3 535.61 549.6 541.91C554.3 548.61 557.6 557.11 557.6 566.31C557.6 576.51 555 582.31 550.1 583.91C545.5 585.41 540 582.81 536.7 580.91L519.1 570.71L519 570.61C517.5 569.71 515.1 568.81 513.2 569.41C511.6 569.91 509.9 571.41 509.9 577.11C509.9 582.81 511.7 586.21 513.1 588.31C514.9 590.91 517.3 592.71 518.8 593.51L519 593.61L572.8 624.71V639.11L519.3 608.21C515.6 606.31 510.3 602.21 505.7 595.81C500.7 588.71 497.3 579.81 497.3 569.91C497.3 560.01 500.7 555.01 505.6 553.61C510.2 552.31 515.5 554.21 519.2 556.41L536.6 566.51C539.1 568.01 541 568.61 542.3 568.21C543.3 567.91 545.1 566.51 545.1 559.21C545.1 554.41 543.6 551.31 542.1 549.31C540.4 546.61 538.2 544.71 536.7 543.91Z" fill="white"/>
<path d="M501.8 516.11C501.8 529.01 494.2 535.11 484.9 529.81C475.6 524.41 468 509.61 468 496.61C468 483.71 475.6 477.61 484.9 482.91C494.2 488.31 501.8 503.21 501.8 516.11Z" fill="#14B8A6"/>
<path d="M594.8 644.11C594.8 657.01 587.2 663.11 577.9 657.81C568.6 652.41 561 637.61 561 624.61C561 611.71 568.6 605.61 577.9 610.91C587.2 616.31 594.8 631.21 594.8 644.11Z" fill="#6366F1"/>
<defs>
<linearGradient id="paint0_linear_287_1331" x1="841.776" y1="345.952" x2="586.331" y2="532.291" gradientUnits="userSpaceOnUse">
<stop stop-color="white"/>
<stop offset="1" stop-color="white" stop-opacity="0"/>
</linearGradient>
<linearGradient id="paint1_linear_287_1331" x1="711.597" y1="167.086" x2="456.153" y2="353.425" gradientUnits="userSpaceOnUse">
<stop stop-color="white"/>
<stop offset="1" stop-color="white" stop-opacity="0"/>
</linearGradient>
<linearGradient id="paint2_linear_287_1331" x1="882.193" y1="313.14" x2="626.748" y2="499.479" gradientUnits="userSpaceOnUse">
<stop stop-color="white"/>
<stop offset="1" stop-color="white" stop-opacity="0"/>
</linearGradient>
<linearGradient id="paint3_linear_287_1331" x1="752.014" y1="134.273" x2="496.57" y2="320.612" gradientUnits="userSpaceOnUse">
<stop stop-color="white"/>
<stop offset="1" stop-color="white" stop-opacity="0"/>
</linearGradient>
<linearGradient id="paint4_linear_287_1331" x1="759.877" y1="642.186" x2="719.793" y2="711.633" gradientUnits="userSpaceOnUse">
<stop stop-color="white"/>
<stop offset="1" stop-color="white" stop-opacity="0"/>
</linearGradient>
<linearGradient id="paint5_linear_287_1331" x1="398.878" y1="535.199" x2="358.794" y2="604.646" gradientUnits="userSpaceOnUse">
<stop stop-color="white"/>
<stop offset="1" stop-color="white" stop-opacity="0"/>
</linearGradient>
<linearGradient id="paint6_linear_287_1331" x1="726.821" y1="683.013" x2="770.355" y2="1036.11" gradientUnits="userSpaceOnUse">
<stop stop-color="white"/>
<stop offset="1" stop-color="white" stop-opacity="0"/>
</linearGradient>
<linearGradient id="paint7_linear_287_1331" x1="463.281" y1="657.421" x2="289.408" y2="793.559" gradientUnits="userSpaceOnUse">
<stop stop-color="white"/>
<stop offset="1" stop-color="white" stop-opacity="0"/>
</linearGradient>
<linearGradient id="paint8_linear_287_1331" x1="361.055" y1="875.955" x2="308.697" y2="917.275" gradientUnits="userSpaceOnUse">
<stop stop-color="white"/>
<stop offset="1" stop-color="white" stop-opacity="0"/>
</linearGradient>
<linearGradient id="paint9_linear_287_1331" x1="794.461" y1="501.38" x2="743.74" y2="529.654" gradientUnits="userSpaceOnUse">
<stop stop-color="white"/>
<stop offset="1" stop-color="white" stop-opacity="0"/>
</linearGradient>
</defs>
</svg>
