<svg width="1150" height="1150" viewBox="0 0 1150 1150" fill="none" xmlns="http://www.w3.org/2000/svg">
<rect width="1150" height="1150" rx="200" fill="#141414"/>
<path opacity="0.4" d="M823.3 425.3C861.9 447.6 893.2 422.3 893.3 368.8C893.3 315.3 862 253.8 823.4 231.5C784.8 209.2 753.5 234.5 753.4 288C753.4 299.8 754.9 311.9 757.7 323.9L615.4 377C602.8 352.7 585.5 332.2 566.5 321.2C527.9 298.9 496.6 324.2 496.5 377.7C496.5 431.2 527.8 492.7 566.4 515C584.7 525.6 601.4 525.4 613.9 516.7L753.4 729.8C753.4 731.1 753.3 732.3 753.3 733.6C753.3 787.1 784.6 848.6 823.2 870.9C861.8 893.2 893.1 867.9 893.2 814.4C893.2 760.9 861.9 699.4 823.3 677.1C797.9 662.5 775.7 668.4 763.4 689.3L632.3 489C635 480.3 636.4 470.1 636.4 458.5C636.4 447.9 635.2 437.1 632.9 426.3L776.2 372.8C788.6 395.7 805.2 414.8 823.3 425.3Z" fill="url(#paint0_linear_287_1276)"/>
<path opacity="0.07" d="M932.9 338.4C932.9 391.9 901.6 417.2 862.9 394.9C824.3 372.6 793 311.2 793 257.6C793 204.1 824.3 178.8 863 201.1C901.6 223.4 932.9 284.9 932.9 338.4Z" fill="url(#paint1_linear_287_1276)"/>
<path opacity="0.07" d="M675.9 426.4C675.9 479.9 644.6 505.2 605.9 482.9C567.3 460.6 536 399.1 536 345.6C536 292.1 567.3 266.8 606 289.1C644.6 311.4 675.9 372.9 675.9 426.4Z" fill="url(#paint2_linear_287_1276)"/>
<path opacity="0.07" d="M933.9 784.4C933.9 837.9 902.6 863.2 863.9 840.9C825.3 818.6 794 757.1 794 703.6C794 650.1 825.3 624.8 864 647.1C902.6 669.4 933.9 730.9 933.9 784.4Z" fill="url(#paint3_linear_287_1276)"/>
<path opacity="0.2" d="M342 619L540.6 733.7L540.7 910.5L342.1 795.8L342 619Z" fill="url(#paint4_linear_287_1276)"/>
<path opacity="0.15" d="M342 619L441.4 782.4L540.7 733.6L342 619Z" fill="url(#paint5_linear_287_1276)"/>
<path d="M458.5 786.2C458.5 798.7 451 804.4 441.6 799C432.3 793.6 424.7 779.1 424.7 766.7C424.7 754.2 432.2 748.5 441.6 753.9C451 759.3 458.5 773.8 458.5 786.2Z" fill="#14B8A6"/>
<path opacity="0.3" d="M545.5 532.7L248 361.1L248.1 512.4L519.4 668.9L545.7 707.2L545.5 532.7Z" fill="url(#paint6_linear_287_1276)"/>
<path d="M216.3 419.7V378.6L328.6 443.4V484.5L216.3 419.7Z" fill="#14B8A6"/>
<path opacity="0.15" d="M469 525.4L403.8 487.8V501.1L469 538.7V525.4Z" fill="white"/>
<path opacity="0.15" d="M469.1 552L343.4 479.5V492.8L469.1 565.3V552Z" fill="white"/>
<path opacity="0.15" d="M469.1 578.6L316.8 490.8V504.1L469.1 591.9V578.6Z" fill="white"/>
<path d="M485.1 548.5C485.1 561 492.7 575.4 502 580.8C511.3 586.2 518.9 580.4 518.9 568C518.9 555.5 511.3 541.1 502 535.7C492.6 530.3 485.1 536.1 485.1 548.5Z" fill="#14B8A6"/>
<path opacity="0.3" d="M572.5 633.9L870 805.5L870.1 956.8L598.8 800.3L572.6 808.3L572.5 633.9Z" fill="url(#paint7_linear_287_1276)"/>
<path d="M783.5 831V789.9L895.8 854.7V895.8L783.5 831Z" fill="#6366F1"/>
<path opacity="0.15" d="M649 714.8L714.2 752.4V765.7L649 728.1V714.8Z" fill="white"/>
<path opacity="0.15" d="M649 741.4L766.7 809.3V822.6L649 754.8V741.4Z" fill="white"/>
<path opacity="0.15" d="M649 768.1L801.3 855.9V869.2L649 781.4V768.1Z" fill="white"/>
<path d="M633 719.4C633 731.9 625.5 737.6 616.1 732.2C606.8 726.8 599.2 712.3 599.2 699.9C599.2 687.4 606.7 681.7 616.1 687.1C625.4 692.5 632.9 707 633 719.4Z" fill="#6366F1"/>
<path opacity="0.2" d="M411.2 329.6L368.4 304.9V290.5L411.2 315.2C414.7 317.2 419.8 321.3 424.1 327.6C428.8 334.3 432.1 342.8 432.1 352C432.1 362.2 429.5 368 424.6 369.6C420 371.1 414.5 368.5 411.2 366.6L393.6 356.4L393.5 356.3C392 355.4 389.6 354.5 387.7 355.1C386.1 355.6 384.4 357.1 384.4 362.8C384.4 368.5 386.2 371.9 387.6 374C389.4 376.6 391.8 378.4 393.3 379.2L393.5 379.3L447.3 410.4V424.8L393.8 393.9C390.1 392 384.8 387.9 380.2 381.5C375.2 374.4 371.8 365.5 371.8 355.6C371.8 345.7 375.2 340.7 380.1 339.3C384.7 338 390 339.9 393.7 342.1L411.1 352.2C413.6 353.7 415.5 354.3 416.8 353.9C417.8 353.6 419.6 352.2 419.6 344.9C419.6 340.1 418.1 337 416.6 335C414.9 332.3 412.7 330.4 411.2 329.6Z" fill="white"/>
<path d="M376.3 301.8C376.3 314.7 368.7 320.8 359.4 315.5C350.1 310.1 342.5 295.3 342.5 282.3C342.5 269.4 350.1 263.3 359.4 268.6C368.7 274 376.3 288.9 376.3 301.8Z" fill="#14B8A6"/>
<path d="M469.3 429.8C469.3 442.7 461.7 448.8 452.4 443.5C443.1 438.1 435.5 423.3 435.5 410.3C435.5 397.4 443.1 391.3 452.4 396.6C461.7 402 469.3 416.9 469.3 429.8Z" fill="#6366F1"/>
<path opacity="0.2" d="M554.1 916.8C501.2 848.7 539.5 824.2 554.1 864C568.7 841 607 909.8 554.1 916.8Z" fill="url(#paint8_linear_287_1276)"/>
<defs>
<linearGradient id="paint0_linear_287_1276" x1="926.639" y1="359.64" x2="644.988" y2="646.983" gradientUnits="userSpaceOnUse">
<stop stop-color="white"/>
<stop offset="1" stop-color="white" stop-opacity="0"/>
</linearGradient>
<linearGradient id="paint1_linear_287_1276" x1="897.962" y1="262.286" x2="616.31" y2="549.629" gradientUnits="userSpaceOnUse">
<stop stop-color="white"/>
<stop offset="1" stop-color="white" stop-opacity="0"/>
</linearGradient>
<linearGradient id="paint2_linear_287_1276" x1="640.962" y1="350.286" x2="359.31" y2="637.63" gradientUnits="userSpaceOnUse">
<stop stop-color="white"/>
<stop offset="1" stop-color="white" stop-opacity="0"/>
</linearGradient>
<linearGradient id="paint3_linear_287_1276" x1="898.962" y1="708.286" x2="617.31" y2="995.629" gradientUnits="userSpaceOnUse">
<stop stop-color="white"/>
<stop offset="1" stop-color="white" stop-opacity="0"/>
</linearGradient>
<linearGradient id="paint4_linear_287_1276" x1="456.654" y1="639.703" x2="435.29" y2="814.404" gradientUnits="userSpaceOnUse">
<stop stop-color="white"/>
<stop offset="1" stop-color="white" stop-opacity="0"/>
</linearGradient>
<linearGradient id="paint5_linear_287_1276" x1="439.081" y1="626.923" x2="447.59" y2="814.478" gradientUnits="userSpaceOnUse">
<stop stop-color="white"/>
<stop offset="1" stop-color="white" stop-opacity="0"/>
</linearGradient>
<linearGradient id="paint6_linear_287_1276" x1="478.858" y1="468.997" x2="328.49" y2="588.377" gradientUnits="userSpaceOnUse">
<stop stop-color="white"/>
<stop offset="1" stop-color="white" stop-opacity="0"/>
</linearGradient>
<linearGradient id="paint7_linear_287_1276" x1="703.501" y1="640.154" x2="736.125" y2="945.765" gradientUnits="userSpaceOnUse">
<stop stop-color="white"/>
<stop offset="1" stop-color="white" stop-opacity="0"/>
</linearGradient>
<linearGradient id="paint8_linear_287_1276" x1="565.286" y1="866.582" x2="526.144" y2="900.397" gradientUnits="userSpaceOnUse">
<stop stop-color="white"/>
<stop offset="1" stop-color="white" stop-opacity="0"/>
</linearGradient>
</defs>
</svg>
