<svg width="1150" height="1150" viewBox="0 0 1150 1150" fill="none" xmlns="http://www.w3.org/2000/svg">
<rect width="1150" height="1150" rx="200" fill="black"/>
<path opacity="0.07" d="M867.2 578.2C867.2 715.4 786.9 780.2 687.9 723.1C588.9 666 508.7 508.4 508.7 371.3C508.7 234.1 589 169.3 688 226.4C787 283.5 867.2 441 867.2 578.2Z" fill="url(#paint0_linear_287_1250)"/>
<path opacity="0.4" d="M606.6 289.7C583 276.1 559.7 269.1 538 269C516.3 268.9 496.5 275.8 479.8 289.3C463.1 302.8 449.9 322.5 440.9 347.4C431.9 372.3 427.2 402 427.2 434.6L606.5 538L606.6 289.7Z" fill="url(#paint1_linear_287_1250)"/>
<path opacity="0.2" d="M467.2 400.2C467.2 449.3 477.7 503.4 497.4 555.6C517.1 607.8 545.1 655.8 577.8 693.5C610.5 731.2 646.6 756.9 681.4 767.4C716.2 777.9 748.1 772.7 773.2 752.4C798.3 732.1 815.3 697.7 822.3 653.6C829.2 609.4 825.7 557.4 812.1 504.2C798.5 451 775.6 398.9 746.1 354.6C716.6 310.3 682 275.7 646.5 255.3V503.7L467.2 400.2Z" fill="url(#paint2_linear_287_1250)"/>
<path opacity="0.3" d="M517.7 375L220.2 203.3L220.3 358.4L491.6 515L517.9 553.9L517.7 375Z" fill="url(#paint3_linear_287_1250)"/>
<path d="M188.5 263.7V221.6L300.8 286.4V328.5L188.5 263.7Z" fill="#14B8A6"/>
<path opacity="0.15" d="M441.2 368.6L376 331V344.6L441.2 382.2V368.6Z" fill="white"/>
<path opacity="0.15" d="M441.3 395.9L315.6 323.4V337L441.3 409.5V395.9Z" fill="white"/>
<path opacity="0.15" d="M441.3 423.1L289 335.3V348.9L441.3 436.8V423.1Z" fill="white"/>
<path d="M457.3 392.1C457.3 404.9 464.9 419.6 474.2 425C483.5 430.4 491.1 424.4 491.1 411.6C491.1 398.8 483.5 384.1 474.2 378.7C464.8 373.3 457.3 379.3 457.3 392.1Z" fill="#14B8A6"/>
<path opacity="0.3" d="M637.4 614.9L935 786.7L935.1 941.8L663.8 785.2L637.6 793.8L637.4 614.9Z" fill="url(#paint4_linear_287_1250)"/>
<path d="M848.4 814V771.9L960.7 836.7V878.8L848.4 814Z" fill="#14B8A6"/>
<path opacity="0.15" d="M714 696.9L779.2 734.5V748.1L714 710.5V696.9Z" fill="white"/>
<path opacity="0.15" d="M714 724.1L831.7 792V805.6L714 737.8V724.1Z" fill="white"/>
<path opacity="0.15" d="M714 751.4L866.3 839.3V852.9L714 765V751.4Z" fill="white"/>
<path d="M697.9 701.8C697.9 714.6 690.3 720.6 681 715.2C671.7 709.8 664.1 695.1 664.1 682.3C664.1 669.5 671.7 663.5 681 668.9C690.3 674.3 697.9 689 697.9 701.8Z" fill="#14B8A6"/>
<path opacity="0.3" d="M428.1 538.1L595.7 634.8V945.3L428.1 848.6V538.1Z" fill="url(#paint5_linear_287_1250)"/>
<path opacity="0.15" d="M444.6 722.4L579.2 800.1V813.7L444.6 736V722.4Z" fill="white"/>
<path opacity="0.15" d="M454 754.4L569.7 821.2V834.8L454 768V754.4Z" fill="white"/>
<path d="M502.9 809.9L386.3 742.6V777.3L502.9 844.6V809.9Z" fill="#6366F1"/>
<path d="M531 660.2C531 675.2 522.3 682.3 511.6 676.1C500.9 669.9 492.2 652.6 492.2 637.5C492.2 622.5 500.9 615.4 511.6 621.6C522.3 627.9 531 645.2 531 660.2Z" fill="#6366F1"/>
<path d="M511.6 688.2C494.3 678.1 480 687.6 477.5 709.3C477.1 713.1 479.9 718.1 483.4 720.1L539.8 753.1C543.3 755.1 546.1 753.5 545.7 749.2C543.2 724.4 528.9 698.3 511.6 688.2Z" fill="#6366F1"/>
<path opacity="0.2" d="M334.8 512.7L292 488V473.6L334.8 498.3C338.3 500.3 343.4 504.4 347.7 510.7C352.4 517.4 355.7 525.9 355.7 535.1C355.7 545.3 353.1 551.1 348.2 552.7C343.6 554.2 338.1 551.6 334.8 549.7L317.2 539.5L317.1 539.4C315.6 538.5 313.2 537.6 311.3 538.2C309.7 538.7 308 540.2 308 545.9C308 551.6 309.8 555 311.2 557.1C313 559.7 315.4 561.5 316.9 562.3L317.1 562.4L370.9 593.5V607.9L317.5 577C313.8 575.1 308.5 571 303.9 564.6C298.9 557.5 295.5 548.6 295.5 538.7C295.5 528.8 298.9 523.8 303.8 522.4C308.4 521.1 313.7 523 317.4 525.2L334.8 535.3C337.3 536.8 339.2 537.4 340.5 537C341.5 536.7 343.3 535.3 343.3 528C343.3 523.2 341.8 520.1 340.3 518.1C338.5 515.4 336.2 513.5 334.8 512.7Z" fill="white"/>
<path d="M299.8 484.9C299.8 497.8 292.2 503.9 282.9 498.6C273.6 493.2 266 478.4 266 465.4C266 452.5 273.6 446.4 282.9 451.7C292.2 457.1 299.8 472 299.8 484.9Z" fill="#14B8A6"/>
<path d="M392.8 612.9C392.8 625.8 385.2 631.9 375.9 626.6C366.6 621.2 359 606.4 359 593.4C359 580.5 366.6 574.4 375.9 579.7C385.2 585.1 392.8 600 392.8 612.9Z" fill="#6366F1"/>
<defs>
<linearGradient id="paint0_linear_287_1250" x1="903.227" y1="367.943" x2="571.292" y2="532.606" gradientUnits="userSpaceOnUse">
<stop stop-color="white"/>
<stop offset="1" stop-color="white" stop-opacity="0"/>
</linearGradient>
<linearGradient id="paint1_linear_287_1250" x1="682.793" y1="346.432" x2="481.952" y2="441.005" gradientUnits="userSpaceOnUse">
<stop stop-color="white"/>
<stop offset="1" stop-color="white" stop-opacity="0"/>
</linearGradient>
<linearGradient id="paint2_linear_287_1250" x1="776.406" y1="415.591" x2="629.48" y2="567.292" gradientUnits="userSpaceOnUse">
<stop stop-color="white"/>
<stop offset="1" stop-color="white" stop-opacity="0"/>
</linearGradient>
<linearGradient id="paint3_linear_287_1250" x1="452.843" y1="312.903" x2="299.193" y2="433.207" gradientUnits="userSpaceOnUse">
<stop stop-color="white"/>
<stop offset="1" stop-color="white" stop-opacity="0"/>
</linearGradient>
<linearGradient id="paint4_linear_287_1250" x1="765.26" y1="619.953" x2="803.73" y2="931.983" gradientUnits="userSpaceOnUse">
<stop stop-color="white"/>
<stop offset="1" stop-color="white" stop-opacity="0"/>
</linearGradient>
<linearGradient id="paint5_linear_287_1250" x1="613.65" y1="565.466" x2="464.883" y2="823.205" gradientUnits="userSpaceOnUse">
<stop stop-color="white"/>
<stop offset="1" stop-color="white" stop-opacity="0"/>
</linearGradient>
</defs>
</svg>
