<svg width="1150" height="1150" viewBox="0 0 1150 1150" fill="none" xmlns="http://www.w3.org/2000/svg">
<rect width="1150" height="1150" rx="200" fill="black"/>
<path opacity="0.3" d="M474.1 99.0999C480.4 102.7 485.4 111.5 485.4 118.7V311.9L542.7 345V544.3C542.7 551.5 537.6 554.4 531.4 550.8C525.1 547.2 520.1 538.4 520.1 531.2V358L462.7 325V105.6C462.7 98.3999 467.8 95.4999 474.1 99.0999Z" fill="url(#paint0_linear_287_1161)"/>
<path opacity="0.3" d="M505.3 938.3C511.6 941.9 516.6 939 516.6 931.8V787L573.9 820.1V725.3C573.9 718.1 568.8 709.3 562.6 705.7C556.3 702.1 551.3 705 551.3 712.2V780.9L494 747.8V918.7C494 925.9 499.1 934.7 505.3 938.3Z" fill="url(#paint1_linear_287_1161)"/>
<path opacity="0.3" d="M593.4 240.9C599.7 244.5 604.7 253.3 604.7 260.5V589.2C604.7 596.4 599.6 599.3 593.4 595.7C587.1 592.1 582.1 583.3 582.1 576.1V247.4C582.1 240.2 587.2 237.3 593.4 240.9Z" fill="url(#paint2_linear_287_1161)"/>
<path d="M529.2 921.8C529.2 941.6 517.6 951 503.3 942.7C489 934.5 477.4 911.7 477.4 891.9C477.4 872.1 489 862.7 503.3 871C517.6 879.2 529.2 902 529.2 921.8Z" fill="#6366F1"/>
<path opacity="0.3" d="M719.5 405.7C713.2 402.1 708.2 405 708.2 412.2V509.8L650.9 476.7V596.6C650.9 603.8 656 612.6 662.2 616.2C668.5 619.8 673.5 616.9 673.5 609.7V515.9L730.8 549V425.3C730.8 418.1 725.7 409.3 719.5 405.7Z" fill="url(#paint3_linear_287_1161)"/>
<path d="M744.9 440.2C744.9 459.8 733.4 469 719.3 460.9C705.2 452.7 693.7 430.3 693.7 410.7C693.7 391.1 705.1 381.9 719.3 390C733.5 398.2 744.9 420.6 744.9 440.2Z" fill="#14B8A6"/>
<path opacity="0.3" d="M829.1 939.4C829.1 932.2 824 923.4 817.8 919.8L728.8 868.4V793.9L640.4 742.9C634.1 739.3 629.1 742.2 629.1 749.4C629.1 756.6 634.2 765.4 640.4 769L706.2 807V881.5L817.9 945.9C824.1 949.5 829.1 946.6 829.1 939.4Z" fill="url(#paint4_linear_287_1161)"/>
<path opacity="0.3" d="M614.3 1047.8C608 1044.2 603 1035.4 603 1028.2V791.2C603 784 608.1 781.1 614.3 784.7C620.6 788.3 625.6 797.1 625.6 804.3V1041.3C625.6 1048.5 620.5 1051.4 614.3 1047.8Z" fill="url(#paint5_linear_287_1161)"/>
<path d="M842.9 948C842.9 967.8 831.3 977.2 817 968.9C802.7 960.7 791.1 937.9 791.1 918.1C791.1 898.3 802.7 888.9 817 897.2C831.3 905.4 842.9 928.2 842.9 948Z" fill="#14B8A6"/>
<path opacity="0.3" d="M289 550.2L451.8 644.2V945.8L289 851.8V550.2Z" fill="url(#paint6_linear_287_1161)"/>
<path opacity="0.15" d="M314.8 742L411.8 798V809.9L314.8 753.9V742Z" fill="white"/>
<path opacity="0.15" d="M324.9 771.3L401.8 815.7V827.6L324.9 783.2V771.3Z" fill="white"/>
<path d="M351.1 825L237.9 759.6V793.3L351.2 858.7L351.1 825Z" fill="#6366F1"/>
<path opacity="0.2" d="M405.7 674.3L380.4 694.3L363.4 672.5L341.2 691.7L332.4 685.3L365.1 657.8L381.7 679.6L400 666L405.7 674.3Z" fill="white"/>
<path d="M424.7 673.8C424.7 685.1 418.1 690.4 410 685.7C401.9 681 395.3 668.1 395.3 656.8C395.3 645.5 401.9 640.2 410 644.9C418.1 649.6 424.7 662.6 424.7 673.8Z" fill="#6366F1"/>
<path d="M348.9 695.6C348.9 706.9 342.3 712.2 334.2 707.5C326.1 702.8 319.5 689.9 319.5 678.6C319.5 667.3 326.1 662 334.2 666.7C342.3 671.4 348.9 684.3 348.9 695.6Z" fill="#6366F1"/>
<path opacity="0.2" d="M848.5 747.4L693.7 658V738.6L848.5 828V747.4Z" fill="url(#paint7_linear_287_1161)"/>
<path opacity="0.15" d="M733.3 700.4L779.9 727.3V737L733.3 710V700.4Z" fill="white"/>
<path opacity="0.15" d="M733.4 719.8L832.6 777V786.8L733.4 729.6V719.8Z" fill="white"/>
<path d="M725.2 703.2C725.2 709.8 721.3 713 716.4 710.2C711.5 707.4 707.6 699.7 707.6 693.1C707.6 686.5 711.5 683.3 716.4 686.1C721.3 688.9 725.2 696.6 725.2 703.2Z" fill="#14B8A6"/>
<path opacity="0.2" d="M451.3 500.9L296.5 411.5V492.1L451.3 581.5V500.9Z" fill="url(#paint8_linear_287_1161)"/>
<path opacity="0.15" d="M336.1 453.9L382.7 480.8V490.5L336.1 463.6V453.9Z" fill="white"/>
<path opacity="0.15" d="M336.2 473.3L435.4 530.5V540.3L336.2 483.1V473.3Z" fill="white"/>
<path d="M328 456.7C328 463.3 324.1 466.5 319.2 463.7C314.3 460.9 310.4 453.2 310.4 446.6C310.4 440 314.3 436.8 319.2 439.6C324 442.4 328 450.1 328 456.7Z" fill="#14B8A6"/>
<path opacity="0.2" d="M655.8 676.1C655.8 725.1 627.1 748.3 591.8 727.9C556.4 707.5 527.8 651.2 527.8 602.2C527.8 553.2 556.5 530 591.8 550.4C627.2 570.8 655.8 627.1 655.8 676.1Z" fill="url(#paint9_linear_287_1161)"/>
<path opacity="0.4" d="M566.6 651.8C568.3 651.3 569.2 649.5 569.2 646.4C569.2 643.2 568.3 640.4 566.6 638.1C564.8 635.8 562.2 633.6 558.8 631.7C557.7 631.1 556.5 630.4 555.2 629.8C553.9 629.1 552.8 628.5 551.8 628.1V645.3L558.1 648.9C562.1 651.2 564.9 652.1 566.6 651.8Z" fill="white"/>
<path opacity="0.4" d="M559.8 663.6L551.7 658.9V679.5C552.7 680.2 553.7 680.9 554.7 681.5C555.8 682.2 557 682.9 558.3 683.7C562.2 685.9 565.3 687 567.7 686.8C570.1 686.7 571.3 684.5 571.3 680.4C571.3 676.8 570.3 673.6 568.3 670.9C566.3 668.2 563.5 665.7 559.8 663.6Z" fill="white"/>
<path opacity="0.4" d="M562 570.4C526.6 550 498 573.2 498 622.2C498 671.2 526.7 727.5 562 747.9C597.4 768.3 626 745.1 626 696.1C626 647.1 597.3 590.8 562 570.4ZM577.8 703.4C574.4 704.7 569.7 704 563.7 701.3V713.3L551.4 706.2V694.3C550.5 693.8 549.7 693.2 548.8 692.6C545.7 690.5 542.5 688 539.1 685.1V607.7C541.7 608.5 544.6 609.7 547.8 611.2C549 611.7 550.2 612.3 551.4 612.9V601L563.7 608.1L563.6 620.3C564.6 621.1 565.6 621.8 566.5 622.6C569.6 625.1 572.3 627.9 574.5 630.9C576.7 633.9 578.4 637.3 579.6 640.9C580.9 644.5 581.5 648.4 581.5 652.6C581.5 659 579.3 662.8 574.9 663.9C578.6 667.9 581.1 671.9 582.4 676C583.7 680 584.4 684.2 584.4 688.3C584.4 696.7 582.2 701.7 577.8 703.4Z" fill="white"/>
<defs>
<linearGradient id="paint0_linear_287_1161" x1="587.669" y1="177.743" x2="423.58" y2="462.027" gradientUnits="userSpaceOnUse">
<stop stop-color="white"/>
<stop offset="1" stop-color="white" stop-opacity="0"/>
</linearGradient>
<linearGradient id="paint1_linear_287_1161" x1="468.98" y1="904.272" x2="572.706" y2="724.567" gradientUnits="userSpaceOnUse">
<stop stop-color="white"/>
<stop offset="1" stop-color="white" stop-opacity="0"/>
</linearGradient>
<linearGradient id="paint2_linear_287_1161" x1="664.564" y1="295.008" x2="522.238" y2="541.591" gradientUnits="userSpaceOnUse">
<stop stop-color="white"/>
<stop offset="1" stop-color="white" stop-opacity="0"/>
</linearGradient>
<linearGradient id="paint3_linear_287_1161" x1="780.155" y1="358.129" x2="644.574" y2="593.022" gradientUnits="userSpaceOnUse">
<stop stop-color="white"/>
<stop offset="1" stop-color="white" stop-opacity="0"/>
</linearGradient>
<linearGradient id="paint4_linear_287_1161" x1="866.403" y1="844.416" x2="640.392" y2="844.39" gradientUnits="userSpaceOnUse">
<stop stop-color="white"/>
<stop offset="1" stop-color="white" stop-opacity="0"/>
</linearGradient>
<linearGradient id="paint5_linear_287_1161" x1="562.958" y1="1005.08" x2="665.748" y2="827.24" gradientUnits="userSpaceOnUse">
<stop stop-color="white"/>
<stop offset="1" stop-color="white" stop-opacity="0"/>
</linearGradient>
<linearGradient id="paint6_linear_287_1161" x1="469.233" y1="576.772" x2="324.704" y2="827.168" gradientUnits="userSpaceOnUse">
<stop stop-color="white"/>
<stop offset="1" stop-color="white" stop-opacity="0"/>
</linearGradient>
<linearGradient id="paint7_linear_287_1161" x1="788.559" y1="712.753" x2="753.641" y2="773.247" gradientUnits="userSpaceOnUse">
<stop stop-color="white"/>
<stop offset="1" stop-color="white" stop-opacity="0"/>
</linearGradient>
<linearGradient id="paint8_linear_287_1161" x1="391.359" y1="466.253" x2="356.441" y2="526.747" gradientUnits="userSpaceOnUse">
<stop stop-color="white"/>
<stop offset="1" stop-color="white" stop-opacity="0"/>
</linearGradient>
<linearGradient id="paint9_linear_287_1161" x1="604.657" y1="565.933" x2="575.712" y2="730.763" gradientUnits="userSpaceOnUse">
<stop stop-color="white"/>
<stop offset="1" stop-color="white" stop-opacity="0"/>
</linearGradient>
</defs>
</svg>
