<svg width="1150" height="1150" viewBox="0 0 1150 1150" fill="none" xmlns="http://www.w3.org/2000/svg">
<rect width="1150" height="1150" rx="200" fill="black"/>
<path opacity="0.4" d="M622.8 400.6C614.3 395.7 608.2 395.6 604.5 400.2C600.7 404.8 598.9 412.6 598.9 423.5V482.5C598.9 493.7 597.9 503 595.8 510.4C593.7 518.1 590.2 523.5 585.4 526.7C580.7 530 574.3 530.8 566.2 529.3C558.3 527.9 548.4 523.7 536.6 516.9L531 513.6V467.1L538.1 471.2C546.6 476.1 552.2 476.7 555 473.2C558 469.7 559.5 462.5 559.5 451.6V399.6C559.5 386 560.8 375.3 563.5 367.5C566.1 359.6 571.4 354.6 579.3 352.4C571.4 341.1 566.1 329.9 563.5 319C560.9 308.1 559.6 295.9 559.6 282.3V230.3C559.6 219.4 558.1 210.4 555.1 203.5C552.3 196.7 546.6 190.8 538.2 185.9L531.1 181.8V135.3L536.7 138.6C548.5 145.4 558.4 152.7 566.3 160.4C574.4 168.2 580.8 176.4 585.5 185.2C590.4 194 593.9 203.4 595.9 213.5C598 223.3 599 233.8 599 245V304C599 314.9 600.9 324.9 604.6 333.8C608.4 342.7 614.5 349.7 622.9 354.5L622.8 400.6Z" fill="url(#paint0_linear_287_1133)"/>
<path opacity="0.4" d="M408.6 229.7C417.1 234.6 423.2 234.7 426.9 230.1C430.7 225.5 432.5 217.7 432.5 206.8V147.8C432.5 136.6 433.5 127.3 435.6 119.9C437.7 112.2 441.1 106.8 445.8 103.5C450.7 100.3 457.1 99.4999 465 100.9C473.1 102.4 483.1 106.6 494.9 113.5L500.5 116.8V163.3L493.4 159.2C484.9 154.3 479.2 153.6 476.2 157.1C473.4 160.7 472 167.9 472 178.9V230.9C472 244.4 470.7 255.2 468 263C465.4 270.9 460.1 275.9 452.2 278.1C460.1 289.4 465.4 300.6 468 311.5C470.6 322.4 471.9 334.6 471.9 348.2V400.2C471.9 411.1 473.3 420 476.1 426.9C479.1 433.8 484.8 439.8 493.3 444.6L500.4 448.7V495.2L494.8 491.9C483 485.1 473 477.7 464.9 470C457 462.3 450.6 454.1 445.7 445.2C441 436.5 437.6 427.1 435.6 417.1C433.5 407.3 432.5 396.8 432.5 385.6V326.6C432.5 315.7 430.6 305.7 426.9 296.8C423.1 287.9 417 280.9 408.6 276.1V229.7Z" fill="url(#paint1_linear_287_1133)"/>
<path opacity="0.15" d="M651.7 113.1L862.8 235L862.7 741.1L651.6 619.3L651.7 113.1Z" fill="url(#paint2_linear_287_1133)"/>
<path d="M612 179.4L780 276.3V322.8L612 225.9V179.4Z" fill="#6366F1"/>
<path opacity="0.2" d="M679.2 394.7L838.4 486.6V627.3L679.2 535.4V394.7Z" fill="url(#paint3_linear_287_1133)"/>
<path opacity="0.15" d="M677.6 286.8L839.2 380.1V396L677.6 302.7V286.8Z" fill="white"/>
<path opacity="0.15" d="M677.6 318.8L817.3 399.4V415.3L677.6 334.7V318.8Z" fill="white"/>
<path opacity="0.15" d="M677.6 350.4L796.2 418.8V434.7L677.6 366.3V350.4Z" fill="white"/>
<path opacity="0.2" d="M651.7 113.1L862.8 235V302.8L651.6 181L651.7 113.1Z" fill="url(#paint4_linear_287_1133)"/>
<path opacity="0.2" d="M704.4 177.9C704.4 188.2 698.4 193 691 188.7C683.6 184.4 677.6 172.7 677.6 162.4C677.6 152.1 683.6 147.3 691 151.6C698.4 155.9 704.4 167.7 704.4 177.9Z" fill="white"/>
<path opacity="0.15" d="M271.3 268.1L921.1 643.1L921 1149.5L271.2 774.5L271.3 268.1Z" fill="url(#paint5_linear_287_1133)"/>
<path d="M228.2 392.9L396.1 489.8V536.3L228.2 439.5V392.9Z" fill="#14B8A6"/>
<path opacity="0.15" d="M315.1 520.7L687.9 735.9V751.8L315.1 536.6V520.7Z" fill="white"/>
<path opacity="0.15" d="M315.1 552.7L636.7 738.3V754.2L315.1 568.6V552.7Z" fill="white"/>
<path opacity="0.15" d="M315.1 584.4L588.8 742.4V758.3L315.1 600.3V584.4Z" fill="white"/>
<path opacity="0.2" d="M566.7 786L894.5 975.2V1115.9L566.7 926.7V786Z" fill="url(#paint6_linear_287_1133)"/>
<path opacity="0.15" d="M591.4 828.1L640.8 856.6V903.1L591.4 874.6V828.1Z" fill="white"/>
<path opacity="0.15" d="M651.9 865.3L701.3 893.8V940.3L651.9 911.8V865.3Z" fill="white"/>
<path opacity="0.15" d="M712.7 899.8L762.1 928.3V974.8L712.7 946.3V899.8Z" fill="white"/>
<path opacity="0.15" d="M773.5 936.5L822.9 965V1011.5L773.5 983V936.5Z" fill="white"/>
<path opacity="0.2" d="M254.1 600.2L527 757.7V898.4L254.1 740.8V600.2Z" fill="url(#paint7_linear_287_1133)"/>
<path opacity="0.15" d="M281.6 652.1L498.4 777.2V793.1L281.6 668V652.1Z" fill="white"/>
<path opacity="0.15" d="M281.6 684.1L455.2 784.3V800.2L281.6 699.9V684.1Z" fill="white"/>
<path opacity="0.2" d="M271.3 268.1L920.2 642.7V711.3L271.3 336.8V268.1Z" fill="url(#paint8_linear_287_1133)"/>
<path opacity="0.2" d="M342 343.2C342 353.5 336 358.3 328.6 354C321.2 349.7 315.2 338 315.2 327.7C315.2 317.4 321.2 312.6 328.6 316.9C336 321.2 342 333 342 343.2Z" fill="white"/>
<defs>
<linearGradient id="paint0_linear_287_1133" x1="680.362" y1="121.266" x2="516.58" y2="405.193" gradientUnits="userSpaceOnUse">
<stop stop-color="white"/>
<stop offset="0.903" stop-color="white" stop-opacity="0"/>
</linearGradient>
<linearGradient id="paint1_linear_287_1133" x1="585.807" y1="102.017" x2="422.006" y2="385.909" gradientUnits="userSpaceOnUse">
<stop stop-color="white"/>
<stop offset="0.903" stop-color="white" stop-opacity="0"/>
</linearGradient>
<linearGradient id="paint2_linear_287_1133" x1="866.769" y1="237.3" x2="664.914" y2="587.015" gradientUnits="userSpaceOnUse">
<stop stop-color="white"/>
<stop offset="1" stop-color="white" stop-opacity="0"/>
</linearGradient>
<linearGradient id="paint3_linear_287_1133" x1="789.284" y1="458.169" x2="733.182" y2="555.364" gradientUnits="userSpaceOnUse">
<stop stop-color="white"/>
<stop offset="1" stop-color="white" stop-opacity="0"/>
</linearGradient>
<linearGradient id="paint4_linear_287_1133" x1="724.078" y1="114.152" x2="788.443" y2="296.377" gradientUnits="userSpaceOnUse">
<stop stop-color="white"/>
<stop offset="1" stop-color="white" stop-opacity="0"/>
</linearGradient>
<linearGradient id="paint5_linear_287_1133" x1="705.784" y1="518.833" x2="598.865" y2="704.115" gradientUnits="userSpaceOnUse">
<stop stop-color="white"/>
<stop offset="1" stop-color="white" stop-opacity="0"/>
</linearGradient>
<linearGradient id="paint6_linear_287_1133" x1="761.094" y1="898.18" x2="704.992" y2="995.376" gradientUnits="userSpaceOnUse">
<stop stop-color="white"/>
<stop offset="1" stop-color="white" stop-opacity="0"/>
</linearGradient>
<linearGradient id="paint7_linear_287_1133" x1="420.997" y1="696.485" x2="364.895" y2="793.681" gradientUnits="userSpaceOnUse">
<stop stop-color="white"/>
<stop offset="1" stop-color="white" stop-opacity="0"/>
</linearGradient>
<linearGradient id="paint8_linear_287_1133" x1="432.306" y1="212.826" x2="678.699" y2="630.203" gradientUnits="userSpaceOnUse">
<stop stop-color="white"/>
<stop offset="1" stop-color="white" stop-opacity="0"/>
</linearGradient>
</defs>
</svg>
