<svg width="1150" height="1150" viewBox="0 0 1150 1150" fill="none" xmlns="http://www.w3.org/2000/svg">
<rect width="1150" height="1150" rx="200" fill="black"/>
<path opacity="0.07" d="M719.6 666.6C381.3 231 626 73.7 719.7 328.9C813.4 181.8 1058.1 621.7 719.6 666.6Z" fill="url(#paint0_linear_287_1113)"/>
<path opacity="0.4" d="M687.6 706.6C349.3 271 594 113.7 687.7 368.9C781.4 221.8 1026.1 661.7 687.6 706.6Z" fill="url(#paint1_linear_287_1113)"/>
<path opacity="0.2" d="M299.3 515.4C305.3 518.8 310.1 527.2 310.1 534.1V564.6L330.3 576.2C336.3 579.6 341.1 588 341.1 594.9C341.1 601.8 336.3 604.6 330.3 601.2L310.1 589.6V620.1C310.1 627 305.3 629.8 299.3 626.4C293.3 623 288.5 614.6 288.5 607.7V577.2L268.3 565.6C262.3 562.2 257.5 553.8 257.5 546.9C257.5 540 262.3 537.2 268.3 540.6L288.5 552.2V521.7C288.5 514.7 293.3 511.9 299.3 515.4Z" fill="url(#paint2_linear_287_1113)"/>
<path opacity="0.25" d="M381.7 483.5L568.6 591.4V937.7L381.7 829.7V483.5Z" fill="url(#paint3_linear_287_1113)"/>
<path opacity="0.15" d="M400.1 689L550.2 775.6V789.2L400.1 702.6V689Z" fill="white"/>
<path opacity="0.15" d="M410.6 721.3L539.7 795.8V809.4L410.6 734.9V721.3Z" fill="white"/>
<path d="M465.1 786.6L335.1 711.5V750.2L465.1 825.3V786.6Z" fill="#6366F1"/>
<path d="M496.4 619.6C496.4 636.4 486.7 644.3 474.7 637.3C462.7 630.3 453 611.1 453 594.3C453 577.5 462.7 569.6 474.7 576.6C486.7 583.6 496.4 602.8 496.4 619.6Z" fill="#6366F1"/>
<path d="M474.7 650.8C455.4 639.5 439.5 650.1 436.6 674.4C436.1 678.6 439.3 684.2 443.2 686.4L506.1 723.2C510 725.5 513.2 723.6 512.7 718.9C510 691.2 494 662 474.7 650.8Z" fill="#6366F1"/>
<path opacity="0.25" d="M912.8 788.4L615.1 616.6V771.7L912.8 943.5V788.4Z" fill="url(#paint4_linear_287_1113)"/>
<path opacity="0.15" d="M711.8 727.5L797.5 777V790.6L711.8 741.1V727.5Z" fill="white"/>
<path opacity="0.15" d="M711.8 753.6L886.7 854.5V868.1L711.8 767.2V753.6Z" fill="white"/>
<path d="M946.2 836.8L816.2 761.7V800.4L946.2 875.5V836.8Z" fill="#14B8A6"/>
<path d="M685.6 733.1C685.6 750.3 675.5 758.5 663.1 751.3C650.7 744.1 640.6 724.3 640.6 707.1C640.6 689.9 650.7 681.7 663.1 688.9C675.5 696.1 685.6 715.9 685.6 733.1Z" fill="#14B8A6"/>
<path opacity="0.25" d="M499.8 418.4L202.1 246.6V401.7L499.8 573.5V418.4Z" fill="url(#paint5_linear_287_1113)"/>
<path opacity="0.15" d="M298.9 358.7L445.2 443.2V456.8L298.9 372.3V358.7Z" fill="white"/>
<path opacity="0.15" d="M298.9 384.8L473.8 485.7V499.3L298.9 398.4V384.8Z" fill="white"/>
<path d="M258.4 328C258.4 326.3 257.2 324.3 255.8 323.5L244.3 316.9C242.9 316.1 241.7 316.7 241.7 318.4V329.8C241.7 332.1 239.2 333.6 237.2 332.4L230.1 328.3C228.7 327.5 227.5 328.1 227.5 329.8V346.9C227.5 348.6 228.7 350.6 230.1 351.4L240.2 357.2C241.1 357.7 241.7 358.7 241.7 359.8V374.7C241.7 376.4 242.9 378.4 244.3 379.2L255.8 385.8C257.2 386.6 258.4 386 258.4 384.3V372.9C258.4 370.6 260.9 369.1 262.9 370.3L270 374.4C271.4 375.2 272.6 374.6 272.6 372.9V355.8C272.6 354.1 271.4 352.1 270 351.3L259.9 345.5C259 345 258.4 344 258.4 342.9V328Z" fill="#14B8A6"/>
<defs>
<linearGradient id="paint0_linear_287_1113" x1="884.856" y1="319.935" x2="595.81" y2="481.743" gradientUnits="userSpaceOnUse">
<stop stop-color="white"/>
<stop offset="1" stop-color="white" stop-opacity="0"/>
</linearGradient>
<linearGradient id="paint1_linear_287_1113" x1="852.855" y1="359.936" x2="563.809" y2="521.743" gradientUnits="userSpaceOnUse">
<stop stop-color="white"/>
<stop offset="1" stop-color="white" stop-opacity="0"/>
</linearGradient>
<linearGradient id="paint2_linear_287_1113" x1="320.218" y1="554.352" x2="267.861" y2="595.672" gradientUnits="userSpaceOnUse">
<stop stop-color="white"/>
<stop offset="1" stop-color="white" stop-opacity="0"/>
</linearGradient>
<linearGradient id="paint3_linear_287_1113" x1="588.582" y1="513.938" x2="422.672" y2="801.378" gradientUnits="userSpaceOnUse">
<stop stop-color="white"/>
<stop offset="1" stop-color="white" stop-opacity="0"/>
</linearGradient>
<linearGradient id="paint4_linear_287_1113" x1="763.687" y1="648.942" x2="764.127" y2="906.954" gradientUnits="userSpaceOnUse">
<stop stop-color="white"/>
<stop offset="1" stop-color="white" stop-opacity="0"/>
</linearGradient>
<linearGradient id="paint5_linear_287_1113" x1="350.693" y1="278.941" x2="351.132" y2="536.954" gradientUnits="userSpaceOnUse">
<stop stop-color="white"/>
<stop offset="1" stop-color="white" stop-opacity="0"/>
</linearGradient>
</defs>
</svg>
