<svg width="1150" height="1150" viewBox="0 0 1150 1150" fill="none" xmlns="http://www.w3.org/2000/svg">
<rect width="1150" height="1150" rx="200" fill="#141414"/>
<path opacity="0.5" d="M737.5 438.5C654.8 390.2 586.4 435.4 574.3 539.5C572.2 557.6 585.9 581.4 602.5 591.1L872.4 748.7C889 758.4 902.7 750.6 900.7 730.1C888.6 611.8 820.2 486.7 737.5 438.5Z" fill="url(#paint0_linear_287_1422)"/>
<path opacity="0.5" d="M829.7 303.2C829.7 375.1 788.1 409.1 736.8 379.1C685.6 349.2 644 266.7 644 194.8C644 122.9 685.6 88.9001 736.9 118.9C788.2 148.8 829.7 231.4 829.7 303.2Z" fill="url(#paint1_linear_287_1422)"/>
<path opacity="0.07" d="M777.5 408.5C694.8 360.2 626.4 405.4 614.3 509.5C612.2 527.6 625.9 551.4 642.5 561.1L912.4 718.7C929 728.4 942.7 720.6 940.7 700.1C928.6 581.8 860.2 456.7 777.5 408.5Z" fill="url(#paint2_linear_287_1422)"/>
<path opacity="0.07" d="M869.7 273.2C869.7 345.1 828.1 379.1 776.8 349.1C725.6 319.2 684 236.7 684 164.8C684 92.9001 725.6 58.9001 776.9 88.9001C828.2 118.8 869.7 201.4 869.7 273.2Z" fill="url(#paint3_linear_287_1422)"/>
<path opacity="0.2" d="M395.3 475.2L209.1 367.7V464.7L395.4 572.2L395.3 475.2Z" fill="url(#paint4_linear_287_1422)"/>
<path d="M246.9 422.1C246.9 430.1 242.2 433.8 236.3 430.5C230.5 427.1 225.7 417.9 225.7 409.9C225.7 401.9 230.4 398.2 236.3 401.5C242.2 404.9 246.9 414.1 246.9 422.1Z" fill="#14B8A6"/>
<path opacity="0.15" d="M256.5 419.1L317.4 454.2V467.8L256.5 432.7V419.1Z" fill="white"/>
<path opacity="0.15" d="M256.8 446.5L376.1 515.4V529L256.8 460.1V446.5Z" fill="white"/>
<path opacity="0.05" d="M689.3 573L876.4 681V1083.9L689.3 976V573Z" fill="url(#paint5_linear_287_1422)"/>
<path opacity="0.3" d="M845.2 708L658 600V1002.9L845.1 1110.9L845.2 708ZM719 661L781.5 697V713L719 677.5V661Z" fill="url(#paint6_linear_287_1422)"/>
<path opacity="0.15" d="M676.1 855.3L826.4 942V955.6L676.1 868.9V855.3Z" fill="white"/>
<path opacity="0.15" d="M686.7 887.9L816 962.5V976.1L686.7 901.5V887.9Z" fill="white"/>
<path d="M793.4 821.4C793.4 789.5 774.7 752.8 751.7 739.5C728.7 726.2 710 741.3 710 773.2C710 805.1 728.7 841.8 751.7 855.1C774.7 868.4 793.4 853.3 793.4 821.4Z" fill="#14B8A6"/>
<path opacity="0.05" d="M456.3 248.7L643.4 356.7V759.6L456.3 651.6V248.7Z" fill="url(#paint7_linear_287_1422)"/>
<path opacity="0.3" d="M612.2 384L425 276V678.9L612.1 786.9L612.2 384ZM486 337L548.5 373V389L486 353.5V337Z" fill="url(#paint8_linear_287_1422)"/>
<path opacity="0.15" d="M443.1 530.9L593.4 617.6V631.2L443.1 544.5V530.9Z" fill="white"/>
<path opacity="0.15" d="M453.6 563.6L582.8 638.2V651.8L453.5 577.2L453.6 563.6Z" fill="white"/>
<path d="M560.4 497.1C560.4 465.2 541.7 428.5 518.7 415.2C495.7 401.9 477 417 477 448.9C477 480.8 495.7 517.5 518.7 530.8C541.7 544.1 560.4 529 560.4 497.1Z" fill="#6366F1"/>
<path opacity="0.3" d="M560.4 721.8L262.8 550L262.9 705.1L534.2 861.7L560.5 900.6L560.4 721.8Z" fill="url(#paint9_linear_287_1422)"/>
<path d="M231.1 610.5V568.4L343.4 633.2V675.3L231.1 610.5Z" fill="#14B8A6"/>
<path opacity="0.15" d="M483.9 715.4L418.7 677.8V691.4L483.9 729V715.4Z" fill="white"/>
<path opacity="0.15" d="M483.9 742.7L358.2 670.2V683.8L483.9 756.3V742.7Z" fill="white"/>
<path opacity="0.15" d="M483.9 769.9L331.7 682V695.6L484 783.5L483.9 769.9Z" fill="white"/>
<path d="M500 738.9C500 751.7 507.6 766.4 516.9 771.8C526.2 777.2 533.8 771.2 533.8 758.4C533.8 745.6 526.2 730.9 516.9 725.5C507.5 720.1 499.9 726.1 500 738.9Z" fill="#14B8A6"/>
<path opacity="0.2" d="M327.1 256.4C333.1 259.8 337.9 268.2 337.9 275.1V305.6L358.1 317.2C364.1 320.6 368.9 329 368.9 335.9C368.9 342.8 364.1 345.6 358.1 342.2L337.9 330.6V361.1C337.9 368 333.1 370.8 327.1 367.4C321.1 364 316.3 355.6 316.3 348.7V318.2L296.1 306.6C290.1 303.2 285.3 294.8 285.3 287.9C285.3 281 290.1 278.2 296.1 281.6L316.3 293.2V262.7C316.3 255.8 321.1 253 327.1 256.4Z" fill="url(#paint10_linear_287_1422)"/>
<defs>
<linearGradient id="paint0_linear_287_1422" x1="1078.74" y1="359.718" x2="742.813" y2="604.764" gradientUnits="userSpaceOnUse">
<stop stop-color="white"/>
<stop offset="1" stop-color="white" stop-opacity="0"/>
</linearGradient>
<linearGradient id="paint1_linear_287_1422" x1="907.545" y1="124.499" x2="571.622" y2="369.545" gradientUnits="userSpaceOnUse">
<stop stop-color="white"/>
<stop offset="1" stop-color="white" stop-opacity="0"/>
</linearGradient>
<linearGradient id="paint2_linear_287_1422" x1="1118.74" y1="329.718" x2="782.814" y2="574.764" gradientUnits="userSpaceOnUse">
<stop stop-color="white"/>
<stop offset="1" stop-color="white" stop-opacity="0"/>
</linearGradient>
<linearGradient id="paint3_linear_287_1422" x1="947.545" y1="94.499" x2="611.622" y2="339.545" gradientUnits="userSpaceOnUse">
<stop stop-color="white"/>
<stop offset="1" stop-color="white" stop-opacity="0"/>
</linearGradient>
<linearGradient id="paint4_linear_287_1422" x1="323.215" y1="433.592" x2="281.204" y2="506.377" gradientUnits="userSpaceOnUse">
<stop stop-color="white"/>
<stop offset="1" stop-color="white" stop-opacity="0"/>
</linearGradient>
<linearGradient id="paint5_linear_287_1422" x1="891.522" y1="640.289" x2="659.803" y2="1041.74" gradientUnits="userSpaceOnUse">
<stop stop-color="white"/>
<stop offset="1" stop-color="white" stop-opacity="0"/>
</linearGradient>
<linearGradient id="paint6_linear_287_1422" x1="860.227" y1="667.239" x2="628.508" y2="1068.69" gradientUnits="userSpaceOnUse">
<stop stop-color="white"/>
<stop offset="1" stop-color="white" stop-opacity="0"/>
</linearGradient>
<linearGradient id="paint7_linear_287_1422" x1="658.515" y1="315.97" x2="426.796" y2="717.424" gradientUnits="userSpaceOnUse">
<stop stop-color="white"/>
<stop offset="1" stop-color="white" stop-opacity="0"/>
</linearGradient>
<linearGradient id="paint8_linear_287_1422" x1="627.226" y1="343.238" x2="395.507" y2="744.692" gradientUnits="userSpaceOnUse">
<stop stop-color="white"/>
<stop offset="1" stop-color="white" stop-opacity="0"/>
</linearGradient>
<linearGradient id="paint9_linear_287_1422" x1="495.501" y1="659.684" x2="341.851" y2="779.988" gradientUnits="userSpaceOnUse">
<stop stop-color="white"/>
<stop offset="1" stop-color="white" stop-opacity="0"/>
</linearGradient>
<linearGradient id="paint10_linear_287_1422" x1="347.978" y1="295.389" x2="295.62" y2="336.709" gradientUnits="userSpaceOnUse">
<stop stop-color="white"/>
<stop offset="1" stop-color="white" stop-opacity="0"/>
</linearGradient>
</defs>
</svg>
